<?xml version="1.0" encoding="UTF-8" standalone="no"?>
<!DOCTYPE svg PUBLIC "-//W3C//DTD SVG 1.1//EN"
 "http://www.w3.org/Graphics/SVG/1.1/DTD/svg11.dtd">
<!-- Generated by graphviz version 2.47.3 (20210619.2315)
 -->
<!-- Title: snakemake_dag Pages: 1 -->
<svg width="1154pt" height="1054pt"
 viewBox="0.00 0.00 1153.91 1054.00" xmlns="http://www.w3.org/2000/svg" xmlns:xlink="http://www.w3.org/1999/xlink">
<g id="graph0" class="graph" transform="scale(1 1) rotate(0) translate(4 1050)">
<title>snakemake_dag</title>
<polygon fill="white" stroke="transparent" points="-4,4 -4,-1050 1149.91,-1050 1149.91,4 -4,4"/>
<!-- 0 -->
<g id="node1" class="node">
<title>0</title>
<path fill="none" stroke="#56d8c9" stroke-width="2" d="M663.41,-36C663.41,-36 633.41,-36 633.41,-36 627.41,-36 621.41,-30 621.41,-24 621.41,-24 621.41,-12 621.41,-12 621.41,-6 627.41,0 633.41,0 633.41,0 663.41,0 663.41,0 669.41,0 675.41,-6 675.41,-12 675.41,-12 675.41,-24 675.41,-24 675.41,-30 669.41,-36 663.41,-36"/>
<text text-anchor="middle" x="648.41" y="-15.5" font-family="sans" font-size="10.00">all</text>
</g>
<!-- 1 -->
<g id="node2" class="node">
<title>1</title>
<path fill="none" stroke="#56d8a2" stroke-width="2" d="M601.91,-113C601.91,-113 448.91,-113 448.91,-113 442.91,-113 436.91,-107 436.91,-101 436.91,-101 436.91,-84 436.91,-84 436.91,-78 442.91,-72 448.91,-72 448.91,-72 601.91,-72 601.91,-72 607.91,-72 613.91,-78 613.91,-84 613.91,-84 613.91,-101 613.91,-101 613.91,-107 607.91,-113 601.91,-113"/>
<text text-anchor="middle" x="525.41" y="-101" font-family="sans" font-size="10.00">bcbio_variation_recall_ensemble</text>
<text text-anchor="middle" x="525.41" y="-90" font-family="sans" font-size="10.00">sample: HD832.HES45</text>
<text text-anchor="middle" x="525.41" y="-79" font-family="sans" font-size="10.00">type: T</text>
</g>
<!-- 1&#45;&gt;0 -->
<g id="edge1" class="edge">
<title>1&#45;&gt;0</title>
<path fill="none" stroke="grey" stroke-width="2" d="M558.7,-71.88C575.27,-62.11 595.32,-50.29 612.27,-40.31"/>
<polygon fill="grey" stroke="grey" stroke-width="2" points="614.48,-43.06 621.32,-34.97 610.93,-37.03 614.48,-43.06"/>
</g>
<!-- 2 -->
<g id="node3" class="node">
<title>2</title>
<path fill="none" stroke="#78d856" stroke-width="2" d="M155.91,-257C155.91,-257 100.91,-257 100.91,-257 94.91,-257 88.91,-251 88.91,-245 88.91,-245 88.91,-233 88.91,-233 88.91,-227 94.91,-221 100.91,-221 100.91,-221 155.91,-221 155.91,-221 161.91,-221 167.91,-227 167.91,-233 167.91,-233 167.91,-245 167.91,-245 167.91,-251 161.91,-257 155.91,-257"/>
<text text-anchor="middle" x="128.41" y="-236.5" font-family="sans" font-size="10.00">bcftools_sort</text>
</g>
<!-- 2&#45;&gt;1 -->
<g id="edge3" class="edge">
<title>2&#45;&gt;1</title>
<path fill="none" stroke="grey" stroke-width="2" d="M88.7,-232.11C60.76,-225.68 25.3,-212.35 7.41,-185 -1.34,-171.61 -3.28,-160.9 7.41,-149 34.87,-118.45 284.14,-103.31 426.64,-97.09"/>
<polygon fill="grey" stroke="grey" stroke-width="2" points="426.87,-100.59 436.71,-96.66 426.57,-93.59 426.87,-100.59"/>
</g>
<!-- 31 -->
<g id="node32" class="node">
<title>31</title>
<path fill="none" stroke="#56d87b" stroke-width="2" d="M303.91,-185C303.91,-185 28.91,-185 28.91,-185 22.91,-185 16.91,-179 16.91,-173 16.91,-173 16.91,-161 16.91,-161 16.91,-155 22.91,-149 28.91,-149 28.91,-149 303.91,-149 303.91,-149 309.91,-149 315.91,-155 315.91,-161 315.91,-161 315.91,-173 315.91,-173 315.91,-179 309.91,-185 303.91,-185"/>
<text text-anchor="middle" x="166.41" y="-170" font-family="sans" font-size="10.00">tabix</text>
<text text-anchor="middle" x="166.41" y="-159" font-family="sans" font-size="10.00">file: snv_indels/vardict/HD832.HES45_T.normalized.sorted</text>
</g>
<!-- 2&#45;&gt;31 -->
<g id="edge42" class="edge">
<title>2&#45;&gt;31</title>
<path fill="none" stroke="grey" stroke-width="2" d="M137.81,-220.7C142.18,-212.64 147.47,-202.89 152.31,-193.98"/>
<polygon fill="grey" stroke="grey" stroke-width="2" points="155.43,-195.56 157.13,-185.1 149.28,-192.22 155.43,-195.56"/>
</g>
<!-- 3 -->
<g id="node4" class="node">
<title>3</title>
<path fill="none" stroke="#9fd856" stroke-width="2" d="M279.41,-401C279.41,-401 223.41,-401 223.41,-401 217.41,-401 211.41,-395 211.41,-389 211.41,-389 211.41,-377 211.41,-377 211.41,-371 217.41,-365 223.41,-365 223.41,-365 279.41,-365 279.41,-365 285.41,-365 291.41,-371 291.41,-377 291.41,-377 291.41,-389 291.41,-389 291.41,-395 285.41,-401 279.41,-401"/>
<text text-anchor="middle" x="251.41" y="-380.5" font-family="sans" font-size="10.00">vt_normalize</text>
</g>
<!-- 3&#45;&gt;2 -->
<g id="edge9" class="edge">
<title>3&#45;&gt;2</title>
<path fill="none" stroke="grey" stroke-width="2" d="M211.11,-379.09C177.71,-374.3 132.15,-361.75 109.41,-329 96.62,-310.57 103.87,-285.2 112.86,-266.26"/>
<polygon fill="grey" stroke="grey" stroke-width="2" points="116.02,-267.77 117.48,-257.28 109.79,-264.57 116.02,-267.77"/>
</g>
<!-- 12 -->
<g id="node13" class="node">
<title>12</title>
<path fill="none" stroke="#56d87b" stroke-width="2" d="M371.91,-329C371.91,-329 130.91,-329 130.91,-329 124.91,-329 118.91,-323 118.91,-317 118.91,-317 118.91,-305 118.91,-305 118.91,-299 124.91,-293 130.91,-293 130.91,-293 371.91,-293 371.91,-293 377.91,-293 383.91,-299 383.91,-305 383.91,-305 383.91,-317 383.91,-317 383.91,-323 377.91,-329 371.91,-329"/>
<text text-anchor="middle" x="251.41" y="-314" font-family="sans" font-size="10.00">tabix</text>
<text text-anchor="middle" x="251.41" y="-303" font-family="sans" font-size="10.00">file: snv_indels/vardict/HD832.HES45_T.normalized</text>
</g>
<!-- 3&#45;&gt;12 -->
<g id="edge20" class="edge">
<title>3&#45;&gt;12</title>
<path fill="none" stroke="grey" stroke-width="2" d="M251.41,-364.7C251.41,-356.98 251.41,-347.71 251.41,-339.11"/>
<polygon fill="grey" stroke="grey" stroke-width="2" points="254.91,-339.1 251.41,-329.1 247.91,-339.1 254.91,-339.1"/>
</g>
<!-- 4 -->
<g id="node5" class="node">
<title>4</title>
<path fill="none" stroke="#c6d856" stroke-width="2" d="M329.41,-489C329.41,-489 227.41,-489 227.41,-489 221.41,-489 215.41,-483 215.41,-477 215.41,-477 215.41,-449 215.41,-449 215.41,-443 221.41,-437 227.41,-437 227.41,-437 329.41,-437 329.41,-437 335.41,-437 341.41,-443 341.41,-449 341.41,-449 341.41,-477 341.41,-477 341.41,-483 335.41,-489 329.41,-489"/>
<text text-anchor="middle" x="278.41" y="-477" font-family="sans" font-size="10.00">vt_decompose</text>
<text text-anchor="middle" x="278.41" y="-466" font-family="sans" font-size="10.00">caller: vardict</text>
<text text-anchor="middle" x="278.41" y="-455" font-family="sans" font-size="10.00">sample: HD832.HES45</text>
<text text-anchor="middle" x="278.41" y="-444" font-family="sans" font-size="10.00">type: T</text>
</g>
<!-- 4&#45;&gt;3 -->
<g id="edge11" class="edge">
<title>4&#45;&gt;3</title>
<path fill="none" stroke="grey" stroke-width="2" d="M269.72,-436.89C266.87,-428.66 263.7,-419.48 260.8,-411.1"/>
<polygon fill="grey" stroke="grey" stroke-width="2" points="264.02,-409.72 257.44,-401.41 257.4,-412.01 264.02,-409.72"/>
</g>
<!-- 5 -->
<g id="node6" class="node">
<title>5</title>
<path fill="none" stroke="#56c9d8" stroke-width="2" d="M420.91,-569C420.91,-569 207.91,-569 207.91,-569 201.91,-569 195.91,-563 195.91,-557 195.91,-557 195.91,-545 195.91,-545 195.91,-539 201.91,-533 207.91,-533 207.91,-533 420.91,-533 420.91,-533 426.91,-533 432.91,-539 432.91,-545 432.91,-545 432.91,-557 432.91,-557 432.91,-563 426.91,-569 420.91,-569"/>
<text text-anchor="middle" x="314.41" y="-554" font-family="sans" font-size="10.00">bgzip</text>
<text text-anchor="middle" x="314.41" y="-543" font-family="sans" font-size="10.00">file: snv_indels/vardict/HD832.HES45_T.fix_af</text>
</g>
<!-- 5&#45;&gt;4 -->
<g id="edge12" class="edge">
<title>5&#45;&gt;4</title>
<path fill="none" stroke="grey" stroke-width="2" d="M307.13,-532.6C303.05,-522.86 297.82,-510.36 292.95,-498.71"/>
<polygon fill="grey" stroke="grey" stroke-width="2" points="296.05,-497.08 288.96,-489.2 289.6,-499.78 296.05,-497.08"/>
</g>
<!-- 6 -->
<g id="node7" class="node">
<title>6</title>
<path fill="none" stroke="#d8c356" stroke-width="2" d="M383.41,-665C383.41,-665 281.41,-665 281.41,-665 275.41,-665 269.41,-659 269.41,-653 269.41,-653 269.41,-625 269.41,-625 269.41,-619 275.41,-613 281.41,-613 281.41,-613 383.41,-613 383.41,-613 389.41,-613 395.41,-619 395.41,-625 395.41,-625 395.41,-653 395.41,-653 395.41,-659 389.41,-665 383.41,-665"/>
<text text-anchor="middle" x="332.41" y="-653" font-family="sans" font-size="10.00">fix_af</text>
<text text-anchor="middle" x="332.41" y="-642" font-family="sans" font-size="10.00">caller: vardict</text>
<text text-anchor="middle" x="332.41" y="-631" font-family="sans" font-size="10.00">sample: HD832.HES45</text>
<text text-anchor="middle" x="332.41" y="-620" font-family="sans" font-size="10.00">type: T</text>
</g>
<!-- 6&#45;&gt;5 -->
<g id="edge13" class="edge">
<title>6&#45;&gt;5</title>
<path fill="none" stroke="grey" stroke-width="2" d="M327.11,-612.66C324.9,-602.11 322.33,-589.84 320.09,-579.1"/>
<polygon fill="grey" stroke="grey" stroke-width="2" points="323.45,-578.07 317.97,-569 316.6,-579.51 323.45,-578.07"/>
</g>
<!-- 7 -->
<g id="node8" class="node">
<title>7</title>
<path fill="none" stroke="#d85656" stroke-width="2" d="M429.41,-745C429.41,-745 245.41,-745 245.41,-745 239.41,-745 233.41,-739 233.41,-733 233.41,-733 233.41,-721 233.41,-721 233.41,-715 239.41,-709 245.41,-709 245.41,-709 429.41,-709 429.41,-709 435.41,-709 441.41,-715 441.41,-721 441.41,-721 441.41,-733 441.41,-733 441.41,-739 435.41,-745 429.41,-745"/>
<text text-anchor="middle" x="337.41" y="-730" font-family="sans" font-size="10.00">bcftools_concat</text>
<text text-anchor="middle" x="337.41" y="-719" font-family="sans" font-size="10.00">file: snv_indels/vardict/HD832.HES45_T</text>
</g>
<!-- 7&#45;&gt;6 -->
<g id="edge14" class="edge">
<title>7&#45;&gt;6</title>
<path fill="none" stroke="grey" stroke-width="2" d="M336.4,-708.6C335.85,-699.05 335.14,-686.86 334.47,-675.41"/>
<polygon fill="grey" stroke="grey" stroke-width="2" points="337.95,-674.98 333.88,-665.2 330.97,-675.39 337.95,-674.98"/>
</g>
<!-- 8 -->
<g id="node9" class="node">
<title>8</title>
<path fill="none" stroke="#56c9d8" stroke-width="2" d="M497.41,-897C497.41,-897 287.41,-897 287.41,-897 281.41,-897 275.41,-891 275.41,-885 275.41,-885 275.41,-873 275.41,-873 275.41,-867 281.41,-861 287.41,-861 287.41,-861 497.41,-861 497.41,-861 503.41,-861 509.41,-867 509.41,-873 509.41,-873 509.41,-885 509.41,-885 509.41,-891 503.41,-897 497.41,-897"/>
<text text-anchor="middle" x="392.41" y="-882" font-family="sans" font-size="10.00">bgzip</text>
<text text-anchor="middle" x="392.41" y="-871" font-family="sans" font-size="10.00">file: snv_indels/vardict/HD832.HES45_T_chr1</text>
</g>
<!-- 8&#45;&gt;7 -->
<g id="edge15" class="edge">
<title>8&#45;&gt;7</title>
<path fill="none" stroke="grey" stroke-width="2" d="M378.17,-860.89C370.61,-850.98 361.81,-837.94 356.41,-825 347.01,-802.44 342.19,-774.97 339.76,-755.02"/>
<polygon fill="grey" stroke="grey" stroke-width="2" points="343.24,-754.63 338.67,-745.07 336.28,-755.39 343.24,-754.63"/>
</g>
<!-- 11 -->
<g id="node12" class="node">
<title>11</title>
<path fill="none" stroke="#56d87b" stroke-width="2" d="M407.41,-825C407.41,-825 377.41,-825 377.41,-825 371.41,-825 365.41,-819 365.41,-813 365.41,-813 365.41,-801 365.41,-801 365.41,-795 371.41,-789 377.41,-789 377.41,-789 407.41,-789 407.41,-789 413.41,-789 419.41,-795 419.41,-801 419.41,-801 419.41,-813 419.41,-813 419.41,-819 413.41,-825 407.41,-825"/>
<text text-anchor="middle" x="392.41" y="-804.5" font-family="sans" font-size="10.00">tabix</text>
</g>
<!-- 8&#45;&gt;11 -->
<g id="edge19" class="edge">
<title>8&#45;&gt;11</title>
<path fill="none" stroke="grey" stroke-width="2" d="M392.41,-860.7C392.41,-852.98 392.41,-843.71 392.41,-835.11"/>
<polygon fill="grey" stroke="grey" stroke-width="2" points="395.91,-835.1 392.41,-825.1 388.91,-835.1 395.91,-835.1"/>
</g>
<!-- 9 -->
<g id="node10" class="node">
<title>9</title>
<path fill="none" stroke="#d8a456" stroke-width="2" d="M459.41,-974C459.41,-974 357.41,-974 357.41,-974 351.41,-974 345.41,-968 345.41,-962 345.41,-962 345.41,-945 345.41,-945 345.41,-939 351.41,-933 357.41,-933 357.41,-933 459.41,-933 459.41,-933 465.41,-933 471.41,-939 471.41,-945 471.41,-945 471.41,-962 471.41,-962 471.41,-968 465.41,-974 459.41,-974"/>
<text text-anchor="middle" x="408.41" y="-962" font-family="sans" font-size="10.00">vardict</text>
<text text-anchor="middle" x="408.41" y="-951" font-family="sans" font-size="10.00">sample: HD832.HES45</text>
<text text-anchor="middle" x="408.41" y="-940" font-family="sans" font-size="10.00">type: T</text>
</g>
<!-- 9&#45;&gt;8 -->
<g id="edge17" class="edge">
<title>9&#45;&gt;8</title>
<path fill="none" stroke="grey" stroke-width="2" d="M404.04,-932.69C402.31,-924.82 400.28,-915.64 398.41,-907.17"/>
<polygon fill="grey" stroke="grey" stroke-width="2" points="401.81,-906.33 396.24,-897.32 394.97,-907.84 401.81,-906.33"/>
</g>
<!-- 10 -->
<g id="node11" class="node">
<title>10</title>
<path fill="none" stroke="#567bd8" stroke-width="2" d="M646.91,-1046C646.91,-1046 609.91,-1046 609.91,-1046 603.91,-1046 597.91,-1040 597.91,-1034 597.91,-1034 597.91,-1022 597.91,-1022 597.91,-1016 603.91,-1010 609.91,-1010 609.91,-1010 646.91,-1010 646.91,-1010 652.91,-1010 658.91,-1016 658.91,-1022 658.91,-1022 658.91,-1034 658.91,-1034 658.91,-1040 652.91,-1046 646.91,-1046"/>
<text text-anchor="middle" x="628.41" y="-1031" font-family="sans" font-size="10.00">bed_split</text>
<text text-anchor="middle" x="628.41" y="-1020" font-family="sans" font-size="10.00">chr: chr1</text>
</g>
<!-- 10&#45;&gt;9 -->
<g id="edge18" class="edge">
<title>10&#45;&gt;9</title>
<path fill="none" stroke="grey" stroke-width="2" d="M597.82,-1016.92C566.78,-1006.69 517.67,-990.51 477.24,-977.18"/>
<polygon fill="grey" stroke="grey" stroke-width="2" points="478.29,-973.84 467.7,-974.04 476.1,-980.49 478.29,-973.84"/>
</g>
<!-- 19 -->
<g id="node20" class="node">
<title>19</title>
<path fill="none" stroke="#d87d56" stroke-width="2" d="M607.41,-974C607.41,-974 505.41,-974 505.41,-974 499.41,-974 493.41,-968 493.41,-962 493.41,-962 493.41,-945 493.41,-945 493.41,-939 499.41,-933 505.41,-933 505.41,-933 607.41,-933 607.41,-933 613.41,-933 619.41,-939 619.41,-945 619.41,-945 619.41,-962 619.41,-962 619.41,-968 613.41,-974 607.41,-974"/>
<text text-anchor="middle" x="556.41" y="-962" font-family="sans" font-size="10.00">mutect2</text>
<text text-anchor="middle" x="556.41" y="-951" font-family="sans" font-size="10.00">sample: HD832.HES45</text>
<text text-anchor="middle" x="556.41" y="-940" font-family="sans" font-size="10.00">type: T</text>
</g>
<!-- 10&#45;&gt;19 -->
<g id="edge28" class="edge">
<title>10&#45;&gt;19</title>
<path fill="none" stroke="grey" stroke-width="2" d="M611.35,-1009.82C602.95,-1001.36 592.63,-990.97 583.21,-981.48"/>
<polygon fill="grey" stroke="grey" stroke-width="2" points="585.43,-978.75 575.9,-974.12 580.46,-983.68 585.43,-978.75"/>
</g>
<!-- 28 -->
<g id="node29" class="node">
<title>28</title>
<path fill="none" stroke="#59d856" stroke-width="2" d="M755.41,-974C755.41,-974 653.41,-974 653.41,-974 647.41,-974 641.41,-968 641.41,-962 641.41,-962 641.41,-945 641.41,-945 641.41,-939 647.41,-933 653.41,-933 653.41,-933 755.41,-933 755.41,-933 761.41,-933 767.41,-939 767.41,-945 767.41,-945 767.41,-962 767.41,-962 767.41,-968 761.41,-974 755.41,-974"/>
<text text-anchor="middle" x="704.41" y="-962" font-family="sans" font-size="10.00">freebayes</text>
<text text-anchor="middle" x="704.41" y="-951" font-family="sans" font-size="10.00">sample: HD832.HES45</text>
<text text-anchor="middle" x="704.41" y="-940" font-family="sans" font-size="10.00">type: T</text>
</g>
<!-- 10&#45;&gt;28 -->
<g id="edge39" class="edge">
<title>10&#45;&gt;28</title>
<path fill="none" stroke="grey" stroke-width="2" d="M646.43,-1009.82C655.38,-1001.28 666.4,-990.76 676.43,-981.2"/>
<polygon fill="grey" stroke="grey" stroke-width="2" points="679.03,-983.55 683.85,-974.12 674.2,-978.49 679.03,-983.55"/>
</g>
<!-- 36 -->
<g id="node37" class="node">
<title>36</title>
<path fill="none" stroke="#56a2d8" stroke-width="2" d="M1025.41,-974C1025.41,-974 923.41,-974 923.41,-974 917.41,-974 911.41,-968 911.41,-962 911.41,-962 911.41,-945 911.41,-945 911.41,-939 917.41,-933 923.41,-933 923.41,-933 1025.41,-933 1025.41,-933 1031.41,-933 1037.41,-939 1037.41,-945 1037.41,-945 1037.41,-962 1037.41,-962 1037.41,-968 1031.41,-974 1025.41,-974"/>
<text text-anchor="middle" x="974.41" y="-962" font-family="sans" font-size="10.00">mutect2_gvcf</text>
<text text-anchor="middle" x="974.41" y="-951" font-family="sans" font-size="10.00">sample: HD832.HES45</text>
<text text-anchor="middle" x="974.41" y="-940" font-family="sans" font-size="10.00">type: T</text>
</g>
<!-- 10&#45;&gt;36 -->
<g id="edge47" class="edge">
<title>10&#45;&gt;36</title>
<path fill="none" stroke="grey" stroke-width="2" d="M659.12,-1020.57C713.09,-1009.26 826.36,-985.52 901.4,-969.8"/>
<polygon fill="grey" stroke="grey" stroke-width="2" points="902.2,-973.21 911.27,-967.73 900.77,-966.36 902.2,-973.21"/>
</g>
<!-- 11&#45;&gt;7 -->
<g id="edge16" class="edge">
<title>11&#45;&gt;7</title>
<path fill="none" stroke="grey" stroke-width="2" d="M380.21,-788.69C372.95,-778.39 363.6,-765.13 355.49,-753.63"/>
<polygon fill="grey" stroke="grey" stroke-width="2" points="358.21,-751.42 349.59,-745.26 352.49,-755.45 358.21,-751.42"/>
</g>
<!-- 12&#45;&gt;2 -->
<g id="edge10" class="edge">
<title>12&#45;&gt;2</title>
<path fill="none" stroke="grey" stroke-width="2" d="M221.33,-292.88C205.09,-283.64 184.87,-272.13 167.44,-262.21"/>
<polygon fill="grey" stroke="grey" stroke-width="2" points="169.04,-259.09 158.62,-257.19 165.58,-265.18 169.04,-259.09"/>
</g>
<!-- 13 -->
<g id="node14" class="node">
<title>13</title>
<path fill="none" stroke="#78d856" stroke-width="2" d="M495.91,-257C495.91,-257 440.91,-257 440.91,-257 434.91,-257 428.91,-251 428.91,-245 428.91,-245 428.91,-233 428.91,-233 428.91,-227 434.91,-221 440.91,-221 440.91,-221 495.91,-221 495.91,-221 501.91,-221 507.91,-227 507.91,-233 507.91,-233 507.91,-245 507.91,-245 507.91,-251 501.91,-257 495.91,-257"/>
<text text-anchor="middle" x="468.41" y="-236.5" font-family="sans" font-size="10.00">bcftools_sort</text>
</g>
<!-- 13&#45;&gt;1 -->
<g id="edge4" class="edge">
<title>13&#45;&gt;1</title>
<path fill="none" stroke="grey" stroke-width="2" d="M428.85,-229.07C405.43,-221.53 377.65,-208.13 363.41,-185 355.03,-171.37 354.11,-162.02 363.41,-149 378.52,-127.86 402.19,-114.68 426.82,-106.5"/>
<polygon fill="grey" stroke="grey" stroke-width="2" points="428.12,-109.76 436.66,-103.5 426.08,-103.07 428.12,-109.76"/>
</g>
<!-- 32 -->
<g id="node33" class="node">
<title>32</title>
<path fill="none" stroke="#56d87b" stroke-width="2" d="M665.91,-185C665.91,-185 384.91,-185 384.91,-185 378.91,-185 372.91,-179 372.91,-173 372.91,-173 372.91,-161 372.91,-161 372.91,-155 378.91,-149 384.91,-149 384.91,-149 665.91,-149 665.91,-149 671.91,-149 677.91,-155 677.91,-161 677.91,-161 677.91,-173 677.91,-173 677.91,-179 671.91,-185 665.91,-185"/>
<text text-anchor="middle" x="525.41" y="-170" font-family="sans" font-size="10.00">tabix</text>
<text text-anchor="middle" x="525.41" y="-159" font-family="sans" font-size="10.00">file: snv_indels/mutect2/HD832.HES45_T.normalized.sorted</text>
</g>
<!-- 13&#45;&gt;32 -->
<g id="edge43" class="edge">
<title>13&#45;&gt;32</title>
<path fill="none" stroke="grey" stroke-width="2" d="M482.5,-220.7C489.34,-212.3 497.67,-202.07 505.17,-192.86"/>
<polygon fill="grey" stroke="grey" stroke-width="2" points="507.89,-195.07 511.49,-185.1 502.46,-190.65 507.89,-195.07"/>
</g>
<!-- 14 -->
<g id="node15" class="node">
<title>14</title>
<path fill="none" stroke="#9fd856" stroke-width="2" d="M582.41,-401C582.41,-401 526.41,-401 526.41,-401 520.41,-401 514.41,-395 514.41,-389 514.41,-389 514.41,-377 514.41,-377 514.41,-371 520.41,-365 526.41,-365 526.41,-365 582.41,-365 582.41,-365 588.41,-365 594.41,-371 594.41,-377 594.41,-377 594.41,-389 594.41,-389 594.41,-395 588.41,-401 582.41,-401"/>
<text text-anchor="middle" x="554.41" y="-380.5" font-family="sans" font-size="10.00">vt_normalize</text>
</g>
<!-- 14&#45;&gt;13 -->
<g id="edge21" class="edge">
<title>14&#45;&gt;13</title>
<path fill="none" stroke="grey" stroke-width="2" d="M514.36,-376.37C485.93,-370.06 449.69,-356.78 431.41,-329 418.33,-309.12 431.21,-283.86 445.23,-265.33"/>
<polygon fill="grey" stroke="grey" stroke-width="2" points="448.12,-267.32 451.67,-257.34 442.67,-262.93 448.12,-267.32"/>
</g>
<!-- 20 -->
<g id="node21" class="node">
<title>20</title>
<path fill="none" stroke="#56d87b" stroke-width="2" d="M700.41,-329C700.41,-329 452.41,-329 452.41,-329 446.41,-329 440.41,-323 440.41,-317 440.41,-317 440.41,-305 440.41,-305 440.41,-299 446.41,-293 452.41,-293 452.41,-293 700.41,-293 700.41,-293 706.41,-293 712.41,-299 712.41,-305 712.41,-305 712.41,-317 712.41,-317 712.41,-323 706.41,-329 700.41,-329"/>
<text text-anchor="middle" x="576.41" y="-314" font-family="sans" font-size="10.00">tabix</text>
<text text-anchor="middle" x="576.41" y="-303" font-family="sans" font-size="10.00">file: snv_indels/mutect2/HD832.HES45_T.normalized</text>
</g>
<!-- 14&#45;&gt;20 -->
<g id="edge29" class="edge">
<title>14&#45;&gt;20</title>
<path fill="none" stroke="grey" stroke-width="2" d="M559.85,-364.7C562.3,-356.9 565.25,-347.51 567.98,-338.83"/>
<polygon fill="grey" stroke="grey" stroke-width="2" points="571.38,-339.69 571.04,-329.1 564.7,-337.59 571.38,-339.69"/>
</g>
<!-- 15 -->
<g id="node16" class="node">
<title>15</title>
<path fill="none" stroke="#c6d856" stroke-width="2" d="M605.41,-577C605.41,-577 503.41,-577 503.41,-577 497.41,-577 491.41,-571 491.41,-565 491.41,-565 491.41,-537 491.41,-537 491.41,-531 497.41,-525 503.41,-525 503.41,-525 605.41,-525 605.41,-525 611.41,-525 617.41,-531 617.41,-537 617.41,-537 617.41,-565 617.41,-565 617.41,-571 611.41,-577 605.41,-577"/>
<text text-anchor="middle" x="554.41" y="-565" font-family="sans" font-size="10.00">vt_decompose</text>
<text text-anchor="middle" x="554.41" y="-554" font-family="sans" font-size="10.00">caller: mutect2</text>
<text text-anchor="middle" x="554.41" y="-543" font-family="sans" font-size="10.00">sample: HD832.HES45</text>
<text text-anchor="middle" x="554.41" y="-532" font-family="sans" font-size="10.00">type: T</text>
</g>
<!-- 15&#45;&gt;14 -->
<g id="edge23" class="edge">
<title>15&#45;&gt;14</title>
<path fill="none" stroke="grey" stroke-width="2" d="M554.41,-524.79C554.41,-494.28 554.41,-443.1 554.41,-411.57"/>
<polygon fill="grey" stroke="grey" stroke-width="2" points="557.91,-411.3 554.41,-401.3 550.91,-411.3 557.91,-411.3"/>
</g>
<!-- 16 -->
<g id="node17" class="node">
<title>16</title>
<path fill="none" stroke="#56c9d8" stroke-width="2" d="M664.41,-657C664.41,-657 444.41,-657 444.41,-657 438.41,-657 432.41,-651 432.41,-645 432.41,-645 432.41,-633 432.41,-633 432.41,-627 438.41,-621 444.41,-621 444.41,-621 664.41,-621 664.41,-621 670.41,-621 676.41,-627 676.41,-633 676.41,-633 676.41,-645 676.41,-645 676.41,-651 670.41,-657 664.41,-657"/>
<text text-anchor="middle" x="554.41" y="-642" font-family="sans" font-size="10.00">bgzip</text>
<text text-anchor="middle" x="554.41" y="-631" font-family="sans" font-size="10.00">file: snv_indels/mutect2/HD832.HES45_T.fix_af</text>
</g>
<!-- 16&#45;&gt;15 -->
<g id="edge24" class="edge">
<title>16&#45;&gt;15</title>
<path fill="none" stroke="grey" stroke-width="2" d="M554.41,-620.6C554.41,-611.05 554.41,-598.86 554.41,-587.41"/>
<polygon fill="grey" stroke="grey" stroke-width="2" points="557.91,-587.2 554.41,-577.2 550.91,-587.2 557.91,-587.2"/>
</g>
<!-- 17 -->
<g id="node18" class="node">
<title>17</title>
<path fill="none" stroke="#d8c356" stroke-width="2" d="M605.41,-753C605.41,-753 503.41,-753 503.41,-753 497.41,-753 491.41,-747 491.41,-741 491.41,-741 491.41,-713 491.41,-713 491.41,-707 497.41,-701 503.41,-701 503.41,-701 605.41,-701 605.41,-701 611.41,-701 617.41,-707 617.41,-713 617.41,-713 617.41,-741 617.41,-741 617.41,-747 611.41,-753 605.41,-753"/>
<text text-anchor="middle" x="554.41" y="-741" font-family="sans" font-size="10.00">fix_af</text>
<text text-anchor="middle" x="554.41" y="-730" font-family="sans" font-size="10.00">caller: mutect2</text>
<text text-anchor="middle" x="554.41" y="-719" font-family="sans" font-size="10.00">sample: HD832.HES45</text>
<text text-anchor="middle" x="554.41" y="-708" font-family="sans" font-size="10.00">type: T</text>
</g>
<!-- 17&#45;&gt;16 -->
<g id="edge25" class="edge">
<title>17&#45;&gt;16</title>
<path fill="none" stroke="grey" stroke-width="2" d="M554.41,-700.66C554.41,-690.11 554.41,-677.84 554.41,-667.1"/>
<polygon fill="grey" stroke="grey" stroke-width="2" points="557.91,-667 554.41,-657 550.91,-667 557.91,-667"/>
</g>
<!-- 18 -->
<g id="node19" class="node">
<title>18</title>
<path fill="none" stroke="#d85656" stroke-width="2" d="M649.91,-825C649.91,-825 458.91,-825 458.91,-825 452.91,-825 446.91,-819 446.91,-813 446.91,-813 446.91,-801 446.91,-801 446.91,-795 452.91,-789 458.91,-789 458.91,-789 649.91,-789 649.91,-789 655.91,-789 661.91,-795 661.91,-801 661.91,-801 661.91,-813 661.91,-813 661.91,-819 655.91,-825 649.91,-825"/>
<text text-anchor="middle" x="554.41" y="-810" font-family="sans" font-size="10.00">bcftools_concat</text>
<text text-anchor="middle" x="554.41" y="-799" font-family="sans" font-size="10.00">file: snv_indels/mutect2/HD832.HES45_T</text>
</g>
<!-- 18&#45;&gt;17 -->
<g id="edge26" class="edge">
<title>18&#45;&gt;17</title>
<path fill="none" stroke="grey" stroke-width="2" d="M554.41,-788.69C554.41,-781.21 554.41,-772.16 554.41,-763.36"/>
<polygon fill="grey" stroke="grey" stroke-width="2" points="557.91,-763.26 554.41,-753.26 550.91,-763.26 557.91,-763.26"/>
</g>
<!-- 19&#45;&gt;18 -->
<g id="edge27" class="edge">
<title>19&#45;&gt;18</title>
<path fill="none" stroke="grey" stroke-width="2" d="M556.14,-932.71C555.79,-907.49 555.19,-863.76 554.79,-835.36"/>
<polygon fill="grey" stroke="grey" stroke-width="2" points="558.29,-835.25 554.65,-825.3 551.29,-835.34 558.29,-835.25"/>
</g>
<!-- 20&#45;&gt;13 -->
<g id="edge22" class="edge">
<title>20&#45;&gt;13</title>
<path fill="none" stroke="grey" stroke-width="2" d="M549.99,-292.88C536,-283.81 518.64,-272.55 503.53,-262.76"/>
<polygon fill="grey" stroke="grey" stroke-width="2" points="505.23,-259.69 494.94,-257.19 501.42,-265.57 505.23,-259.69"/>
</g>
<!-- 21 -->
<g id="node22" class="node">
<title>21</title>
<path fill="none" stroke="#78d856" stroke-width="2" d="M842.91,-257C842.91,-257 787.91,-257 787.91,-257 781.91,-257 775.91,-251 775.91,-245 775.91,-245 775.91,-233 775.91,-233 775.91,-227 781.91,-221 787.91,-221 787.91,-221 842.91,-221 842.91,-221 848.91,-221 854.91,-227 854.91,-233 854.91,-233 854.91,-245 854.91,-245 854.91,-251 848.91,-257 842.91,-257"/>
<text text-anchor="middle" x="815.41" y="-236.5" font-family="sans" font-size="10.00">bcftools_sort</text>
</g>
<!-- 21&#45;&gt;1 -->
<g id="edge5" class="edge">
<title>21&#45;&gt;1</title>
<path fill="none" stroke="grey" stroke-width="2" d="M782.7,-220.95C765.15,-211.26 743.47,-198.41 725.41,-185 706.48,-170.94 706.66,-161.1 686.41,-149 663.79,-135.48 637.39,-124.64 612.59,-116.26"/>
<polygon fill="grey" stroke="grey" stroke-width="2" points="613.41,-112.84 602.82,-113.05 611.23,-119.5 613.41,-112.84"/>
</g>
<!-- 33 -->
<g id="node34" class="node">
<title>33</title>
<path fill="none" stroke="#56d87b" stroke-width="2" d="M1036.41,-185C1036.41,-185 746.41,-185 746.41,-185 740.41,-185 734.41,-179 734.41,-173 734.41,-173 734.41,-161 734.41,-161 734.41,-155 740.41,-149 746.41,-149 746.41,-149 1036.41,-149 1036.41,-149 1042.41,-149 1048.41,-155 1048.41,-161 1048.41,-161 1048.41,-173 1048.41,-173 1048.41,-179 1042.41,-185 1036.41,-185"/>
<text text-anchor="middle" x="891.41" y="-170" font-family="sans" font-size="10.00">tabix</text>
<text text-anchor="middle" x="891.41" y="-159" font-family="sans" font-size="10.00">file: snv_indels/freebayes/HD832.HES45_T.normalized.sorted</text>
</g>
<!-- 21&#45;&gt;33 -->
<g id="edge44" class="edge">
<title>21&#45;&gt;33</title>
<path fill="none" stroke="grey" stroke-width="2" d="M834.2,-220.7C843.59,-212.05 855.1,-201.45 865.33,-192.03"/>
<polygon fill="grey" stroke="grey" stroke-width="2" points="867.86,-194.45 872.84,-185.1 863.12,-189.3 867.86,-194.45"/>
</g>
<!-- 22 -->
<g id="node23" class="node">
<title>22</title>
<path fill="none" stroke="#9fd856" stroke-width="2" d="M790.41,-401C790.41,-401 734.41,-401 734.41,-401 728.41,-401 722.41,-395 722.41,-389 722.41,-389 722.41,-377 722.41,-377 722.41,-371 728.41,-365 734.41,-365 734.41,-365 790.41,-365 790.41,-365 796.41,-365 802.41,-371 802.41,-377 802.41,-377 802.41,-389 802.41,-389 802.41,-395 796.41,-401 790.41,-401"/>
<text text-anchor="middle" x="762.41" y="-380.5" font-family="sans" font-size="10.00">vt_normalize</text>
</g>
<!-- 22&#45;&gt;21 -->
<g id="edge30" class="edge">
<title>22&#45;&gt;21</title>
<path fill="none" stroke="grey" stroke-width="2" d="M757.65,-364.8C753.44,-346.26 749.39,-316.29 759.41,-293 764.2,-281.87 772.6,-271.99 781.46,-263.86"/>
<polygon fill="grey" stroke="grey" stroke-width="2" points="783.96,-266.34 789.29,-257.18 779.41,-261.01 783.96,-266.34"/>
</g>
<!-- 30 -->
<g id="node31" class="node">
<title>30</title>
<path fill="none" stroke="#56d87b" stroke-width="2" d="M1036.41,-329C1036.41,-329 780.41,-329 780.41,-329 774.41,-329 768.41,-323 768.41,-317 768.41,-317 768.41,-305 768.41,-305 768.41,-299 774.41,-293 780.41,-293 780.41,-293 1036.41,-293 1036.41,-293 1042.41,-293 1048.41,-299 1048.41,-305 1048.41,-305 1048.41,-317 1048.41,-317 1048.41,-323 1042.41,-329 1036.41,-329"/>
<text text-anchor="middle" x="908.41" y="-314" font-family="sans" font-size="10.00">tabix</text>
<text text-anchor="middle" x="908.41" y="-303" font-family="sans" font-size="10.00">file: snv_indels/freebayes/HD832.HES45_T.normalized</text>
</g>
<!-- 22&#45;&gt;30 -->
<g id="edge41" class="edge">
<title>22&#45;&gt;30</title>
<path fill="none" stroke="grey" stroke-width="2" d="M798.13,-364.88C817.91,-355.39 842.69,-343.51 863.74,-333.42"/>
<polygon fill="grey" stroke="grey" stroke-width="2" points="865.31,-336.55 872.81,-329.07 862.28,-330.24 865.31,-336.55"/>
</g>
<!-- 23 -->
<g id="node24" class="node">
<title>23</title>
<path fill="none" stroke="#c6d856" stroke-width="2" d="M813.41,-489C813.41,-489 711.41,-489 711.41,-489 705.41,-489 699.41,-483 699.41,-477 699.41,-477 699.41,-449 699.41,-449 699.41,-443 705.41,-437 711.41,-437 711.41,-437 813.41,-437 813.41,-437 819.41,-437 825.41,-443 825.41,-449 825.41,-449 825.41,-477 825.41,-477 825.41,-483 819.41,-489 813.41,-489"/>
<text text-anchor="middle" x="762.41" y="-477" font-family="sans" font-size="10.00">vt_decompose</text>
<text text-anchor="middle" x="762.41" y="-466" font-family="sans" font-size="10.00">caller: freebayes</text>
<text text-anchor="middle" x="762.41" y="-455" font-family="sans" font-size="10.00">sample: HD832.HES45</text>
<text text-anchor="middle" x="762.41" y="-444" font-family="sans" font-size="10.00">type: T</text>
</g>
<!-- 23&#45;&gt;22 -->
<g id="edge32" class="edge">
<title>23&#45;&gt;22</title>
<path fill="none" stroke="grey" stroke-width="2" d="M762.41,-436.89C762.41,-428.84 762.41,-419.88 762.41,-411.66"/>
<polygon fill="grey" stroke="grey" stroke-width="2" points="765.91,-411.41 762.41,-401.41 758.91,-411.41 765.91,-411.41"/>
</g>
<!-- 24 -->
<g id="node25" class="node">
<title>24</title>
<path fill="none" stroke="#56c9d8" stroke-width="2" d="M876.41,-569C876.41,-569 648.41,-569 648.41,-569 642.41,-569 636.41,-563 636.41,-557 636.41,-557 636.41,-545 636.41,-545 636.41,-539 642.41,-533 648.41,-533 648.41,-533 876.41,-533 876.41,-533 882.41,-533 888.41,-539 888.41,-545 888.41,-545 888.41,-557 888.41,-557 888.41,-563 882.41,-569 876.41,-569"/>
<text text-anchor="middle" x="762.41" y="-554" font-family="sans" font-size="10.00">bgzip</text>
<text text-anchor="middle" x="762.41" y="-543" font-family="sans" font-size="10.00">file: snv_indels/freebayes/HD832.HES45_T.fix_af</text>
</g>
<!-- 24&#45;&gt;23 -->
<g id="edge33" class="edge">
<title>24&#45;&gt;23</title>
<path fill="none" stroke="grey" stroke-width="2" d="M762.41,-532.6C762.41,-523.05 762.41,-510.86 762.41,-499.41"/>
<polygon fill="grey" stroke="grey" stroke-width="2" points="765.91,-499.2 762.41,-489.2 758.91,-499.2 765.91,-499.2"/>
</g>
<!-- 25 -->
<g id="node26" class="node">
<title>25</title>
<path fill="none" stroke="#d8c356" stroke-width="2" d="M813.41,-665C813.41,-665 711.41,-665 711.41,-665 705.41,-665 699.41,-659 699.41,-653 699.41,-653 699.41,-625 699.41,-625 699.41,-619 705.41,-613 711.41,-613 711.41,-613 813.41,-613 813.41,-613 819.41,-613 825.41,-619 825.41,-625 825.41,-625 825.41,-653 825.41,-653 825.41,-659 819.41,-665 813.41,-665"/>
<text text-anchor="middle" x="762.41" y="-653" font-family="sans" font-size="10.00">fix_af</text>
<text text-anchor="middle" x="762.41" y="-642" font-family="sans" font-size="10.00">caller: freebayes</text>
<text text-anchor="middle" x="762.41" y="-631" font-family="sans" font-size="10.00">sample: HD832.HES45</text>
<text text-anchor="middle" x="762.41" y="-620" font-family="sans" font-size="10.00">type: T</text>
</g>
<!-- 25&#45;&gt;24 -->
<g id="edge34" class="edge">
<title>25&#45;&gt;24</title>
<path fill="none" stroke="grey" stroke-width="2" d="M762.41,-612.66C762.41,-602.11 762.41,-589.84 762.41,-579.1"/>
<polygon fill="grey" stroke="grey" stroke-width="2" points="765.91,-579 762.41,-569 758.91,-579 765.91,-579"/>
</g>
<!-- 26 -->
<g id="node27" class="node">
<title>26</title>
<path fill="none" stroke="#d85656" stroke-width="2" d="M861.91,-745C861.91,-745 662.91,-745 662.91,-745 656.91,-745 650.91,-739 650.91,-733 650.91,-733 650.91,-721 650.91,-721 650.91,-715 656.91,-709 662.91,-709 662.91,-709 861.91,-709 861.91,-709 867.91,-709 873.91,-715 873.91,-721 873.91,-721 873.91,-733 873.91,-733 873.91,-739 867.91,-745 861.91,-745"/>
<text text-anchor="middle" x="762.41" y="-730" font-family="sans" font-size="10.00">bcftools_concat</text>
<text text-anchor="middle" x="762.41" y="-719" font-family="sans" font-size="10.00">file: snv_indels/freebayes/HD832.HES45_T</text>
</g>
<!-- 26&#45;&gt;25 -->
<g id="edge35" class="edge">
<title>26&#45;&gt;25</title>
<path fill="none" stroke="grey" stroke-width="2" d="M762.41,-708.6C762.41,-699.05 762.41,-686.86 762.41,-675.41"/>
<polygon fill="grey" stroke="grey" stroke-width="2" points="765.91,-675.2 762.41,-665.2 758.91,-675.2 765.91,-675.2"/>
</g>
<!-- 27 -->
<g id="node28" class="node">
<title>27</title>
<path fill="none" stroke="#56c9d8" stroke-width="2" d="M819.91,-897C819.91,-897 594.91,-897 594.91,-897 588.91,-897 582.91,-891 582.91,-885 582.91,-885 582.91,-873 582.91,-873 582.91,-867 588.91,-861 594.91,-861 594.91,-861 819.91,-861 819.91,-861 825.91,-861 831.91,-867 831.91,-873 831.91,-873 831.91,-885 831.91,-885 831.91,-891 825.91,-897 819.91,-897"/>
<text text-anchor="middle" x="707.41" y="-882" font-family="sans" font-size="10.00">bgzip</text>
<text text-anchor="middle" x="707.41" y="-871" font-family="sans" font-size="10.00">file: snv_indels/freebayes/HD832.HES45_T_chr1</text>
</g>
<!-- 27&#45;&gt;26 -->
<g id="edge36" class="edge">
<title>27&#45;&gt;26</title>
<path fill="none" stroke="grey" stroke-width="2" d="M709.41,-860.8C711.92,-842.51 717.06,-812.99 726.41,-789 731.15,-776.86 738.13,-764.32 744.69,-753.79"/>
<polygon fill="grey" stroke="grey" stroke-width="2" points="747.8,-755.42 750.28,-745.11 741.92,-751.63 747.8,-755.42"/>
</g>
<!-- 29 -->
<g id="node30" class="node">
<title>29</title>
<path fill="none" stroke="#56d87b" stroke-width="2" d="M777.41,-825C777.41,-825 747.41,-825 747.41,-825 741.41,-825 735.41,-819 735.41,-813 735.41,-813 735.41,-801 735.41,-801 735.41,-795 741.41,-789 747.41,-789 747.41,-789 777.41,-789 777.41,-789 783.41,-789 789.41,-795 789.41,-801 789.41,-801 789.41,-813 789.41,-813 789.41,-819 783.41,-825 777.41,-825"/>
<text text-anchor="middle" x="762.41" y="-804.5" font-family="sans" font-size="10.00">tabix</text>
</g>
<!-- 27&#45;&gt;29 -->
<g id="edge40" class="edge">
<title>27&#45;&gt;29</title>
<path fill="none" stroke="grey" stroke-width="2" d="M721.01,-860.7C727.54,-852.39 735.48,-842.28 742.66,-833.14"/>
<polygon fill="grey" stroke="grey" stroke-width="2" points="745.55,-835.13 748.98,-825.1 740.05,-830.81 745.55,-835.13"/>
</g>
<!-- 28&#45;&gt;27 -->
<g id="edge38" class="edge">
<title>28&#45;&gt;27</title>
<path fill="none" stroke="grey" stroke-width="2" d="M705.23,-932.69C705.56,-924.91 705.93,-915.84 706.28,-907.45"/>
<polygon fill="grey" stroke="grey" stroke-width="2" points="709.78,-907.46 706.7,-897.32 702.79,-907.17 709.78,-907.46"/>
</g>
<!-- 29&#45;&gt;26 -->
<g id="edge37" class="edge">
<title>29&#45;&gt;26</title>
<path fill="none" stroke="grey" stroke-width="2" d="M762.41,-788.69C762.41,-778.89 762.41,-766.42 762.41,-755.33"/>
<polygon fill="grey" stroke="grey" stroke-width="2" points="765.91,-755.26 762.41,-745.26 758.91,-755.26 765.91,-755.26"/>
</g>
<!-- 30&#45;&gt;21 -->
<g id="edge31" class="edge">
<title>30&#45;&gt;21</title>
<path fill="none" stroke="grey" stroke-width="2" d="M885.43,-292.7C873.6,-283.8 859.02,-272.82 846.24,-263.2"/>
<polygon fill="grey" stroke="grey" stroke-width="2" points="848.23,-260.32 838.14,-257.1 844.02,-265.91 848.23,-260.32"/>
</g>
<!-- 31&#45;&gt;1 -->
<g id="edge6" class="edge">
<title>31&#45;&gt;1</title>
<path fill="none" stroke="grey" stroke-width="2" d="M251.04,-148.91C303.63,-138.29 371.47,-124.59 426.54,-113.47"/>
<polygon fill="grey" stroke="grey" stroke-width="2" points="427.56,-116.83 436.67,-111.42 426.17,-109.97 427.56,-116.83"/>
</g>
<!-- 32&#45;&gt;1 -->
<g id="edge7" class="edge">
<title>32&#45;&gt;1</title>
<path fill="none" stroke="grey" stroke-width="2" d="M525.41,-148.82C525.41,-141.2 525.41,-132 525.41,-123.32"/>
<polygon fill="grey" stroke="grey" stroke-width="2" points="528.91,-123.12 525.41,-113.12 521.91,-123.12 528.91,-123.12"/>
</g>
<!-- 33&#45;&gt;1 -->
<g id="edge8" class="edge">
<title>33&#45;&gt;1</title>
<path fill="none" stroke="grey" stroke-width="2" d="M805.14,-148.91C750.81,-138.15 680.52,-124.23 624,-113.03"/>
<polygon fill="grey" stroke="grey" stroke-width="2" points="624.46,-109.55 613.97,-111.04 623.1,-116.42 624.46,-109.55"/>
</g>
<!-- 34 -->
<g id="node35" class="node">
<title>34</title>
<path fill="none" stroke="#56c9d8" stroke-width="2" d="M1052.91,-110.5C1052.91,-110.5 795.91,-110.5 795.91,-110.5 789.91,-110.5 783.91,-104.5 783.91,-98.5 783.91,-98.5 783.91,-86.5 783.91,-86.5 783.91,-80.5 789.91,-74.5 795.91,-74.5 795.91,-74.5 1052.91,-74.5 1052.91,-74.5 1058.91,-74.5 1064.91,-80.5 1064.91,-86.5 1064.91,-86.5 1064.91,-98.5 1064.91,-98.5 1064.91,-104.5 1058.91,-110.5 1052.91,-110.5"/>
<text text-anchor="middle" x="924.41" y="-95.5" font-family="sans" font-size="10.00">bgzip</text>
<text text-anchor="middle" x="924.41" y="-84.5" font-family="sans" font-size="10.00">file: snv_indels/mutect2_gvcf/HD832.HES45_T.merged</text>
</g>
<!-- 34&#45;&gt;0 -->
<g id="edge2" class="edge">
<title>34&#45;&gt;0</title>
<path fill="none" stroke="grey" stroke-width="2" d="M859.36,-74.41C805.09,-60.16 729.72,-40.36 685.3,-28.69"/>
<polygon fill="grey" stroke="grey" stroke-width="2" points="686.07,-25.27 675.51,-26.12 684.3,-32.04 686.07,-25.27"/>
</g>
<!-- 35 -->
<g id="node36" class="node">
<title>35</title>
<path fill="none" stroke="#d85656" stroke-width="2" d="M1133.91,-897C1133.91,-897 916.91,-897 916.91,-897 910.91,-897 904.91,-891 904.91,-885 904.91,-885 904.91,-873 904.91,-873 904.91,-867 910.91,-861 916.91,-861 916.91,-861 1133.91,-861 1133.91,-861 1139.91,-861 1145.91,-867 1145.91,-873 1145.91,-873 1145.91,-885 1145.91,-885 1145.91,-891 1139.91,-897 1133.91,-897"/>
<text text-anchor="middle" x="1025.41" y="-882" font-family="sans" font-size="10.00">bcftools_concat</text>
<text text-anchor="middle" x="1025.41" y="-871" font-family="sans" font-size="10.00">file: snv_indels/mutect2_gvcf/HD832.HES45_T</text>
</g>
<!-- 35&#45;&gt;34 -->
<g id="edge45" class="edge">
<title>35&#45;&gt;34</title>
<path fill="none" stroke="grey" stroke-width="2" d="M1035.49,-860.64C1050.35,-833.36 1076.41,-778.34 1076.41,-728 1076.41,-728 1076.41,-728 1076.41,-238 1076.41,-197.55 1083.25,-180.12 1057.41,-149 1044.7,-133.68 1027.04,-122.53 1008.74,-114.43"/>
<polygon fill="grey" stroke="grey" stroke-width="2" points="1010.01,-111.16 999.43,-110.57 1007.34,-117.63 1010.01,-111.16"/>
</g>
<!-- 36&#45;&gt;35 -->
<g id="edge46" class="edge">
<title>36&#45;&gt;35</title>
<path fill="none" stroke="grey" stroke-width="2" d="M988.35,-932.69C994.25,-924.3 1001.2,-914.42 1007.48,-905.5"/>
<polygon fill="grey" stroke="grey" stroke-width="2" points="1010.34,-907.51 1013.23,-897.32 1004.61,-903.48 1010.34,-907.51"/>
</g>
</g>
</svg>
