<?xml version="1.0" encoding="UTF-8" standalone="no"?>
<!DOCTYPE svg PUBLIC "-//W3C//DTD SVG 1.1//EN"
 "http://www.w3.org/Graphics/SVG/1.1/DTD/svg11.dtd">
<!-- Generated by graphviz version 2.40.1 (20161225.0304)
 -->
<!-- Title: snakemake_dag Pages: 1 -->
<svg width="1501pt" height="1213pt"
 viewBox="0.00 0.00 1501.29 1213.00" xmlns="http://www.w3.org/2000/svg" xmlns:xlink="http://www.w3.org/1999/xlink">
<g id="graph0" class="graph" transform="scale(1 1) rotate(0) translate(4 1209)">
<title>snakemake_dag</title>
<polygon fill="#ffffff" stroke="transparent" points="-4,4 -4,-1209 1497.2922,-1209 1497.2922,4 -4,4"/>
<!-- 0 -->
<g id="node1" class="node">
<title>0</title>
<path fill="none" stroke="#8fd856" stroke-width="2" d="M1056.2922,-36C1056.2922,-36 1026.2922,-36 1026.2922,-36 1020.2922,-36 1014.2922,-30 1014.2922,-24 1014.2922,-24 1014.2922,-12 1014.2922,-12 1014.2922,-6 1020.2922,0 1026.2922,0 1026.2922,0 1056.2922,0 1056.2922,0 1062.2922,0 1068.2922,-6 1068.2922,-12 1068.2922,-12 1068.2922,-24 1068.2922,-24 1068.2922,-30 1062.2922,-36 1056.2922,-36"/>
<text text-anchor="middle" x="1041.2922" y="-15.5" font-family="sans" font-size="10.00" fill="#000000">all</text>
</g>
<!-- 1 -->
<g id="node2" class="node">
<title>1</title>
<path fill="none" stroke="#d85656" stroke-width="2" d="M612.7922,-113C612.7922,-113 459.7922,-113 459.7922,-113 453.7922,-113 447.7922,-107 447.7922,-101 447.7922,-101 447.7922,-84 447.7922,-84 447.7922,-78 453.7922,-72 459.7922,-72 459.7922,-72 612.7922,-72 612.7922,-72 618.7922,-72 624.7922,-78 624.7922,-84 624.7922,-84 624.7922,-101 624.7922,-101 624.7922,-107 618.7922,-113 612.7922,-113"/>
<text text-anchor="middle" x="536.2922" y="-101" font-family="sans" font-size="10.00" fill="#000000">bcbio_variation_recall_ensemble</text>
<text text-anchor="middle" x="536.2922" y="-90" font-family="sans" font-size="10.00" fill="#000000">sample: HD832.HES45</text>
<text text-anchor="middle" x="536.2922" y="-79" font-family="sans" font-size="10.00" fill="#000000">type: T</text>
</g>
<!-- 1&#45;&gt;0 -->
<g id="edge1" class="edge">
<title>1&#45;&gt;0</title>
<path fill="none" stroke="#c0c0c0" stroke-width="2" d="M624.8344,-79.4378C736.9124,-62.9036 924.9202,-35.1677 1004.2242,-23.4684"/>
<polygon fill="#c0c0c0" stroke="#c0c0c0" stroke-width="2" points="1004.8498,-26.9141 1014.2319,-21.9921 1003.8282,-19.9891 1004.8498,-26.9141"/>
</g>
<!-- 2 -->
<g id="node3" class="node">
<title>2</title>
<path fill="none" stroke="#59d856" stroke-width="2" d="M141.2922,-257C141.2922,-257 85.2922,-257 85.2922,-257 79.2922,-257 73.2922,-251 73.2922,-245 73.2922,-245 73.2922,-233 73.2922,-233 73.2922,-227 79.2922,-221 85.2922,-221 85.2922,-221 141.2922,-221 141.2922,-221 147.2922,-221 153.2922,-227 153.2922,-233 153.2922,-233 153.2922,-245 153.2922,-245 153.2922,-251 147.2922,-257 141.2922,-257"/>
<text text-anchor="middle" x="113.2922" y="-236.5" font-family="sans" font-size="10.00" fill="#000000">bcftools_sort</text>
</g>
<!-- 2&#45;&gt;1 -->
<g id="edge4" class="edge">
<title>2&#45;&gt;1</title>
<path fill="none" stroke="#c0c0c0" stroke-width="2" d="M73.0696,-229.7137C49.4848,-221.978 21.5914,-208.3323 7.2922,-185 -1.0683,-171.3581 -3.4039,-160.8993 7.2922,-149 35.4625,-117.6607 292.2995,-102.2907 437.4675,-96.048"/>
<polygon fill="#c0c0c0" stroke="#c0c0c0" stroke-width="2" points="437.8788,-99.5339 447.7219,-95.6143 437.5829,-92.5401 437.8788,-99.5339"/>
</g>
<!-- 38 -->
<g id="node39" class="node">
<title>38</title>
<path fill="none" stroke="#56d892" stroke-width="2" d="M302.2922,-185C302.2922,-185 28.2922,-185 28.2922,-185 22.2922,-185 16.2922,-179 16.2922,-173 16.2922,-173 16.2922,-161 16.2922,-161 16.2922,-155 22.2922,-149 28.2922,-149 28.2922,-149 302.2922,-149 302.2922,-149 308.2922,-149 314.2922,-155 314.2922,-161 314.2922,-161 314.2922,-173 314.2922,-173 314.2922,-179 308.2922,-185 302.2922,-185"/>
<text text-anchor="middle" x="165.2922" y="-170" font-family="sans" font-size="10.00" fill="#000000">tabix</text>
<text text-anchor="middle" x="165.2922" y="-159" font-family="sans" font-size="10.00" fill="#000000">file: snv_indels/vardict/HD832.HES45_T.normalized.sorted</text>
</g>
<!-- 2&#45;&gt;38 -->
<g id="edge52" class="edge">
<title>2&#45;&gt;38</title>
<path fill="none" stroke="#c0c0c0" stroke-width="2" d="M126.414,-220.8314C132.3421,-212.6232 139.4651,-202.7606 145.9855,-193.7323"/>
<polygon fill="#c0c0c0" stroke="#c0c0c0" stroke-width="2" points="148.9762,-195.5693 151.9937,-185.4133 143.3014,-191.4708 148.9762,-195.5693"/>
</g>
<!-- 3 -->
<g id="node4" class="node">
<title>3</title>
<path fill="none" stroke="#c6d856" stroke-width="2" d="M260.2922,-401C260.2922,-401 204.2922,-401 204.2922,-401 198.2922,-401 192.2922,-395 192.2922,-389 192.2922,-389 192.2922,-377 192.2922,-377 192.2922,-371 198.2922,-365 204.2922,-365 204.2922,-365 260.2922,-365 260.2922,-365 266.2922,-365 272.2922,-371 272.2922,-377 272.2922,-377 272.2922,-389 272.2922,-389 272.2922,-395 266.2922,-401 260.2922,-401"/>
<text text-anchor="middle" x="232.2922" y="-380.5" font-family="sans" font-size="10.00" fill="#000000">vt_normalize</text>
</g>
<!-- 3&#45;&gt;2 -->
<g id="edge10" class="edge">
<title>3&#45;&gt;2</title>
<path fill="none" stroke="#c0c0c0" stroke-width="2" d="M192.0852,-372.5604C155.8666,-362.247 106.6213,-345.6429 95.2922,-329 82.7124,-310.5198 89.3271,-285.2644 97.876,-266.2103"/>
<polygon fill="#c0c0c0" stroke="#c0c0c0" stroke-width="2" points="101.0585,-267.6692 102.2914,-257.1463 94.7654,-264.6035 101.0585,-267.6692"/>
</g>
<!-- 13 -->
<g id="node14" class="node">
<title>13</title>
<path fill="none" stroke="#56d892" stroke-width="2" d="M356.2922,-329C356.2922,-329 116.2922,-329 116.2922,-329 110.2922,-329 104.2922,-323 104.2922,-317 104.2922,-317 104.2922,-305 104.2922,-305 104.2922,-299 110.2922,-293 116.2922,-293 116.2922,-293 356.2922,-293 356.2922,-293 362.2922,-293 368.2922,-299 368.2922,-305 368.2922,-305 368.2922,-317 368.2922,-317 368.2922,-323 362.2922,-329 356.2922,-329"/>
<text text-anchor="middle" x="236.2922" y="-314" font-family="sans" font-size="10.00" fill="#000000">tabix</text>
<text text-anchor="middle" x="236.2922" y="-303" font-family="sans" font-size="10.00" fill="#000000">file: snv_indels/vardict/HD832.HES45_T.normalized</text>
</g>
<!-- 3&#45;&gt;13 -->
<g id="edge22" class="edge">
<title>3&#45;&gt;13</title>
<path fill="none" stroke="#c0c0c0" stroke-width="2" d="M233.3016,-364.8314C233.7294,-357.131 234.2381,-347.9743 234.7135,-339.4166"/>
<polygon fill="#c0c0c0" stroke="#c0c0c0" stroke-width="2" points="238.209,-339.592 235.2692,-329.4133 231.2198,-339.2037 238.209,-339.592"/>
</g>
<!-- 4 -->
<g id="node5" class="node">
<title>4</title>
<path fill="none" stroke="#5692d8" stroke-width="2" d="M283.2922,-489C283.2922,-489 181.2922,-489 181.2922,-489 175.2922,-489 169.2922,-483 169.2922,-477 169.2922,-477 169.2922,-449 169.2922,-449 169.2922,-443 175.2922,-437 181.2922,-437 181.2922,-437 283.2922,-437 283.2922,-437 289.2922,-437 295.2922,-443 295.2922,-449 295.2922,-449 295.2922,-477 295.2922,-477 295.2922,-483 289.2922,-489 283.2922,-489"/>
<text text-anchor="middle" x="232.2922" y="-477" font-family="sans" font-size="10.00" fill="#000000">vt_decompose</text>
<text text-anchor="middle" x="232.2922" y="-466" font-family="sans" font-size="10.00" fill="#000000">caller: vardict</text>
<text text-anchor="middle" x="232.2922" y="-455" font-family="sans" font-size="10.00" fill="#000000">sample: HD832.HES45</text>
<text text-anchor="middle" x="232.2922" y="-444" font-family="sans" font-size="10.00" fill="#000000">type: T</text>
</g>
<!-- 4&#45;&gt;3 -->
<g id="edge12" class="edge">
<title>4&#45;&gt;3</title>
<path fill="none" stroke="#c0c0c0" stroke-width="2" d="M232.2922,-436.805C232.2922,-428.6026 232.2922,-419.5174 232.2922,-411.1839"/>
<polygon fill="#c0c0c0" stroke="#c0c0c0" stroke-width="2" points="235.7923,-411.1532 232.2922,-401.1532 228.7923,-411.1533 235.7923,-411.1532"/>
</g>
<!-- 5 -->
<g id="node6" class="node">
<title>5</title>
<path fill="none" stroke="#56d8a9" stroke-width="2" d="M338.2922,-569C338.2922,-569 126.2922,-569 126.2922,-569 120.2922,-569 114.2922,-563 114.2922,-557 114.2922,-557 114.2922,-545 114.2922,-545 114.2922,-539 120.2922,-533 126.2922,-533 126.2922,-533 338.2922,-533 338.2922,-533 344.2922,-533 350.2922,-539 350.2922,-545 350.2922,-545 350.2922,-557 350.2922,-557 350.2922,-563 344.2922,-569 338.2922,-569"/>
<text text-anchor="middle" x="232.2922" y="-554" font-family="sans" font-size="10.00" fill="#000000">bgzip</text>
<text text-anchor="middle" x="232.2922" y="-543" font-family="sans" font-size="10.00" fill="#000000">file: snv_indels/vardict/HD832.HES45_T.fix_af</text>
</g>
<!-- 5&#45;&gt;4 -->
<g id="edge13" class="edge">
<title>5&#45;&gt;4</title>
<path fill="none" stroke="#c0c0c0" stroke-width="2" d="M232.2922,-532.7663C232.2922,-523.1303 232.2922,-510.9487 232.2922,-499.4714"/>
<polygon fill="#c0c0c0" stroke="#c0c0c0" stroke-width="2" points="235.7923,-499.2223 232.2922,-489.2223 228.7923,-499.2223 235.7923,-499.2223"/>
</g>
<!-- 6 -->
<g id="node7" class="node">
<title>6</title>
<path fill="none" stroke="#d87556" stroke-width="2" d="M283.2922,-665C283.2922,-665 181.2922,-665 181.2922,-665 175.2922,-665 169.2922,-659 169.2922,-653 169.2922,-653 169.2922,-625 169.2922,-625 169.2922,-619 175.2922,-613 181.2922,-613 181.2922,-613 283.2922,-613 283.2922,-613 289.2922,-613 295.2922,-619 295.2922,-625 295.2922,-625 295.2922,-653 295.2922,-653 295.2922,-659 289.2922,-665 283.2922,-665"/>
<text text-anchor="middle" x="232.2922" y="-653" font-family="sans" font-size="10.00" fill="#000000">fix_af</text>
<text text-anchor="middle" x="232.2922" y="-642" font-family="sans" font-size="10.00" fill="#000000">caller: vardict</text>
<text text-anchor="middle" x="232.2922" y="-631" font-family="sans" font-size="10.00" fill="#000000">sample: HD832.HES45</text>
<text text-anchor="middle" x="232.2922" y="-620" font-family="sans" font-size="10.00" fill="#000000">type: T</text>
</g>
<!-- 6&#45;&gt;5 -->
<g id="edge14" class="edge">
<title>6&#45;&gt;5</title>
<path fill="none" stroke="#c0c0c0" stroke-width="2" d="M232.2922,-612.5971C232.2922,-602.0414 232.2922,-589.868 232.2922,-579.1448"/>
<polygon fill="#c0c0c0" stroke="#c0c0c0" stroke-width="2" points="235.7923,-579.0188 232.2922,-569.0188 228.7923,-579.0188 235.7923,-579.0188"/>
</g>
<!-- 7 -->
<g id="node8" class="node">
<title>7</title>
<path fill="none" stroke="#56d8a9" stroke-width="2" d="M343.7922,-745C343.7922,-745 120.7922,-745 120.7922,-745 114.7922,-745 108.7922,-739 108.7922,-733 108.7922,-733 108.7922,-721 108.7922,-721 108.7922,-715 114.7922,-709 120.7922,-709 120.7922,-709 343.7922,-709 343.7922,-709 349.7922,-709 355.7922,-715 355.7922,-721 355.7922,-721 355.7922,-733 355.7922,-733 355.7922,-739 349.7922,-745 343.7922,-745"/>
<text text-anchor="middle" x="232.2922" y="-730" font-family="sans" font-size="10.00" fill="#000000">bgzip</text>
<text text-anchor="middle" x="232.2922" y="-719" font-family="sans" font-size="10.00" fill="#000000">file: snv_indels/vardict/HD832.HES45_T.merged</text>
</g>
<!-- 7&#45;&gt;6 -->
<g id="edge15" class="edge">
<title>7&#45;&gt;6</title>
<path fill="none" stroke="#c0c0c0" stroke-width="2" d="M232.2922,-708.7663C232.2922,-699.1303 232.2922,-686.9487 232.2922,-675.4714"/>
<polygon fill="#c0c0c0" stroke="#c0c0c0" stroke-width="2" points="235.7923,-675.2223 232.2922,-665.2223 228.7923,-675.2223 235.7923,-675.2223"/>
</g>
<!-- 8 -->
<g id="node9" class="node">
<title>8</title>
<path fill="none" stroke="#d8ac56" stroke-width="2" d="M324.2922,-830C324.2922,-830 140.2922,-830 140.2922,-830 134.2922,-830 128.2922,-824 128.2922,-818 128.2922,-818 128.2922,-801 128.2922,-801 128.2922,-795 134.2922,-789 140.2922,-789 140.2922,-789 324.2922,-789 324.2922,-789 330.2922,-789 336.2922,-795 336.2922,-801 336.2922,-801 336.2922,-818 336.2922,-818 336.2922,-824 330.2922,-830 324.2922,-830"/>
<text text-anchor="middle" x="232.2922" y="-818" font-family="sans" font-size="10.00" fill="#000000">bcftools_concat</text>
<text text-anchor="middle" x="232.2922" y="-807" font-family="sans" font-size="10.00" fill="#000000">file: snv_indels/vardict/HD832.HES45_T</text>
<text text-anchor="middle" x="232.2922" y="-796" font-family="sans" font-size="10.00" fill="#000000">vcf: vcf</text>
</g>
<!-- 8&#45;&gt;7 -->
<g id="edge16" class="edge">
<title>8&#45;&gt;7</title>
<path fill="none" stroke="#c0c0c0" stroke-width="2" d="M232.2922,-788.6818C232.2922,-778.4808 232.2922,-766.0496 232.2922,-755.027"/>
<polygon fill="#c0c0c0" stroke="#c0c0c0" stroke-width="2" points="235.7923,-755.0094 232.2922,-745.0094 228.7923,-755.0094 235.7923,-755.0094"/>
</g>
<!-- 9 -->
<g id="node10" class="node">
<title>9</title>
<path fill="none" stroke="#56d8a9" stroke-width="2" d="M355.2922,-979C355.2922,-979 145.2922,-979 145.2922,-979 139.2922,-979 133.2922,-973 133.2922,-967 133.2922,-967 133.2922,-955 133.2922,-955 133.2922,-949 139.2922,-943 145.2922,-943 145.2922,-943 355.2922,-943 355.2922,-943 361.2922,-943 367.2922,-949 367.2922,-955 367.2922,-955 367.2922,-967 367.2922,-967 367.2922,-973 361.2922,-979 355.2922,-979"/>
<text text-anchor="middle" x="250.2922" y="-964" font-family="sans" font-size="10.00" fill="#000000">bgzip</text>
<text text-anchor="middle" x="250.2922" y="-953" font-family="sans" font-size="10.00" fill="#000000">file: snv_indels/vardict/HD832.HES45_T_chr1</text>
</g>
<!-- 9&#45;&gt;8 -->
<g id="edge17" class="edge">
<title>9&#45;&gt;8</title>
<path fill="none" stroke="#c0c0c0" stroke-width="2" d="M247.3469,-942.5337C245.7379,-932.1153 243.7767,-918.8488 242.2922,-907 239.4899,-884.6341 236.9101,-859.3083 235.0729,-840.0745"/>
<polygon fill="#c0c0c0" stroke="#c0c0c0" stroke-width="2" points="238.5534,-839.7015 234.132,-830.0733 231.5842,-840.3572 238.5534,-839.7015"/>
</g>
<!-- 12 -->
<g id="node13" class="node">
<title>12</title>
<path fill="none" stroke="#56d892" stroke-width="2" d="M293.2922,-904.5C293.2922,-904.5 263.2922,-904.5 263.2922,-904.5 257.2922,-904.5 251.2922,-898.5 251.2922,-892.5 251.2922,-892.5 251.2922,-880.5 251.2922,-880.5 251.2922,-874.5 257.2922,-868.5 263.2922,-868.5 263.2922,-868.5 293.2922,-868.5 293.2922,-868.5 299.2922,-868.5 305.2922,-874.5 305.2922,-880.5 305.2922,-880.5 305.2922,-892.5 305.2922,-892.5 305.2922,-898.5 299.2922,-904.5 293.2922,-904.5"/>
<text text-anchor="middle" x="278.2922" y="-884" font-family="sans" font-size="10.00" fill="#000000">tabix</text>
</g>
<!-- 9&#45;&gt;12 -->
<g id="edge21" class="edge">
<title>9&#45;&gt;12</title>
<path fill="none" stroke="#c0c0c0" stroke-width="2" d="M257.0702,-942.9656C260.3135,-934.3361 264.2689,-923.8119 267.8822,-914.1981"/>
<polygon fill="#c0c0c0" stroke="#c0c0c0" stroke-width="2" points="271.2376,-915.2186 271.4795,-904.6265 264.6851,-912.7559 271.2376,-915.2186"/>
</g>
<!-- 10 -->
<g id="node11" class="node">
<title>10</title>
<path fill="none" stroke="#d8cb56" stroke-width="2" d="M573.2922,-1133C573.2922,-1133 471.2922,-1133 471.2922,-1133 465.2922,-1133 459.2922,-1127 459.2922,-1121 459.2922,-1121 459.2922,-1104 459.2922,-1104 459.2922,-1098 465.2922,-1092 471.2922,-1092 471.2922,-1092 573.2922,-1092 573.2922,-1092 579.2922,-1092 585.2922,-1098 585.2922,-1104 585.2922,-1104 585.2922,-1121 585.2922,-1121 585.2922,-1127 579.2922,-1133 573.2922,-1133"/>
<text text-anchor="middle" x="522.2922" y="-1121" font-family="sans" font-size="10.00" fill="#000000">vardict</text>
<text text-anchor="middle" x="522.2922" y="-1110" font-family="sans" font-size="10.00" fill="#000000">sample: HD832.HES45</text>
<text text-anchor="middle" x="522.2922" y="-1099" font-family="sans" font-size="10.00" fill="#000000">type: T</text>
</g>
<!-- 10&#45;&gt;9 -->
<g id="edge19" class="edge">
<title>10&#45;&gt;9</title>
<path fill="none" stroke="#c0c0c0" stroke-width="2" d="M485.326,-1091.9104C434.7959,-1063.7658 344.4287,-1013.4327 291.6854,-984.0554"/>
<polygon fill="#c0c0c0" stroke="#c0c0c0" stroke-width="2" points="293.3637,-980.984 282.9243,-979.1756 289.9575,-987.0994 293.3637,-980.984"/>
</g>
<!-- 11 -->
<g id="node12" class="node">
<title>11</title>
<path fill="none" stroke="#70d856" stroke-width="2" d="M909.7922,-1205C909.7922,-1205 872.7922,-1205 872.7922,-1205 866.7922,-1205 860.7922,-1199 860.7922,-1193 860.7922,-1193 860.7922,-1181 860.7922,-1181 860.7922,-1175 866.7922,-1169 872.7922,-1169 872.7922,-1169 909.7922,-1169 909.7922,-1169 915.7922,-1169 921.7922,-1175 921.7922,-1181 921.7922,-1181 921.7922,-1193 921.7922,-1193 921.7922,-1199 915.7922,-1205 909.7922,-1205"/>
<text text-anchor="middle" x="891.2922" y="-1190" font-family="sans" font-size="10.00" fill="#000000">bed_split</text>
<text text-anchor="middle" x="891.2922" y="-1179" font-family="sans" font-size="10.00" fill="#000000">chr: chr1</text>
</g>
<!-- 11&#45;&gt;10 -->
<g id="edge20" class="edge">
<title>11&#45;&gt;10</title>
<path fill="none" stroke="#c0c0c0" stroke-width="2" d="M860.7814,-1180.84C803.0736,-1169.1889 676.4802,-1143.6301 595.5189,-1127.2842"/>
<polygon fill="#c0c0c0" stroke="#c0c0c0" stroke-width="2" points="595.885,-1123.7876 585.3901,-1125.2393 594.4997,-1130.6492 595.885,-1123.7876"/>
</g>
<!-- 23 -->
<g id="node24" class="node">
<title>23</title>
<path fill="none" stroke="#56a9d8" stroke-width="2" d="M794.2922,-1133C794.2922,-1133 692.2922,-1133 692.2922,-1133 686.2922,-1133 680.2922,-1127 680.2922,-1121 680.2922,-1121 680.2922,-1104 680.2922,-1104 680.2922,-1098 686.2922,-1092 692.2922,-1092 692.2922,-1092 794.2922,-1092 794.2922,-1092 800.2922,-1092 806.2922,-1098 806.2922,-1104 806.2922,-1104 806.2922,-1121 806.2922,-1121 806.2922,-1127 800.2922,-1133 794.2922,-1133"/>
<text text-anchor="middle" x="743.2922" y="-1121" font-family="sans" font-size="10.00" fill="#000000">gatk_mutect2</text>
<text text-anchor="middle" x="743.2922" y="-1110" font-family="sans" font-size="10.00" fill="#000000">sample: HD832.HES45</text>
<text text-anchor="middle" x="743.2922" y="-1099" font-family="sans" font-size="10.00" fill="#000000">type: T</text>
</g>
<!-- 11&#45;&gt;23 -->
<g id="edge35" class="edge">
<title>11&#45;&gt;23</title>
<path fill="none" stroke="#c0c0c0" stroke-width="2" d="M860.6265,-1171.5636C841.1297,-1161.7493 815.4362,-1148.8158 793.0639,-1137.554"/>
<polygon fill="#c0c0c0" stroke="#c0c0c0" stroke-width="2" points="794.5365,-1134.3769 784.0306,-1133.0069 791.3891,-1140.6294 794.5365,-1134.3769"/>
</g>
<!-- 35 -->
<g id="node36" class="node">
<title>35</title>
<path fill="none" stroke="#56c9d8" stroke-width="2" d="M942.2922,-1133C942.2922,-1133 840.2922,-1133 840.2922,-1133 834.2922,-1133 828.2922,-1127 828.2922,-1121 828.2922,-1121 828.2922,-1104 828.2922,-1104 828.2922,-1098 834.2922,-1092 840.2922,-1092 840.2922,-1092 942.2922,-1092 942.2922,-1092 948.2922,-1092 954.2922,-1098 954.2922,-1104 954.2922,-1104 954.2922,-1121 954.2922,-1121 954.2922,-1127 948.2922,-1133 942.2922,-1133"/>
<text text-anchor="middle" x="891.2922" y="-1121" font-family="sans" font-size="10.00" fill="#000000">freebayes</text>
<text text-anchor="middle" x="891.2922" y="-1110" font-family="sans" font-size="10.00" fill="#000000">sample: HD832.HES45</text>
<text text-anchor="middle" x="891.2922" y="-1099" font-family="sans" font-size="10.00" fill="#000000">type: T</text>
</g>
<!-- 11&#45;&gt;35 -->
<g id="edge49" class="edge">
<title>11&#45;&gt;35</title>
<path fill="none" stroke="#c0c0c0" stroke-width="2" d="M891.2922,-1168.9656C891.2922,-1161.3118 891.2922,-1152.1674 891.2922,-1143.4898"/>
<polygon fill="#c0c0c0" stroke="#c0c0c0" stroke-width="2" points="894.7923,-1143.2678 891.2922,-1133.2679 887.7923,-1143.2679 894.7923,-1143.2678"/>
</g>
<!-- 43 -->
<g id="node44" class="node">
<title>43</title>
<path fill="none" stroke="#afd856" stroke-width="2" d="M1095.2922,-1133C1095.2922,-1133 993.2922,-1133 993.2922,-1133 987.2922,-1133 981.2922,-1127 981.2922,-1121 981.2922,-1121 981.2922,-1104 981.2922,-1104 981.2922,-1098 987.2922,-1092 993.2922,-1092 993.2922,-1092 1095.2922,-1092 1095.2922,-1092 1101.2922,-1092 1107.2922,-1098 1107.2922,-1104 1107.2922,-1104 1107.2922,-1121 1107.2922,-1121 1107.2922,-1127 1101.2922,-1133 1095.2922,-1133"/>
<text text-anchor="middle" x="1044.2922" y="-1121" font-family="sans" font-size="10.00" fill="#000000">gatk_mutect2_gvcf</text>
<text text-anchor="middle" x="1044.2922" y="-1110" font-family="sans" font-size="10.00" fill="#000000">sample: HD832.HES45</text>
<text text-anchor="middle" x="1044.2922" y="-1099" font-family="sans" font-size="10.00" fill="#000000">type: T</text>
</g>
<!-- 11&#45;&gt;43 -->
<g id="edge57" class="edge">
<title>11&#45;&gt;43</title>
<path fill="none" stroke="#c0c0c0" stroke-width="2" d="M921.8863,-1172.1029C942.2107,-1162.2064 969.3951,-1148.9695 992.9828,-1137.484"/>
<polygon fill="#c0c0c0" stroke="#c0c0c0" stroke-width="2" points="994.7031,-1140.5393 1002.1616,-1133.0146 991.6385,-1134.2457 994.7031,-1140.5393"/>
</g>
<!-- 52 -->
<g id="node53" class="node">
<title>52</title>
<path fill="none" stroke="#56d8c9" stroke-width="2" d="M1316.2922,-1133C1316.2922,-1133 1214.2922,-1133 1214.2922,-1133 1208.2922,-1133 1202.2922,-1127 1202.2922,-1121 1202.2922,-1121 1202.2922,-1104 1202.2922,-1104 1202.2922,-1098 1208.2922,-1092 1214.2922,-1092 1214.2922,-1092 1316.2922,-1092 1316.2922,-1092 1322.2922,-1092 1328.2922,-1098 1328.2922,-1104 1328.2922,-1104 1328.2922,-1121 1328.2922,-1121 1328.2922,-1127 1322.2922,-1133 1316.2922,-1133"/>
<text text-anchor="middle" x="1265.2922" y="-1121" font-family="sans" font-size="10.00" fill="#000000">haplotypecaller</text>
<text text-anchor="middle" x="1265.2922" y="-1110" font-family="sans" font-size="10.00" fill="#000000">sample: HD832.HES45</text>
<text text-anchor="middle" x="1265.2922" y="-1099" font-family="sans" font-size="10.00" fill="#000000">type: T</text>
</g>
<!-- 11&#45;&gt;52 -->
<g id="edge68" class="edge">
<title>11&#45;&gt;52</title>
<path fill="none" stroke="#c0c0c0" stroke-width="2" d="M921.8982,-1180.9034C980.5134,-1169.2273 1110.0747,-1143.419 1192.2277,-1127.0543"/>
<polygon fill="#c0c0c0" stroke="#c0c0c0" stroke-width="2" points="1193.1278,-1130.4438 1202.2513,-1125.0576 1191.7602,-1123.5787 1193.1278,-1130.4438"/>
</g>
<!-- 12&#45;&gt;8 -->
<g id="edge18" class="edge">
<title>12&#45;&gt;8</title>
<path fill="none" stroke="#c0c0c0" stroke-width="2" d="M267.3908,-868.2521C262.1428,-859.4674 255.72,-848.7161 249.8099,-838.8232"/>
<polygon fill="#c0c0c0" stroke="#c0c0c0" stroke-width="2" points="252.7082,-836.85 244.575,-830.0603 246.6989,-840.4401 252.7082,-836.85"/>
</g>
<!-- 13&#45;&gt;2 -->
<g id="edge11" class="edge">
<title>13&#45;&gt;2</title>
<path fill="none" stroke="#c0c0c0" stroke-width="2" d="M205.2541,-292.8314C189.5216,-283.6221 170.2311,-272.3301 153.3878,-262.4706"/>
<polygon fill="#c0c0c0" stroke="#c0c0c0" stroke-width="2" points="154.7187,-259.1941 144.3203,-257.1628 151.1824,-265.2352 154.7187,-259.1941"/>
</g>
<!-- 14 -->
<g id="node15" class="node">
<title>14</title>
<path fill="none" stroke="#59d856" stroke-width="2" d="M501.2922,-257C501.2922,-257 445.2922,-257 445.2922,-257 439.2922,-257 433.2922,-251 433.2922,-245 433.2922,-245 433.2922,-233 433.2922,-233 433.2922,-227 439.2922,-221 445.2922,-221 445.2922,-221 501.2922,-221 501.2922,-221 507.2922,-221 513.2922,-227 513.2922,-233 513.2922,-233 513.2922,-245 513.2922,-245 513.2922,-251 507.2922,-257 501.2922,-257"/>
<text text-anchor="middle" x="473.2922" y="-236.5" font-family="sans" font-size="10.00" fill="#000000">bcftools_sort</text>
</g>
<!-- 14&#45;&gt;1 -->
<g id="edge5" class="edge">
<title>14&#45;&gt;1</title>
<path fill="none" stroke="#c0c0c0" stroke-width="2" d="M433.1061,-230.9971C407.7646,-223.6483 376.9631,-209.9528 361.2922,-185 352.7828,-171.4505 351.8755,-161.9355 361.2922,-149 371.3825,-135.139 403.8087,-122.9637 438.0532,-113.4994"/>
<polygon fill="#c0c0c0" stroke="#c0c0c0" stroke-width="2" points="438.9898,-116.872 447.743,-110.9028 437.1779,-110.1106 438.9898,-116.872"/>
</g>
<!-- 39 -->
<g id="node40" class="node">
<title>39</title>
<path fill="none" stroke="#56d892" stroke-width="2" d="M690.2922,-185C690.2922,-185 382.2922,-185 382.2922,-185 376.2922,-185 370.2922,-179 370.2922,-173 370.2922,-173 370.2922,-161 370.2922,-161 370.2922,-155 376.2922,-149 382.2922,-149 382.2922,-149 690.2922,-149 690.2922,-149 696.2922,-149 702.2922,-155 702.2922,-161 702.2922,-161 702.2922,-173 702.2922,-173 702.2922,-179 696.2922,-185 690.2922,-185"/>
<text text-anchor="middle" x="536.2922" y="-170" font-family="sans" font-size="10.00" fill="#000000">tabix</text>
<text text-anchor="middle" x="536.2922" y="-159" font-family="sans" font-size="10.00" fill="#000000">file: snv_indels/gatk_mutect2/HD832.HES45_T.normalized.sorted</text>
</g>
<!-- 14&#45;&gt;39 -->
<g id="edge53" class="edge">
<title>14&#45;&gt;39</title>
<path fill="none" stroke="#c0c0c0" stroke-width="2" d="M489.1897,-220.8314C496.5199,-212.454 505.3582,-202.3531 513.3891,-193.1749"/>
<polygon fill="#c0c0c0" stroke="#c0c0c0" stroke-width="2" points="516.2295,-195.2438 520.1806,-185.4133 510.9615,-190.6343 516.2295,-195.2438"/>
</g>
<!-- 15 -->
<g id="node16" class="node">
<title>15</title>
<path fill="none" stroke="#c6d856" stroke-width="2" d="M615.2922,-401C615.2922,-401 559.2922,-401 559.2922,-401 553.2922,-401 547.2922,-395 547.2922,-389 547.2922,-389 547.2922,-377 547.2922,-377 547.2922,-371 553.2922,-365 559.2922,-365 559.2922,-365 615.2922,-365 615.2922,-365 621.2922,-365 627.2922,-371 627.2922,-377 627.2922,-377 627.2922,-389 627.2922,-389 627.2922,-395 621.2922,-401 615.2922,-401"/>
<text text-anchor="middle" x="587.2922" y="-380.5" font-family="sans" font-size="10.00" fill="#000000">vt_normalize</text>
</g>
<!-- 15&#45;&gt;14 -->
<g id="edge23" class="edge">
<title>15&#45;&gt;14</title>
<path fill="none" stroke="#c0c0c0" stroke-width="2" d="M547.2467,-374.8416C505.1916,-365.3651 443.2443,-348.513 429.2922,-329 414.9528,-308.9455 429.9834,-283.5061 446.2554,-264.7939"/>
<polygon fill="#c0c0c0" stroke="#c0c0c0" stroke-width="2" points="449.0275,-266.9502 453.2231,-257.2215 443.8763,-262.2104 449.0275,-266.9502"/>
</g>
<!-- 26 -->
<g id="node27" class="node">
<title>26</title>
<path fill="none" stroke="#56d892" stroke-width="2" d="M724.2922,-329C724.2922,-329 450.2922,-329 450.2922,-329 444.2922,-329 438.2922,-323 438.2922,-317 438.2922,-317 438.2922,-305 438.2922,-305 438.2922,-299 444.2922,-293 450.2922,-293 450.2922,-293 724.2922,-293 724.2922,-293 730.2922,-293 736.2922,-299 736.2922,-305 736.2922,-305 736.2922,-317 736.2922,-317 736.2922,-323 730.2922,-329 724.2922,-329"/>
<text text-anchor="middle" x="587.2922" y="-314" font-family="sans" font-size="10.00" fill="#000000">tabix</text>
<text text-anchor="middle" x="587.2922" y="-303" font-family="sans" font-size="10.00" fill="#000000">file: snv_indels/gatk_mutect2/HD832.HES45_T.normalized</text>
</g>
<!-- 15&#45;&gt;26 -->
<g id="edge38" class="edge">
<title>15&#45;&gt;26</title>
<path fill="none" stroke="#c0c0c0" stroke-width="2" d="M587.2922,-364.8314C587.2922,-357.131 587.2922,-347.9743 587.2922,-339.4166"/>
<polygon fill="#c0c0c0" stroke="#c0c0c0" stroke-width="2" points="590.7923,-339.4132 587.2922,-329.4133 583.7923,-339.4133 590.7923,-339.4132"/>
</g>
<!-- 16 -->
<g id="node17" class="node">
<title>16</title>
<path fill="none" stroke="#5692d8" stroke-width="2" d="M638.2922,-489C638.2922,-489 536.2922,-489 536.2922,-489 530.2922,-489 524.2922,-483 524.2922,-477 524.2922,-477 524.2922,-449 524.2922,-449 524.2922,-443 530.2922,-437 536.2922,-437 536.2922,-437 638.2922,-437 638.2922,-437 644.2922,-437 650.2922,-443 650.2922,-449 650.2922,-449 650.2922,-477 650.2922,-477 650.2922,-483 644.2922,-489 638.2922,-489"/>
<text text-anchor="middle" x="587.2922" y="-477" font-family="sans" font-size="10.00" fill="#000000">vt_decompose</text>
<text text-anchor="middle" x="587.2922" y="-466" font-family="sans" font-size="10.00" fill="#000000">caller: gatk_mutect2</text>
<text text-anchor="middle" x="587.2922" y="-455" font-family="sans" font-size="10.00" fill="#000000">sample: HD832.HES45</text>
<text text-anchor="middle" x="587.2922" y="-444" font-family="sans" font-size="10.00" fill="#000000">type: T</text>
</g>
<!-- 16&#45;&gt;15 -->
<g id="edge25" class="edge">
<title>16&#45;&gt;15</title>
<path fill="none" stroke="#c0c0c0" stroke-width="2" d="M587.2922,-436.805C587.2922,-428.6026 587.2922,-419.5174 587.2922,-411.1839"/>
<polygon fill="#c0c0c0" stroke="#c0c0c0" stroke-width="2" points="590.7923,-411.1532 587.2922,-401.1532 583.7923,-411.1533 590.7923,-411.1532"/>
</g>
<!-- 17 -->
<g id="node18" class="node">
<title>17</title>
<path fill="none" stroke="#56d8a9" stroke-width="2" d="M710.2922,-569C710.2922,-569 464.2922,-569 464.2922,-569 458.2922,-569 452.2922,-563 452.2922,-557 452.2922,-557 452.2922,-545 452.2922,-545 452.2922,-539 458.2922,-533 464.2922,-533 464.2922,-533 710.2922,-533 710.2922,-533 716.2922,-533 722.2922,-539 722.2922,-545 722.2922,-545 722.2922,-557 722.2922,-557 722.2922,-563 716.2922,-569 710.2922,-569"/>
<text text-anchor="middle" x="587.2922" y="-554" font-family="sans" font-size="10.00" fill="#000000">bgzip</text>
<text text-anchor="middle" x="587.2922" y="-543" font-family="sans" font-size="10.00" fill="#000000">file: snv_indels/gatk_mutect2/HD832.HES45_T.fix_af</text>
</g>
<!-- 17&#45;&gt;16 -->
<g id="edge26" class="edge">
<title>17&#45;&gt;16</title>
<path fill="none" stroke="#c0c0c0" stroke-width="2" d="M587.2922,-532.7663C587.2922,-523.1303 587.2922,-510.9487 587.2922,-499.4714"/>
<polygon fill="#c0c0c0" stroke="#c0c0c0" stroke-width="2" points="590.7923,-499.2223 587.2922,-489.2223 583.7923,-499.2223 590.7923,-499.2223"/>
</g>
<!-- 18 -->
<g id="node19" class="node">
<title>18</title>
<path fill="none" stroke="#d87556" stroke-width="2" d="M634.7922,-657C634.7922,-657 541.7922,-657 541.7922,-657 535.7922,-657 529.7922,-651 529.7922,-645 529.7922,-645 529.7922,-633 529.7922,-633 529.7922,-627 535.7922,-621 541.7922,-621 541.7922,-621 634.7922,-621 634.7922,-621 640.7922,-621 646.7922,-627 646.7922,-633 646.7922,-633 646.7922,-645 646.7922,-645 646.7922,-651 640.7922,-657 634.7922,-657"/>
<text text-anchor="middle" x="588.2922" y="-642" font-family="sans" font-size="10.00" fill="#000000">fix_af</text>
<text text-anchor="middle" x="588.2922" y="-631" font-family="sans" font-size="10.00" fill="#000000">caller: gatk_mutect2</text>
</g>
<!-- 18&#45;&gt;17 -->
<g id="edge27" class="edge">
<title>18&#45;&gt;17</title>
<path fill="none" stroke="#c0c0c0" stroke-width="2" d="M588.085,-620.7663C587.9496,-608.8492 587.7699,-593.0384 587.6158,-579.4817"/>
<polygon fill="#c0c0c0" stroke="#c0c0c0" stroke-width="2" points="591.1126,-579.1698 587.4991,-569.2103 584.1131,-579.2495 591.1126,-579.1698"/>
</g>
<!-- 19 -->
<g id="node20" class="node">
<title>19</title>
<path fill="none" stroke="#5673d8" stroke-width="2" d="M633.7922,-745C633.7922,-745 544.7922,-745 544.7922,-745 538.7922,-745 532.7922,-739 532.7922,-733 532.7922,-733 532.7922,-721 532.7922,-721 532.7922,-715 538.7922,-709 544.7922,-709 544.7922,-709 633.7922,-709 633.7922,-709 639.7922,-709 645.7922,-715 645.7922,-721 645.7922,-721 645.7922,-733 645.7922,-733 645.7922,-739 639.7922,-745 633.7922,-745"/>
<text text-anchor="middle" x="589.2922" y="-724.5" font-family="sans" font-size="10.00" fill="#000000">mutect2_pass_filter</text>
</g>
<!-- 19&#45;&gt;18 -->
<g id="edge28" class="edge">
<title>19&#45;&gt;18</title>
<path fill="none" stroke="#c0c0c0" stroke-width="2" d="M589.085,-708.7663C588.9496,-696.8492 588.7699,-681.0384 588.6158,-667.4817"/>
<polygon fill="#c0c0c0" stroke="#c0c0c0" stroke-width="2" points="592.1126,-667.1698 588.4991,-657.2103 585.1131,-667.2495 592.1126,-667.1698"/>
</g>
<!-- 20 -->
<g id="node21" class="node">
<title>20</title>
<path fill="none" stroke="#d88d56" stroke-width="2" d="M639.2922,-827.5C639.2922,-827.5 551.2922,-827.5 551.2922,-827.5 545.2922,-827.5 539.2922,-821.5 539.2922,-815.5 539.2922,-815.5 539.2922,-803.5 539.2922,-803.5 539.2922,-797.5 545.2922,-791.5 551.2922,-791.5 551.2922,-791.5 639.2922,-791.5 639.2922,-791.5 645.2922,-791.5 651.2922,-797.5 651.2922,-803.5 651.2922,-803.5 651.2922,-815.5 651.2922,-815.5 651.2922,-821.5 645.2922,-827.5 639.2922,-827.5"/>
<text text-anchor="middle" x="595.2922" y="-807" font-family="sans" font-size="10.00" fill="#000000">gatk_mutect2_filter</text>
</g>
<!-- 20&#45;&gt;19 -->
<g id="edge29" class="edge">
<title>20&#45;&gt;19</title>
<path fill="none" stroke="#c0c0c0" stroke-width="2" d="M593.9606,-791.1906C593.1993,-780.7232 592.2279,-767.3662 591.3685,-755.5498"/>
<polygon fill="#c0c0c0" stroke="#c0c0c0" stroke-width="2" points="594.8363,-754.978 590.6201,-745.2582 587.8547,-755.4858 594.8363,-754.978"/>
</g>
<!-- 21 -->
<g id="node22" class="node">
<title>21</title>
<path fill="none" stroke="#56d8a9" stroke-width="2" d="M703.2922,-979C703.2922,-979 397.2922,-979 397.2922,-979 391.2922,-979 385.2922,-973 385.2922,-967 385.2922,-967 385.2922,-955 385.2922,-955 385.2922,-949 391.2922,-943 397.2922,-943 397.2922,-943 703.2922,-943 703.2922,-943 709.2922,-943 715.2922,-949 715.2922,-955 715.2922,-955 715.2922,-967 715.2922,-967 715.2922,-973 709.2922,-979 703.2922,-979"/>
<text text-anchor="middle" x="550.2922" y="-964" font-family="sans" font-size="10.00" fill="#000000">bgzip</text>
<text text-anchor="middle" x="550.2922" y="-953" font-family="sans" font-size="10.00" fill="#000000">file: snv_indels/gatk_mutect2/HD832.HES45_T.merged.unfiltered</text>
</g>
<!-- 21&#45;&gt;20 -->
<g id="edge30" class="edge">
<title>21&#45;&gt;20</title>
<path fill="none" stroke="#c0c0c0" stroke-width="2" d="M551.6919,-942.7408C553.5647,-923.3129 557.7026,-891.8738 566.2922,-866 569.5924,-856.0591 574.4368,-845.7156 579.2249,-836.6372"/>
<polygon fill="#c0c0c0" stroke="#c0c0c0" stroke-width="2" points="582.3843,-838.155 584.1271,-827.7045 576.2477,-834.7872 582.3843,-838.155"/>
</g>
<!-- 24 -->
<g id="node25" class="node">
<title>24</title>
<path fill="none" stroke="#56d892" stroke-width="2" d="M617.2922,-904.5C617.2922,-904.5 587.2922,-904.5 587.2922,-904.5 581.2922,-904.5 575.2922,-898.5 575.2922,-892.5 575.2922,-892.5 575.2922,-880.5 575.2922,-880.5 575.2922,-874.5 581.2922,-868.5 587.2922,-868.5 587.2922,-868.5 617.2922,-868.5 617.2922,-868.5 623.2922,-868.5 629.2922,-874.5 629.2922,-880.5 629.2922,-880.5 629.2922,-892.5 629.2922,-892.5 629.2922,-898.5 623.2922,-904.5 617.2922,-904.5"/>
<text text-anchor="middle" x="602.2922" y="-884" font-family="sans" font-size="10.00" fill="#000000">tabix</text>
</g>
<!-- 21&#45;&gt;24 -->
<g id="edge36" class="edge">
<title>21&#45;&gt;24</title>
<path fill="none" stroke="#c0c0c0" stroke-width="2" d="M562.8799,-942.9656C569.1568,-933.9728 576.8699,-922.9223 583.8034,-912.9887"/>
<polygon fill="#c0c0c0" stroke="#c0c0c0" stroke-width="2" points="586.7866,-914.8298 589.6401,-904.6265 581.0465,-910.8233 586.7866,-914.8298"/>
</g>
<!-- 22 -->
<g id="node23" class="node">
<title>22</title>
<path fill="none" stroke="#d8ac56" stroke-width="2" d="M681.2922,-1056C681.2922,-1056 463.2922,-1056 463.2922,-1056 457.2922,-1056 451.2922,-1050 451.2922,-1044 451.2922,-1044 451.2922,-1027 451.2922,-1027 451.2922,-1021 457.2922,-1015 463.2922,-1015 463.2922,-1015 681.2922,-1015 681.2922,-1015 687.2922,-1015 693.2922,-1021 693.2922,-1027 693.2922,-1027 693.2922,-1044 693.2922,-1044 693.2922,-1050 687.2922,-1056 681.2922,-1056"/>
<text text-anchor="middle" x="572.2922" y="-1044" font-family="sans" font-size="10.00" fill="#000000">bcftools_concat</text>
<text text-anchor="middle" x="572.2922" y="-1033" font-family="sans" font-size="10.00" fill="#000000">file: snv_indels/gatk_mutect2/HD832.HES45_T</text>
<text text-anchor="middle" x="572.2922" y="-1022" font-family="sans" font-size="10.00" fill="#000000">vcf: unfiltered.vcf</text>
</g>
<!-- 22&#45;&gt;21 -->
<g id="edge33" class="edge">
<title>22&#45;&gt;21</title>
<path fill="none" stroke="#c0c0c0" stroke-width="2" d="M566.164,-1014.7476C563.788,-1006.7018 561.0321,-997.3691 558.49,-988.7608"/>
<polygon fill="#c0c0c0" stroke="#c0c0c0" stroke-width="2" points="561.8286,-987.708 555.6397,-979.1087 555.1152,-989.6905 561.8286,-987.708"/>
</g>
<!-- 23&#45;&gt;22 -->
<g id="edge34" class="edge">
<title>23&#45;&gt;22</title>
<path fill="none" stroke="#c0c0c0" stroke-width="2" d="M697.4673,-1091.8654C675.8167,-1082.1163 649.8048,-1070.4034 627.1157,-1060.1866"/>
<polygon fill="#c0c0c0" stroke="#c0c0c0" stroke-width="2" points="628.5021,-1056.9725 617.9468,-1056.0579 625.6279,-1063.3552 628.5021,-1056.9725"/>
</g>
<!-- 25 -->
<g id="node26" class="node">
<title>25</title>
<path fill="none" stroke="#56d873" stroke-width="2" d="M797.2922,-904.5C797.2922,-904.5 671.2922,-904.5 671.2922,-904.5 665.2922,-904.5 659.2922,-898.5 659.2922,-892.5 659.2922,-892.5 659.2922,-880.5 659.2922,-880.5 659.2922,-874.5 665.2922,-868.5 671.2922,-868.5 671.2922,-868.5 797.2922,-868.5 797.2922,-868.5 803.2922,-868.5 809.2922,-874.5 809.2922,-880.5 809.2922,-880.5 809.2922,-892.5 809.2922,-892.5 809.2922,-898.5 803.2922,-904.5 797.2922,-904.5"/>
<text text-anchor="middle" x="734.2922" y="-884" font-family="sans" font-size="10.00" fill="#000000">gatk_mutect2_merge_stats</text>
</g>
<!-- 23&#45;&gt;25 -->
<g id="edge37" class="edge">
<title>23&#45;&gt;25</title>
<path fill="none" stroke="#c0c0c0" stroke-width="2" d="M742.4616,-1091.6436C740.8421,-1050.9757 737.2606,-961.04 735.4251,-914.9476"/>
<polygon fill="#c0c0c0" stroke="#c0c0c0" stroke-width="2" points="738.9144,-914.6081 735.0192,-904.7554 731.9199,-914.8867 738.9144,-914.6081"/>
</g>
<!-- 24&#45;&gt;20 -->
<g id="edge31" class="edge">
<title>24&#45;&gt;20</title>
<path fill="none" stroke="#c0c0c0" stroke-width="2" d="M600.6333,-868.2521C599.8051,-859.1422 598.7847,-847.9174 597.8584,-837.7282"/>
<polygon fill="#c0c0c0" stroke="#c0c0c0" stroke-width="2" points="601.3303,-837.259 596.9392,-827.6169 594.359,-837.8928 601.3303,-837.259"/>
</g>
<!-- 25&#45;&gt;20 -->
<g id="edge32" class="edge">
<title>25&#45;&gt;20</title>
<path fill="none" stroke="#c0c0c0" stroke-width="2" d="M701.7029,-868.4469C682.4108,-857.7599 657.7733,-844.1118 637.0644,-832.64"/>
<polygon fill="#c0c0c0" stroke="#c0c0c0" stroke-width="2" points="638.6025,-829.4909 628.159,-827.7068 635.2104,-835.6142 638.6025,-829.4909"/>
</g>
<!-- 26&#45;&gt;14 -->
<g id="edge24" class="edge">
<title>26&#45;&gt;14</title>
<path fill="none" stroke="#c0c0c0" stroke-width="2" d="M558.5252,-292.8314C544.0789,-283.7074 526.3957,-272.539 510.8882,-262.7449"/>
<polygon fill="#c0c0c0" stroke="#c0c0c0" stroke-width="2" points="512.3739,-259.5436 502.05,-257.1628 508.6359,-265.462 512.3739,-259.5436"/>
</g>
<!-- 27 -->
<g id="node28" class="node">
<title>27</title>
<path fill="none" stroke="#59d856" stroke-width="2" d="M867.2922,-257C867.2922,-257 811.2922,-257 811.2922,-257 805.2922,-257 799.2922,-251 799.2922,-245 799.2922,-245 799.2922,-233 799.2922,-233 799.2922,-227 805.2922,-221 811.2922,-221 811.2922,-221 867.2922,-221 867.2922,-221 873.2922,-221 879.2922,-227 879.2922,-233 879.2922,-233 879.2922,-245 879.2922,-245 879.2922,-251 873.2922,-257 867.2922,-257"/>
<text text-anchor="middle" x="839.2922" y="-236.5" font-family="sans" font-size="10.00" fill="#000000">bcftools_sort</text>
</g>
<!-- 27&#45;&gt;1 -->
<g id="edge6" class="edge">
<title>27&#45;&gt;1</title>
<path fill="none" stroke="#c0c0c0" stroke-width="2" d="M805.2546,-220.9105C787.9192,-211.1257 766.8525,-198.3328 749.2922,-185 730.7633,-170.9318 731.3019,-160.8679 711.2922,-149 687.9172,-135.1361 660.7379,-124.2451 634.8688,-115.8828"/>
<polygon fill="#c0c0c0" stroke="#c0c0c0" stroke-width="2" points="635.618,-112.4499 625.029,-112.8008 633.5257,-119.1299 635.618,-112.4499"/>
</g>
<!-- 40 -->
<g id="node41" class="node">
<title>40</title>
<path fill="none" stroke="#56d892" stroke-width="2" d="M1059.7922,-185C1059.7922,-185 770.7922,-185 770.7922,-185 764.7922,-185 758.7922,-179 758.7922,-173 758.7922,-173 758.7922,-161 758.7922,-161 758.7922,-155 764.7922,-149 770.7922,-149 770.7922,-149 1059.7922,-149 1059.7922,-149 1065.7922,-149 1071.7922,-155 1071.7922,-161 1071.7922,-161 1071.7922,-173 1071.7922,-173 1071.7922,-179 1065.7922,-185 1059.7922,-185"/>
<text text-anchor="middle" x="915.2922" y="-170" font-family="sans" font-size="10.00" fill="#000000">tabix</text>
<text text-anchor="middle" x="915.2922" y="-159" font-family="sans" font-size="10.00" fill="#000000">file: snv_indels/freebayes/HD832.HES45_T.normalized.sorted</text>
</g>
<!-- 27&#45;&gt;40 -->
<g id="edge54" class="edge">
<title>27&#45;&gt;40</title>
<path fill="none" stroke="#c0c0c0" stroke-width="2" d="M858.4702,-220.8314C867.651,-212.1337 878.7928,-201.5783 888.7697,-192.1265"/>
<polygon fill="#c0c0c0" stroke="#c0c0c0" stroke-width="2" points="891.2679,-194.5811 896.1203,-185.1628 886.4536,-189.4995 891.2679,-194.5811"/>
</g>
<!-- 28 -->
<g id="node29" class="node">
<title>28</title>
<path fill="none" stroke="#c6d856" stroke-width="2" d="M933.2922,-401C933.2922,-401 877.2922,-401 877.2922,-401 871.2922,-401 865.2922,-395 865.2922,-389 865.2922,-389 865.2922,-377 865.2922,-377 865.2922,-371 871.2922,-365 877.2922,-365 877.2922,-365 933.2922,-365 933.2922,-365 939.2922,-365 945.2922,-371 945.2922,-377 945.2922,-377 945.2922,-389 945.2922,-389 945.2922,-395 939.2922,-401 933.2922,-401"/>
<text text-anchor="middle" x="905.2922" y="-380.5" font-family="sans" font-size="10.00" fill="#000000">vt_normalize</text>
</g>
<!-- 28&#45;&gt;27 -->
<g id="edge39" class="edge">
<title>28&#45;&gt;27</title>
<path fill="none" stroke="#c0c0c0" stroke-width="2" d="M865.2318,-376.8807C837.0608,-370.2604 801.2991,-356.6622 783.2922,-329 774.5634,-315.5908 777.0351,-307.7258 783.2922,-293 787.99,-281.9437 796.1835,-272.0516 804.8765,-263.8494"/>
<polygon fill="#c0c0c0" stroke="#c0c0c0" stroke-width="2" points="807.3676,-266.3197 812.569,-257.0896 802.7469,-261.0614 807.3676,-266.3197"/>
</g>
<!-- 37 -->
<g id="node38" class="node">
<title>37</title>
<path fill="none" stroke="#56d892" stroke-width="2" d="M1059.7922,-329C1059.7922,-329 804.7922,-329 804.7922,-329 798.7922,-329 792.7922,-323 792.7922,-317 792.7922,-317 792.7922,-305 792.7922,-305 792.7922,-299 798.7922,-293 804.7922,-293 804.7922,-293 1059.7922,-293 1059.7922,-293 1065.7922,-293 1071.7922,-299 1071.7922,-305 1071.7922,-305 1071.7922,-317 1071.7922,-317 1071.7922,-323 1065.7922,-329 1059.7922,-329"/>
<text text-anchor="middle" x="932.2922" y="-314" font-family="sans" font-size="10.00" fill="#000000">tabix</text>
<text text-anchor="middle" x="932.2922" y="-303" font-family="sans" font-size="10.00" fill="#000000">file: snv_indels/freebayes/HD832.HES45_T.normalized</text>
</g>
<!-- 28&#45;&gt;37 -->
<g id="edge51" class="edge">
<title>28&#45;&gt;37</title>
<path fill="none" stroke="#c0c0c0" stroke-width="2" d="M912.1054,-364.8314C915.0565,-356.9617 918.578,-347.5712 921.8472,-338.8533"/>
<polygon fill="#c0c0c0" stroke="#c0c0c0" stroke-width="2" points="925.1531,-340.0055 925.3872,-329.4133 918.5988,-337.5476 925.1531,-340.0055"/>
</g>
<!-- 29 -->
<g id="node30" class="node">
<title>29</title>
<path fill="none" stroke="#5692d8" stroke-width="2" d="M956.2922,-489C956.2922,-489 854.2922,-489 854.2922,-489 848.2922,-489 842.2922,-483 842.2922,-477 842.2922,-477 842.2922,-449 842.2922,-449 842.2922,-443 848.2922,-437 854.2922,-437 854.2922,-437 956.2922,-437 956.2922,-437 962.2922,-437 968.2922,-443 968.2922,-449 968.2922,-449 968.2922,-477 968.2922,-477 968.2922,-483 962.2922,-489 956.2922,-489"/>
<text text-anchor="middle" x="905.2922" y="-477" font-family="sans" font-size="10.00" fill="#000000">vt_decompose</text>
<text text-anchor="middle" x="905.2922" y="-466" font-family="sans" font-size="10.00" fill="#000000">caller: freebayes</text>
<text text-anchor="middle" x="905.2922" y="-455" font-family="sans" font-size="10.00" fill="#000000">sample: HD832.HES45</text>
<text text-anchor="middle" x="905.2922" y="-444" font-family="sans" font-size="10.00" fill="#000000">type: T</text>
</g>
<!-- 29&#45;&gt;28 -->
<g id="edge41" class="edge">
<title>29&#45;&gt;28</title>
<path fill="none" stroke="#c0c0c0" stroke-width="2" d="M905.2922,-436.805C905.2922,-428.6026 905.2922,-419.5174 905.2922,-411.1839"/>
<polygon fill="#c0c0c0" stroke="#c0c0c0" stroke-width="2" points="908.7923,-411.1532 905.2922,-401.1532 901.7923,-411.1533 908.7923,-411.1532"/>
</g>
<!-- 30 -->
<g id="node31" class="node">
<title>30</title>
<path fill="none" stroke="#56d8a9" stroke-width="2" d="M1018.7922,-569C1018.7922,-569 791.7922,-569 791.7922,-569 785.7922,-569 779.7922,-563 779.7922,-557 779.7922,-557 779.7922,-545 779.7922,-545 779.7922,-539 785.7922,-533 791.7922,-533 791.7922,-533 1018.7922,-533 1018.7922,-533 1024.7922,-533 1030.7922,-539 1030.7922,-545 1030.7922,-545 1030.7922,-557 1030.7922,-557 1030.7922,-563 1024.7922,-569 1018.7922,-569"/>
<text text-anchor="middle" x="905.2922" y="-554" font-family="sans" font-size="10.00" fill="#000000">bgzip</text>
<text text-anchor="middle" x="905.2922" y="-543" font-family="sans" font-size="10.00" fill="#000000">file: snv_indels/freebayes/HD832.HES45_T.fix_af</text>
</g>
<!-- 30&#45;&gt;29 -->
<g id="edge42" class="edge">
<title>30&#45;&gt;29</title>
<path fill="none" stroke="#c0c0c0" stroke-width="2" d="M905.2922,-532.7663C905.2922,-523.1303 905.2922,-510.9487 905.2922,-499.4714"/>
<polygon fill="#c0c0c0" stroke="#c0c0c0" stroke-width="2" points="908.7923,-499.2223 905.2922,-489.2223 901.7923,-499.2223 908.7923,-499.2223"/>
</g>
<!-- 31 -->
<g id="node32" class="node">
<title>31</title>
<path fill="none" stroke="#d87556" stroke-width="2" d="M956.2922,-665C956.2922,-665 854.2922,-665 854.2922,-665 848.2922,-665 842.2922,-659 842.2922,-653 842.2922,-653 842.2922,-625 842.2922,-625 842.2922,-619 848.2922,-613 854.2922,-613 854.2922,-613 956.2922,-613 956.2922,-613 962.2922,-613 968.2922,-619 968.2922,-625 968.2922,-625 968.2922,-653 968.2922,-653 968.2922,-659 962.2922,-665 956.2922,-665"/>
<text text-anchor="middle" x="905.2922" y="-653" font-family="sans" font-size="10.00" fill="#000000">fix_af</text>
<text text-anchor="middle" x="905.2922" y="-642" font-family="sans" font-size="10.00" fill="#000000">caller: freebayes</text>
<text text-anchor="middle" x="905.2922" y="-631" font-family="sans" font-size="10.00" fill="#000000">sample: HD832.HES45</text>
<text text-anchor="middle" x="905.2922" y="-620" font-family="sans" font-size="10.00" fill="#000000">type: T</text>
</g>
<!-- 31&#45;&gt;30 -->
<g id="edge43" class="edge">
<title>31&#45;&gt;30</title>
<path fill="none" stroke="#c0c0c0" stroke-width="2" d="M905.2922,-612.5971C905.2922,-602.0414 905.2922,-589.868 905.2922,-579.1448"/>
<polygon fill="#c0c0c0" stroke="#c0c0c0" stroke-width="2" points="908.7923,-579.0188 905.2922,-569.0188 901.7923,-579.0188 908.7923,-579.0188"/>
</g>
<!-- 32 -->
<g id="node33" class="node">
<title>32</title>
<path fill="none" stroke="#56d8a9" stroke-width="2" d="M1024.2922,-745C1024.2922,-745 786.2922,-745 786.2922,-745 780.2922,-745 774.2922,-739 774.2922,-733 774.2922,-733 774.2922,-721 774.2922,-721 774.2922,-715 780.2922,-709 786.2922,-709 786.2922,-709 1024.2922,-709 1024.2922,-709 1030.2922,-709 1036.2922,-715 1036.2922,-721 1036.2922,-721 1036.2922,-733 1036.2922,-733 1036.2922,-739 1030.2922,-745 1024.2922,-745"/>
<text text-anchor="middle" x="905.2922" y="-730" font-family="sans" font-size="10.00" fill="#000000">bgzip</text>
<text text-anchor="middle" x="905.2922" y="-719" font-family="sans" font-size="10.00" fill="#000000">file: snv_indels/freebayes/HD832.HES45_T.merged</text>
</g>
<!-- 32&#45;&gt;31 -->
<g id="edge44" class="edge">
<title>32&#45;&gt;31</title>
<path fill="none" stroke="#c0c0c0" stroke-width="2" d="M905.2922,-708.7663C905.2922,-699.1303 905.2922,-686.9487 905.2922,-675.4714"/>
<polygon fill="#c0c0c0" stroke="#c0c0c0" stroke-width="2" points="908.7923,-675.2223 905.2922,-665.2223 901.7923,-675.2223 908.7923,-675.2223"/>
</g>
<!-- 33 -->
<g id="node34" class="node">
<title>33</title>
<path fill="none" stroke="#d8ac56" stroke-width="2" d="M1004.7922,-830C1004.7922,-830 805.7922,-830 805.7922,-830 799.7922,-830 793.7922,-824 793.7922,-818 793.7922,-818 793.7922,-801 793.7922,-801 793.7922,-795 799.7922,-789 805.7922,-789 805.7922,-789 1004.7922,-789 1004.7922,-789 1010.7922,-789 1016.7922,-795 1016.7922,-801 1016.7922,-801 1016.7922,-818 1016.7922,-818 1016.7922,-824 1010.7922,-830 1004.7922,-830"/>
<text text-anchor="middle" x="905.2922" y="-818" font-family="sans" font-size="10.00" fill="#000000">bcftools_concat</text>
<text text-anchor="middle" x="905.2922" y="-807" font-family="sans" font-size="10.00" fill="#000000">file: snv_indels/freebayes/HD832.HES45_T</text>
<text text-anchor="middle" x="905.2922" y="-796" font-family="sans" font-size="10.00" fill="#000000">vcf: vcf</text>
</g>
<!-- 33&#45;&gt;32 -->
<g id="edge45" class="edge">
<title>33&#45;&gt;32</title>
<path fill="none" stroke="#c0c0c0" stroke-width="2" d="M905.2922,-788.6818C905.2922,-778.4808 905.2922,-766.0496 905.2922,-755.027"/>
<polygon fill="#c0c0c0" stroke="#c0c0c0" stroke-width="2" points="908.7923,-755.0094 905.2922,-745.0094 901.7923,-755.0094 908.7923,-755.0094"/>
</g>
<!-- 34 -->
<g id="node35" class="node">
<title>34</title>
<path fill="none" stroke="#56d8a9" stroke-width="2" d="M1008.7922,-979C1008.7922,-979 783.7922,-979 783.7922,-979 777.7922,-979 771.7922,-973 771.7922,-967 771.7922,-967 771.7922,-955 771.7922,-955 771.7922,-949 777.7922,-943 783.7922,-943 783.7922,-943 1008.7922,-943 1008.7922,-943 1014.7922,-943 1020.7922,-949 1020.7922,-955 1020.7922,-955 1020.7922,-967 1020.7922,-967 1020.7922,-973 1014.7922,-979 1008.7922,-979"/>
<text text-anchor="middle" x="896.2922" y="-964" font-family="sans" font-size="10.00" fill="#000000">bgzip</text>
<text text-anchor="middle" x="896.2922" y="-953" font-family="sans" font-size="10.00" fill="#000000">file: snv_indels/freebayes/HD832.HES45_T_chr1</text>
</g>
<!-- 34&#45;&gt;33 -->
<g id="edge46" class="edge">
<title>34&#45;&gt;33</title>
<path fill="none" stroke="#c0c0c0" stroke-width="2" d="M896.1238,-942.7621C896.0764,-923.6178 896.3655,-892.6551 898.2922,-866 898.8984,-857.6127 899.8749,-848.56 900.9085,-840.2104"/>
<polygon fill="#c0c0c0" stroke="#c0c0c0" stroke-width="2" points="904.4026,-840.482 902.2247,-830.1134 897.4613,-839.577 904.4026,-840.482"/>
</g>
<!-- 36 -->
<g id="node37" class="node">
<title>36</title>
<path fill="none" stroke="#56d892" stroke-width="2" d="M949.2922,-904.5C949.2922,-904.5 919.2922,-904.5 919.2922,-904.5 913.2922,-904.5 907.2922,-898.5 907.2922,-892.5 907.2922,-892.5 907.2922,-880.5 907.2922,-880.5 907.2922,-874.5 913.2922,-868.5 919.2922,-868.5 919.2922,-868.5 949.2922,-868.5 949.2922,-868.5 955.2922,-868.5 961.2922,-874.5 961.2922,-880.5 961.2922,-880.5 961.2922,-892.5 961.2922,-892.5 961.2922,-898.5 955.2922,-904.5 949.2922,-904.5"/>
<text text-anchor="middle" x="934.2922" y="-884" font-family="sans" font-size="10.00" fill="#000000">tabix</text>
</g>
<!-- 34&#45;&gt;36 -->
<g id="edge50" class="edge">
<title>34&#45;&gt;36</title>
<path fill="none" stroke="#c0c0c0" stroke-width="2" d="M905.4909,-942.9656C909.9852,-934.1544 915.4871,-923.368 920.4734,-913.5921"/>
<polygon fill="#c0c0c0" stroke="#c0c0c0" stroke-width="2" points="923.6205,-915.125 925.0464,-904.6265 917.3848,-911.9443 923.6205,-915.125"/>
</g>
<!-- 35&#45;&gt;34 -->
<g id="edge48" class="edge">
<title>35&#45;&gt;34</title>
<path fill="none" stroke="#c0c0c0" stroke-width="2" d="M891.9769,-1091.7522C892.8535,-1065.1917 894.3761,-1019.0569 895.3585,-989.2921"/>
<polygon fill="#c0c0c0" stroke="#c0c0c0" stroke-width="2" points="898.8619,-989.2434 895.6937,-979.1333 891.8657,-989.0124 898.8619,-989.2434"/>
</g>
<!-- 36&#45;&gt;33 -->
<g id="edge47" class="edge">
<title>36&#45;&gt;33</title>
<path fill="none" stroke="#c0c0c0" stroke-width="2" d="M927.4196,-868.2521C924.1786,-859.6466 920.2268,-849.1541 916.5645,-839.4299"/>
<polygon fill="#c0c0c0" stroke="#c0c0c0" stroke-width="2" points="919.8357,-838.185 913.0357,-830.0603 913.2849,-840.6522 919.8357,-838.185"/>
</g>
<!-- 37&#45;&gt;27 -->
<g id="edge40" class="edge">
<title>37&#45;&gt;27</title>
<path fill="none" stroke="#c0c0c0" stroke-width="2" d="M908.8244,-292.8314C897.2595,-283.8779 883.1518,-272.9558 870.6738,-263.2955"/>
<polygon fill="#c0c0c0" stroke="#c0c0c0" stroke-width="2" points="872.8024,-260.5171 862.7525,-257.1628 868.5171,-266.0521 872.8024,-260.5171"/>
</g>
<!-- 38&#45;&gt;1 -->
<g id="edge7" class="edge">
<title>38&#45;&gt;1</title>
<path fill="none" stroke="#c0c0c0" stroke-width="2" d="M255.1009,-148.9656C310.2287,-137.8955 380.8834,-123.7074 437.5766,-112.3229"/>
<polygon fill="#c0c0c0" stroke="#c0c0c0" stroke-width="2" points="438.5159,-115.7043 447.6311,-110.3039 437.1377,-108.8413 438.5159,-115.7043"/>
</g>
<!-- 39&#45;&gt;1 -->
<g id="edge8" class="edge">
<title>39&#45;&gt;1</title>
<path fill="none" stroke="#c0c0c0" stroke-width="2" d="M536.2922,-148.9656C536.2922,-141.3118 536.2922,-132.1674 536.2922,-123.4898"/>
<polygon fill="#c0c0c0" stroke="#c0c0c0" stroke-width="2" points="539.7923,-123.2678 536.2922,-113.2679 532.7923,-123.2679 539.7923,-123.2678"/>
</g>
<!-- 40&#45;&gt;1 -->
<g id="edge9" class="edge">
<title>40&#45;&gt;1</title>
<path fill="none" stroke="#c0c0c0" stroke-width="2" d="M823.5469,-148.9656C766.4925,-137.7505 693.158,-123.3351 634.8673,-111.8769"/>
<polygon fill="#c0c0c0" stroke="#c0c0c0" stroke-width="2" points="635.3952,-108.4138 624.9078,-109.9192 634.045,-115.2823 635.3952,-108.4138"/>
</g>
<!-- 41 -->
<g id="node42" class="node">
<title>41</title>
<path fill="none" stroke="#56d8a9" stroke-width="2" d="M1187.2922,-110.5C1187.2922,-110.5 895.2922,-110.5 895.2922,-110.5 889.2922,-110.5 883.2922,-104.5 883.2922,-98.5 883.2922,-98.5 883.2922,-86.5 883.2922,-86.5 883.2922,-80.5 889.2922,-74.5 895.2922,-74.5 895.2922,-74.5 1187.2922,-74.5 1187.2922,-74.5 1193.2922,-74.5 1199.2922,-80.5 1199.2922,-86.5 1199.2922,-86.5 1199.2922,-98.5 1199.2922,-98.5 1199.2922,-104.5 1193.2922,-110.5 1187.2922,-110.5"/>
<text text-anchor="middle" x="1041.2922" y="-95.5" font-family="sans" font-size="10.00" fill="#000000">bgzip</text>
<text text-anchor="middle" x="1041.2922" y="-84.5" font-family="sans" font-size="10.00" fill="#000000">file: snv_indels/gatk_mutect2_gvcf/HD832.HES45_T.merged.g</text>
</g>
<!-- 41&#45;&gt;0 -->
<g id="edge2" class="edge">
<title>41&#45;&gt;0</title>
<path fill="none" stroke="#c0c0c0" stroke-width="2" d="M1041.2922,-74.4656C1041.2922,-66.0178 1041.2922,-55.7542 1041.2922,-46.3064"/>
<polygon fill="#c0c0c0" stroke="#c0c0c0" stroke-width="2" points="1044.7923,-46.1265 1041.2922,-36.1265 1037.7923,-46.1265 1044.7923,-46.1265"/>
</g>
<!-- 42 -->
<g id="node43" class="node">
<title>42</title>
<path fill="none" stroke="#d8ac56" stroke-width="2" d="M1175.2922,-1056C1175.2922,-1056 931.2922,-1056 931.2922,-1056 925.2922,-1056 919.2922,-1050 919.2922,-1044 919.2922,-1044 919.2922,-1027 919.2922,-1027 919.2922,-1021 925.2922,-1015 931.2922,-1015 931.2922,-1015 1175.2922,-1015 1175.2922,-1015 1181.2922,-1015 1187.2922,-1021 1187.2922,-1027 1187.2922,-1027 1187.2922,-1044 1187.2922,-1044 1187.2922,-1050 1181.2922,-1056 1175.2922,-1056"/>
<text text-anchor="middle" x="1053.2922" y="-1044" font-family="sans" font-size="10.00" fill="#000000">bcftools_concat</text>
<text text-anchor="middle" x="1053.2922" y="-1033" font-family="sans" font-size="10.00" fill="#000000">file: snv_indels/gatk_mutect2_gvcf/HD832.HES45_T</text>
<text text-anchor="middle" x="1053.2922" y="-1022" font-family="sans" font-size="10.00" fill="#000000">vcf: g.vcf</text>
</g>
<!-- 42&#45;&gt;41 -->
<g id="edge55" class="edge">
<title>42&#45;&gt;41</title>
<path fill="none" stroke="#c0c0c0" stroke-width="2" d="M1064.1931,-1014.928C1078.0773,-986.7627 1100.2922,-934.2391 1100.2922,-886.5 1100.2922,-886.5 1100.2922,-886.5 1100.2922,-239 1100.2922,-198.0242 1096.6787,-186.5566 1080.2922,-149 1075.7048,-138.4861 1069.0546,-127.8921 1062.5409,-118.7642"/>
<polygon fill="#c0c0c0" stroke="#c0c0c0" stroke-width="2" points="1065.183,-116.4516 1056.4094,-110.5124 1059.5643,-120.6266 1065.183,-116.4516"/>
</g>
<!-- 43&#45;&gt;42 -->
<g id="edge56" class="edge">
<title>43&#45;&gt;42</title>
<path fill="none" stroke="#c0c0c0" stroke-width="2" d="M1046.704,-1091.8654C1047.6221,-1084.0111 1048.6891,-1074.8822 1049.6936,-1066.2879"/>
<polygon fill="#c0c0c0" stroke="#c0c0c0" stroke-width="2" points="1053.189,-1066.5303 1050.8737,-1056.1915 1046.2363,-1065.7176 1053.189,-1066.5303"/>
</g>
<!-- 44 -->
<g id="node45" class="node">
<title>44</title>
<path fill="none" stroke="#59d856" stroke-width="2" d="M1255.2922,-329C1255.2922,-329 1199.2922,-329 1199.2922,-329 1193.2922,-329 1187.2922,-323 1187.2922,-317 1187.2922,-317 1187.2922,-305 1187.2922,-305 1187.2922,-299 1193.2922,-293 1199.2922,-293 1199.2922,-293 1255.2922,-293 1255.2922,-293 1261.2922,-293 1267.2922,-299 1267.2922,-305 1267.2922,-305 1267.2922,-317 1267.2922,-317 1267.2922,-323 1261.2922,-329 1255.2922,-329"/>
<text text-anchor="middle" x="1227.2922" y="-308.5" font-family="sans" font-size="10.00" fill="#000000">bcftools_sort</text>
</g>
<!-- 44&#45;&gt;0 -->
<g id="edge3" class="edge">
<title>44&#45;&gt;0</title>
<path fill="none" stroke="#c0c0c0" stroke-width="2" d="M1231.9963,-292.7136C1242.0218,-249.1863 1260.5478,-138.1355 1208.2922,-72 1192.0713,-51.4706 1122.4612,-34.184 1078.3917,-25.0279"/>
<polygon fill="#c0c0c0" stroke="#c0c0c0" stroke-width="2" points="1078.8221,-21.544 1068.3258,-22.9851 1077.4299,-28.4042 1078.8221,-21.544"/>
</g>
<!-- 45 -->
<g id="node46" class="node">
<title>45</title>
<path fill="none" stroke="#c6d856" stroke-width="2" d="M1365.2922,-481C1365.2922,-481 1309.2922,-481 1309.2922,-481 1303.2922,-481 1297.2922,-475 1297.2922,-469 1297.2922,-469 1297.2922,-457 1297.2922,-457 1297.2922,-451 1303.2922,-445 1309.2922,-445 1309.2922,-445 1365.2922,-445 1365.2922,-445 1371.2922,-445 1377.2922,-451 1377.2922,-457 1377.2922,-457 1377.2922,-469 1377.2922,-469 1377.2922,-475 1371.2922,-481 1365.2922,-481"/>
<text text-anchor="middle" x="1337.2922" y="-460.5" font-family="sans" font-size="10.00" fill="#000000">vt_normalize</text>
</g>
<!-- 45&#45;&gt;44 -->
<g id="edge58" class="edge">
<title>45&#45;&gt;44</title>
<path fill="none" stroke="#c0c0c0" stroke-width="2" d="M1296.9156,-452.8225C1254.5257,-441.2243 1192.1257,-421.2422 1178.2922,-401 1164.1512,-380.3078 1180.4118,-355.1351 1197.8968,-336.6792"/>
<polygon fill="#c0c0c0" stroke="#c0c0c0" stroke-width="2" points="1200.7727,-338.7539 1205.3802,-329.2134 1195.8288,-333.7983 1200.7727,-338.7539"/>
</g>
<!-- 54 -->
<g id="node55" class="node">
<title>54</title>
<path fill="none" stroke="#56d892" stroke-width="2" d="M1481.2922,-401C1481.2922,-401 1199.2922,-401 1199.2922,-401 1193.2922,-401 1187.2922,-395 1187.2922,-389 1187.2922,-389 1187.2922,-377 1187.2922,-377 1187.2922,-371 1193.2922,-365 1199.2922,-365 1199.2922,-365 1481.2922,-365 1481.2922,-365 1487.2922,-365 1493.2922,-371 1493.2922,-377 1493.2922,-377 1493.2922,-389 1493.2922,-389 1493.2922,-395 1487.2922,-401 1481.2922,-401"/>
<text text-anchor="middle" x="1340.2922" y="-386" font-family="sans" font-size="10.00" fill="#000000">tabix</text>
<text text-anchor="middle" x="1340.2922" y="-375" font-family="sans" font-size="10.00" fill="#000000">file: snv_indels/haplotypecaller/HD832.HES45_T.normalized</text>
</g>
<!-- 45&#45;&gt;54 -->
<g id="edge70" class="edge">
<title>45&#45;&gt;54</title>
<path fill="none" stroke="#c0c0c0" stroke-width="2" d="M1337.9729,-444.8468C1338.345,-434.9251 1338.8141,-422.4167 1339.2328,-411.2492"/>
<polygon fill="#c0c0c0" stroke="#c0c0c0" stroke-width="2" points="1342.7368,-411.2056 1339.6141,-401.0814 1335.7418,-410.9432 1342.7368,-411.2056"/>
</g>
<!-- 46 -->
<g id="node47" class="node">
<title>46</title>
<path fill="none" stroke="#5692d8" stroke-width="2" d="M1388.2922,-577C1388.2922,-577 1286.2922,-577 1286.2922,-577 1280.2922,-577 1274.2922,-571 1274.2922,-565 1274.2922,-565 1274.2922,-537 1274.2922,-537 1274.2922,-531 1280.2922,-525 1286.2922,-525 1286.2922,-525 1388.2922,-525 1388.2922,-525 1394.2922,-525 1400.2922,-531 1400.2922,-537 1400.2922,-537 1400.2922,-565 1400.2922,-565 1400.2922,-571 1394.2922,-577 1388.2922,-577"/>
<text text-anchor="middle" x="1337.2922" y="-565" font-family="sans" font-size="10.00" fill="#000000">vt_decompose</text>
<text text-anchor="middle" x="1337.2922" y="-554" font-family="sans" font-size="10.00" fill="#000000">caller: haplotypecaller</text>
<text text-anchor="middle" x="1337.2922" y="-543" font-family="sans" font-size="10.00" fill="#000000">sample: HD832.HES45</text>
<text text-anchor="middle" x="1337.2922" y="-532" font-family="sans" font-size="10.00" fill="#000000">type: T</text>
</g>
<!-- 46&#45;&gt;45 -->
<g id="edge60" class="edge">
<title>46&#45;&gt;45</title>
<path fill="none" stroke="#c0c0c0" stroke-width="2" d="M1337.2922,-524.5971C1337.2922,-514.0414 1337.2922,-501.868 1337.2922,-491.1448"/>
<polygon fill="#c0c0c0" stroke="#c0c0c0" stroke-width="2" points="1340.7923,-491.0188 1337.2922,-481.0188 1333.7923,-491.0188 1340.7923,-491.0188"/>
</g>
<!-- 47 -->
<g id="node48" class="node">
<title>47</title>
<path fill="none" stroke="#56d8a9" stroke-width="2" d="M1464.2922,-657C1464.2922,-657 1210.2922,-657 1210.2922,-657 1204.2922,-657 1198.2922,-651 1198.2922,-645 1198.2922,-645 1198.2922,-633 1198.2922,-633 1198.2922,-627 1204.2922,-621 1210.2922,-621 1210.2922,-621 1464.2922,-621 1464.2922,-621 1470.2922,-621 1476.2922,-627 1476.2922,-633 1476.2922,-633 1476.2922,-645 1476.2922,-645 1476.2922,-651 1470.2922,-657 1464.2922,-657"/>
<text text-anchor="middle" x="1337.2922" y="-642" font-family="sans" font-size="10.00" fill="#000000">bgzip</text>
<text text-anchor="middle" x="1337.2922" y="-631" font-family="sans" font-size="10.00" fill="#000000">file: snv_indels/haplotypecaller/HD832.HES45_T.fix_af</text>
</g>
<!-- 47&#45;&gt;46 -->
<g id="edge61" class="edge">
<title>47&#45;&gt;46</title>
<path fill="none" stroke="#c0c0c0" stroke-width="2" d="M1337.2922,-620.7663C1337.2922,-611.1303 1337.2922,-598.9487 1337.2922,-587.4714"/>
<polygon fill="#c0c0c0" stroke="#c0c0c0" stroke-width="2" points="1340.7923,-587.2223 1337.2922,-577.2223 1333.7923,-587.2223 1340.7923,-587.2223"/>
</g>
<!-- 48 -->
<g id="node49" class="node">
<title>48</title>
<path fill="none" stroke="#d87556" stroke-width="2" d="M1388.2922,-753C1388.2922,-753 1286.2922,-753 1286.2922,-753 1280.2922,-753 1274.2922,-747 1274.2922,-741 1274.2922,-741 1274.2922,-713 1274.2922,-713 1274.2922,-707 1280.2922,-701 1286.2922,-701 1286.2922,-701 1388.2922,-701 1388.2922,-701 1394.2922,-701 1400.2922,-707 1400.2922,-713 1400.2922,-713 1400.2922,-741 1400.2922,-741 1400.2922,-747 1394.2922,-753 1388.2922,-753"/>
<text text-anchor="middle" x="1337.2922" y="-741" font-family="sans" font-size="10.00" fill="#000000">fix_af</text>
<text text-anchor="middle" x="1337.2922" y="-730" font-family="sans" font-size="10.00" fill="#000000">caller: haplotypecaller</text>
<text text-anchor="middle" x="1337.2922" y="-719" font-family="sans" font-size="10.00" fill="#000000">sample: HD832.HES45</text>
<text text-anchor="middle" x="1337.2922" y="-708" font-family="sans" font-size="10.00" fill="#000000">type: T</text>
</g>
<!-- 48&#45;&gt;47 -->
<g id="edge62" class="edge">
<title>48&#45;&gt;47</title>
<path fill="none" stroke="#c0c0c0" stroke-width="2" d="M1337.2922,-700.5971C1337.2922,-690.0414 1337.2922,-677.868 1337.2922,-667.1448"/>
<polygon fill="#c0c0c0" stroke="#c0c0c0" stroke-width="2" points="1340.7923,-667.0188 1337.2922,-657.0188 1333.7923,-667.0188 1340.7923,-667.0188"/>
</g>
<!-- 49 -->
<g id="node50" class="node">
<title>49</title>
<path fill="none" stroke="#56d8a9" stroke-width="2" d="M1469.7922,-827.5C1469.7922,-827.5 1204.7922,-827.5 1204.7922,-827.5 1198.7922,-827.5 1192.7922,-821.5 1192.7922,-815.5 1192.7922,-815.5 1192.7922,-803.5 1192.7922,-803.5 1192.7922,-797.5 1198.7922,-791.5 1204.7922,-791.5 1204.7922,-791.5 1469.7922,-791.5 1469.7922,-791.5 1475.7922,-791.5 1481.7922,-797.5 1481.7922,-803.5 1481.7922,-803.5 1481.7922,-815.5 1481.7922,-815.5 1481.7922,-821.5 1475.7922,-827.5 1469.7922,-827.5"/>
<text text-anchor="middle" x="1337.2922" y="-812.5" font-family="sans" font-size="10.00" fill="#000000">bgzip</text>
<text text-anchor="middle" x="1337.2922" y="-801.5" font-family="sans" font-size="10.00" fill="#000000">file: snv_indels/haplotypecaller/HD832.HES45_T.merged</text>
</g>
<!-- 49&#45;&gt;48 -->
<g id="edge63" class="edge">
<title>49&#45;&gt;48</title>
<path fill="none" stroke="#c0c0c0" stroke-width="2" d="M1337.2922,-791.1906C1337.2922,-782.9633 1337.2922,-772.9507 1337.2922,-763.3042"/>
<polygon fill="#c0c0c0" stroke="#c0c0c0" stroke-width="2" points="1340.7923,-763.0822 1337.2922,-753.0823 1333.7923,-763.0823 1340.7923,-763.0822"/>
</g>
<!-- 50 -->
<g id="node51" class="node">
<title>50</title>
<path fill="none" stroke="#d8ac56" stroke-width="2" d="M1450.2922,-907C1450.2922,-907 1224.2922,-907 1224.2922,-907 1218.2922,-907 1212.2922,-901 1212.2922,-895 1212.2922,-895 1212.2922,-878 1212.2922,-878 1212.2922,-872 1218.2922,-866 1224.2922,-866 1224.2922,-866 1450.2922,-866 1450.2922,-866 1456.2922,-866 1462.2922,-872 1462.2922,-878 1462.2922,-878 1462.2922,-895 1462.2922,-895 1462.2922,-901 1456.2922,-907 1450.2922,-907"/>
<text text-anchor="middle" x="1337.2922" y="-895" font-family="sans" font-size="10.00" fill="#000000">bcftools_concat</text>
<text text-anchor="middle" x="1337.2922" y="-884" font-family="sans" font-size="10.00" fill="#000000">file: snv_indels/haplotypecaller/HD832.HES45_T</text>
<text text-anchor="middle" x="1337.2922" y="-873" font-family="sans" font-size="10.00" fill="#000000">vcf: vcf</text>
</g>
<!-- 50&#45;&gt;49 -->
<g id="edge64" class="edge">
<title>50&#45;&gt;49</title>
<path fill="none" stroke="#c0c0c0" stroke-width="2" d="M1337.2922,-865.8654C1337.2922,-857.1912 1337.2922,-846.9623 1337.2922,-837.6158"/>
<polygon fill="#c0c0c0" stroke="#c0c0c0" stroke-width="2" points="1340.7923,-837.5682 1337.2922,-827.5683 1333.7923,-837.5683 1340.7923,-837.5682"/>
</g>
<!-- 51 -->
<g id="node52" class="node">
<title>51</title>
<path fill="none" stroke="#56d8a9" stroke-width="2" d="M1469.2922,-1053.5C1469.2922,-1053.5 1217.2922,-1053.5 1217.2922,-1053.5 1211.2922,-1053.5 1205.2922,-1047.5 1205.2922,-1041.5 1205.2922,-1041.5 1205.2922,-1029.5 1205.2922,-1029.5 1205.2922,-1023.5 1211.2922,-1017.5 1217.2922,-1017.5 1217.2922,-1017.5 1469.2922,-1017.5 1469.2922,-1017.5 1475.2922,-1017.5 1481.2922,-1023.5 1481.2922,-1029.5 1481.2922,-1029.5 1481.2922,-1041.5 1481.2922,-1041.5 1481.2922,-1047.5 1475.2922,-1053.5 1469.2922,-1053.5"/>
<text text-anchor="middle" x="1343.2922" y="-1038.5" font-family="sans" font-size="10.00" fill="#000000">bgzip</text>
<text text-anchor="middle" x="1343.2922" y="-1027.5" font-family="sans" font-size="10.00" fill="#000000">file: snv_indels/haplotypecaller/HD832.HES45_T_chr1</text>
</g>
<!-- 51&#45;&gt;50 -->
<g id="edge65" class="edge">
<title>51&#45;&gt;50</title>
<path fill="none" stroke="#c0c0c0" stroke-width="2" d="M1342.5565,-1017.2297C1341.5587,-992.4525 1339.7621,-947.8369 1338.5486,-917.7002"/>
<polygon fill="#c0c0c0" stroke="#c0c0c0" stroke-width="2" points="1342.03,-917.1669 1338.1304,-907.3158 1335.0357,-917.4486 1342.03,-917.1669"/>
</g>
<!-- 53 -->
<g id="node54" class="node">
<title>53</title>
<path fill="none" stroke="#56d892" stroke-width="2" d="M1395.2922,-979C1395.2922,-979 1365.2922,-979 1365.2922,-979 1359.2922,-979 1353.2922,-973 1353.2922,-967 1353.2922,-967 1353.2922,-955 1353.2922,-955 1353.2922,-949 1359.2922,-943 1365.2922,-943 1365.2922,-943 1395.2922,-943 1395.2922,-943 1401.2922,-943 1407.2922,-949 1407.2922,-955 1407.2922,-955 1407.2922,-967 1407.2922,-967 1407.2922,-973 1401.2922,-979 1395.2922,-979"/>
<text text-anchor="middle" x="1380.2922" y="-958.5" font-family="sans" font-size="10.00" fill="#000000">tabix</text>
</g>
<!-- 51&#45;&gt;53 -->
<g id="edge69" class="edge">
<title>51&#45;&gt;53</title>
<path fill="none" stroke="#c0c0c0" stroke-width="2" d="M1352.2489,-1017.4656C1356.6249,-1008.6544 1361.9819,-997.868 1366.837,-988.0921"/>
<polygon fill="#c0c0c0" stroke="#c0c0c0" stroke-width="2" points="1369.9763,-989.6396 1371.2898,-979.1265 1363.7069,-986.5259 1369.9763,-989.6396"/>
</g>
<!-- 52&#45;&gt;51 -->
<g id="edge67" class="edge">
<title>52&#45;&gt;51</title>
<path fill="none" stroke="#c0c0c0" stroke-width="2" d="M1286.1948,-1091.8654C1295.9265,-1082.2585 1307.5899,-1070.7445 1317.8313,-1060.6345"/>
<polygon fill="#c0c0c0" stroke="#c0c0c0" stroke-width="2" points="1320.3316,-1063.0844 1324.9893,-1053.5683 1315.4138,-1058.1028 1320.3316,-1063.0844"/>
</g>
<!-- 53&#45;&gt;50 -->
<g id="edge66" class="edge">
<title>53&#45;&gt;50</title>
<path fill="none" stroke="#c0c0c0" stroke-width="2" d="M1369.8831,-942.9656C1365.2227,-934.8912 1359.6049,-925.1581 1354.3559,-916.0639"/>
<polygon fill="#c0c0c0" stroke="#c0c0c0" stroke-width="2" points="1357.3093,-914.1791 1349.279,-907.2679 1351.2466,-917.6784 1357.3093,-914.1791"/>
</g>
<!-- 54&#45;&gt;44 -->
<g id="edge59" class="edge">
<title>54&#45;&gt;44</title>
<path fill="none" stroke="#c0c0c0" stroke-width="2" d="M1311.7775,-364.8314C1297.4579,-355.7074 1279.9298,-344.539 1264.5584,-334.7449"/>
<polygon fill="#c0c0c0" stroke="#c0c0c0" stroke-width="2" points="1266.1121,-331.5847 1255.7977,-329.1628 1262.3505,-337.4882 1266.1121,-331.5847"/>
</g>
</g>
</svg>
