<?xml version="1.0" encoding="UTF-8" standalone="no"?>
<!DOCTYPE svg PUBLIC "-//W3C//DTD SVG 1.1//EN"
 "http://www.w3.org/Graphics/SVG/1.1/DTD/svg11.dtd">
<!-- Generated by graphviz version 2.50.0 (20211209.0339)
 -->
<!-- Title: snakemake_dag Pages: 1 -->
<svg width="1524pt" height="1064pt"
 viewBox="0.00 0.00 1523.91 1064.00" xmlns="http://www.w3.org/2000/svg" xmlns:xlink="http://www.w3.org/1999/xlink">
<g id="graph0" class="graph" transform="scale(1 1) rotate(0) translate(4 1060)">
<title>snakemake_dag</title>
<polygon fill="white" stroke="transparent" points="-4,4 -4,-1060 1519.91,-1060 1519.91,4 -4,4"/>
<!-- 0 -->
<g id="node1" class="node">
<title>0</title>
<path fill="none" stroke="#88d856" stroke-width="2" d="M1038.41,-36C1038.41,-36 1008.41,-36 1008.41,-36 1002.41,-36 996.41,-30 996.41,-24 996.41,-24 996.41,-12 996.41,-12 996.41,-6 1002.41,0 1008.41,0 1008.41,0 1038.41,0 1038.41,0 1044.41,0 1050.41,-6 1050.41,-12 1050.41,-12 1050.41,-24 1050.41,-24 1050.41,-30 1044.41,-36 1038.41,-36"/>
<text text-anchor="middle" x="1023.41" y="-15.5" font-family="sans" font-size="10.00">all</text>
</g>
<!-- 1 -->
<g id="node2" class="node">
<title>1</title>
<path fill="none" stroke="#d85656" stroke-width="2" d="M601.91,-113C601.91,-113 448.91,-113 448.91,-113 442.91,-113 436.91,-107 436.91,-101 436.91,-101 436.91,-84 436.91,-84 436.91,-78 442.91,-72 448.91,-72 448.91,-72 601.91,-72 601.91,-72 607.91,-72 613.91,-78 613.91,-84 613.91,-84 613.91,-101 613.91,-101 613.91,-107 607.91,-113 601.91,-113"/>
<text text-anchor="middle" x="525.41" y="-101" font-family="sans" font-size="10.00">bcbio_variation_recall_ensemble</text>
<text text-anchor="middle" x="525.41" y="-90" font-family="sans" font-size="10.00">sample: HD832.HES45</text>
<text text-anchor="middle" x="525.41" y="-79" font-family="sans" font-size="10.00">type: T</text>
</g>
<!-- 1&#45;&gt;0 -->
<g id="edge1" class="edge">
<title>1&#45;&gt;0</title>
<path fill="none" stroke="grey" stroke-width="2" d="M614.16,-78.58C724.46,-62.52 907.71,-35.84 986.04,-24.44"/>
<polygon fill="grey" stroke="grey" stroke-width="2" points="986.99,-27.84 996.38,-22.94 985.98,-20.91 986.99,-27.84"/>
</g>
<!-- 2 -->
<g id="node3" class="node">
<title>2</title>
<path fill="none" stroke="#56d8d0" stroke-width="2" d="M155.91,-257C155.91,-257 100.91,-257 100.91,-257 94.91,-257 88.91,-251 88.91,-245 88.91,-245 88.91,-233 88.91,-233 88.91,-227 94.91,-221 100.91,-221 100.91,-221 155.91,-221 155.91,-221 161.91,-221 167.91,-227 167.91,-233 167.91,-233 167.91,-245 167.91,-245 167.91,-251 161.91,-257 155.91,-257"/>
<text text-anchor="middle" x="128.41" y="-236.5" font-family="sans" font-size="10.00">bcftools_sort</text>
</g>
<!-- 2&#45;&gt;1 -->
<g id="edge4" class="edge">
<title>2&#45;&gt;1</title>
<path fill="none" stroke="grey" stroke-width="2" d="M88.7,-232.11C60.76,-225.68 25.3,-212.35 7.41,-185 -1.34,-171.61 -3.28,-160.9 7.41,-149 34.87,-118.45 284.14,-103.31 426.64,-97.09"/>
<polygon fill="grey" stroke="grey" stroke-width="2" points="426.87,-100.59 436.71,-96.66 426.57,-93.59 426.87,-100.59"/>
</g>
<!-- 31 -->
<g id="node32" class="node">
<title>31</title>
<path fill="none" stroke="#567bd8" stroke-width="2" d="M303.91,-185C303.91,-185 28.91,-185 28.91,-185 22.91,-185 16.91,-179 16.91,-173 16.91,-173 16.91,-161 16.91,-161 16.91,-155 22.91,-149 28.91,-149 28.91,-149 303.91,-149 303.91,-149 309.91,-149 315.91,-155 315.91,-161 315.91,-161 315.91,-173 315.91,-173 315.91,-179 309.91,-185 303.91,-185"/>
<text text-anchor="middle" x="166.41" y="-170" font-family="sans" font-size="10.00">tabix</text>
<text text-anchor="middle" x="166.41" y="-159" font-family="sans" font-size="10.00">file: snv_indels/vardict/HD832.HES45_T.normalized.sorted</text>
</g>
<!-- 2&#45;&gt;31 -->
<g id="edge43" class="edge">
<title>2&#45;&gt;31</title>
<path fill="none" stroke="grey" stroke-width="2" d="M137.81,-220.7C142.18,-212.64 147.47,-202.89 152.31,-193.98"/>
<polygon fill="grey" stroke="grey" stroke-width="2" points="155.43,-195.56 157.13,-185.1 149.28,-192.22 155.43,-195.56"/>
</g>
<!-- 3 -->
<g id="node4" class="node">
<title>3</title>
<path fill="none" stroke="#d89c56" stroke-width="2" d="M279.41,-401C279.41,-401 223.41,-401 223.41,-401 217.41,-401 211.41,-395 211.41,-389 211.41,-389 211.41,-377 211.41,-377 211.41,-371 217.41,-365 223.41,-365 223.41,-365 279.41,-365 279.41,-365 285.41,-365 291.41,-371 291.41,-377 291.41,-377 291.41,-389 291.41,-389 291.41,-395 285.41,-401 279.41,-401"/>
<text text-anchor="middle" x="251.41" y="-380.5" font-family="sans" font-size="10.00">vt_normalize</text>
</g>
<!-- 3&#45;&gt;2 -->
<g id="edge10" class="edge">
<title>3&#45;&gt;2</title>
<path fill="none" stroke="grey" stroke-width="2" d="M211.11,-379.09C177.71,-374.3 132.15,-361.75 109.41,-329 96.62,-310.57 103.87,-285.2 112.86,-266.26"/>
<polygon fill="grey" stroke="grey" stroke-width="2" points="116.02,-267.77 117.48,-257.28 109.79,-264.57 116.02,-267.77"/>
</g>
<!-- 12 -->
<g id="node13" class="node">
<title>12</title>
<path fill="none" stroke="#567bd8" stroke-width="2" d="M371.91,-329C371.91,-329 130.91,-329 130.91,-329 124.91,-329 118.91,-323 118.91,-317 118.91,-317 118.91,-305 118.91,-305 118.91,-299 124.91,-293 130.91,-293 130.91,-293 371.91,-293 371.91,-293 377.91,-293 383.91,-299 383.91,-305 383.91,-305 383.91,-317 383.91,-317 383.91,-323 377.91,-329 371.91,-329"/>
<text text-anchor="middle" x="251.41" y="-314" font-family="sans" font-size="10.00">tabix</text>
<text text-anchor="middle" x="251.41" y="-303" font-family="sans" font-size="10.00">file: snv_indels/vardict/HD832.HES45_T.normalized</text>
</g>
<!-- 3&#45;&gt;12 -->
<g id="edge21" class="edge">
<title>3&#45;&gt;12</title>
<path fill="none" stroke="grey" stroke-width="2" d="M251.41,-364.7C251.41,-356.98 251.41,-347.71 251.41,-339.11"/>
<polygon fill="grey" stroke="grey" stroke-width="2" points="254.91,-339.1 251.41,-329.1 247.91,-339.1 254.91,-339.1"/>
</g>
<!-- 4 -->
<g id="node5" class="node">
<title>4</title>
<path fill="none" stroke="#56c1d8" stroke-width="2" d="M314.41,-489C314.41,-489 212.41,-489 212.41,-489 206.41,-489 200.41,-483 200.41,-477 200.41,-477 200.41,-449 200.41,-449 200.41,-443 206.41,-437 212.41,-437 212.41,-437 314.41,-437 314.41,-437 320.41,-437 326.41,-443 326.41,-449 326.41,-449 326.41,-477 326.41,-477 326.41,-483 320.41,-489 314.41,-489"/>
<text text-anchor="middle" x="263.41" y="-477" font-family="sans" font-size="10.00">vt_decompose</text>
<text text-anchor="middle" x="263.41" y="-466" font-family="sans" font-size="10.00">caller: vardict</text>
<text text-anchor="middle" x="263.41" y="-455" font-family="sans" font-size="10.00">sample: HD832.HES45</text>
<text text-anchor="middle" x="263.41" y="-444" font-family="sans" font-size="10.00">type: T</text>
</g>
<!-- 4&#45;&gt;3 -->
<g id="edge12" class="edge">
<title>4&#45;&gt;3</title>
<path fill="none" stroke="grey" stroke-width="2" d="M259.55,-436.89C258.3,-428.75 256.9,-419.68 255.63,-411.38"/>
<polygon fill="grey" stroke="grey" stroke-width="2" points="259.07,-410.76 254.09,-401.41 252.15,-411.83 259.07,-410.76"/>
</g>
<!-- 5 -->
<g id="node6" class="node">
<title>5</title>
<path fill="none" stroke="#68d856" stroke-width="2" d="M415.91,-569C415.91,-569 202.91,-569 202.91,-569 196.91,-569 190.91,-563 190.91,-557 190.91,-557 190.91,-545 190.91,-545 190.91,-539 196.91,-533 202.91,-533 202.91,-533 415.91,-533 415.91,-533 421.91,-533 427.91,-539 427.91,-545 427.91,-545 427.91,-557 427.91,-557 427.91,-563 421.91,-569 415.91,-569"/>
<text text-anchor="middle" x="309.41" y="-554" font-family="sans" font-size="10.00">bgzip</text>
<text text-anchor="middle" x="309.41" y="-543" font-family="sans" font-size="10.00">file: snv_indels/vardict/HD832.HES45_T.fix_af</text>
</g>
<!-- 5&#45;&gt;4 -->
<g id="edge13" class="edge">
<title>5&#45;&gt;4</title>
<path fill="none" stroke="grey" stroke-width="2" d="M300.11,-532.6C294.84,-522.76 288.08,-510.11 281.79,-498.36"/>
<polygon fill="grey" stroke="grey" stroke-width="2" points="284.7,-496.37 276.9,-489.2 278.53,-499.67 284.7,-496.37"/>
</g>
<!-- 6 -->
<g id="node7" class="node">
<title>6</title>
<path fill="none" stroke="#569ad8" stroke-width="2" d="M383.41,-665C383.41,-665 281.41,-665 281.41,-665 275.41,-665 269.41,-659 269.41,-653 269.41,-653 269.41,-625 269.41,-625 269.41,-619 275.41,-613 281.41,-613 281.41,-613 383.41,-613 383.41,-613 389.41,-613 395.41,-619 395.41,-625 395.41,-625 395.41,-653 395.41,-653 395.41,-659 389.41,-665 383.41,-665"/>
<text text-anchor="middle" x="332.41" y="-653" font-family="sans" font-size="10.00">fix_af</text>
<text text-anchor="middle" x="332.41" y="-642" font-family="sans" font-size="10.00">caller: vardict</text>
<text text-anchor="middle" x="332.41" y="-631" font-family="sans" font-size="10.00">sample: HD832.HES45</text>
<text text-anchor="middle" x="332.41" y="-620" font-family="sans" font-size="10.00">type: T</text>
</g>
<!-- 6&#45;&gt;5 -->
<g id="edge14" class="edge">
<title>6&#45;&gt;5</title>
<path fill="none" stroke="grey" stroke-width="2" d="M325.64,-612.66C322.79,-602 319.47,-589.58 316.57,-578.77"/>
<polygon fill="grey" stroke="grey" stroke-width="2" points="319.93,-577.76 313.96,-569 313.16,-579.57 319.93,-577.76"/>
</g>
<!-- 7 -->
<g id="node8" class="node">
<title>7</title>
<path fill="none" stroke="#56d86b" stroke-width="2" d="M435.41,-747.5C435.41,-747.5 251.41,-747.5 251.41,-747.5 245.41,-747.5 239.41,-741.5 239.41,-735.5 239.41,-735.5 239.41,-718.5 239.41,-718.5 239.41,-712.5 245.41,-706.5 251.41,-706.5 251.41,-706.5 435.41,-706.5 435.41,-706.5 441.41,-706.5 447.41,-712.5 447.41,-718.5 447.41,-718.5 447.41,-735.5 447.41,-735.5 447.41,-741.5 441.41,-747.5 435.41,-747.5"/>
<text text-anchor="middle" x="343.41" y="-735.5" font-family="sans" font-size="10.00">bcftools_concat</text>
<text text-anchor="middle" x="343.41" y="-724.5" font-family="sans" font-size="10.00">file: snv_indels/vardict/HD832.HES45_T</text>
<text text-anchor="middle" x="343.41" y="-713.5" font-family="sans" font-size="10.00">vcf: vcf</text>
</g>
<!-- 7&#45;&gt;6 -->
<g id="edge15" class="edge">
<title>7&#45;&gt;6</title>
<path fill="none" stroke="grey" stroke-width="2" d="M340.92,-706.49C339.74,-697.25 338.29,-685.92 336.92,-675.25"/>
<polygon fill="grey" stroke="grey" stroke-width="2" points="340.39,-674.79 335.65,-665.32 333.45,-675.68 340.39,-674.79"/>
</g>
<!-- 8 -->
<g id="node9" class="node">
<title>8</title>
<path fill="none" stroke="#68d856" stroke-width="2" d="M503.41,-904.5C503.41,-904.5 293.41,-904.5 293.41,-904.5 287.41,-904.5 281.41,-898.5 281.41,-892.5 281.41,-892.5 281.41,-880.5 281.41,-880.5 281.41,-874.5 287.41,-868.5 293.41,-868.5 293.41,-868.5 503.41,-868.5 503.41,-868.5 509.41,-868.5 515.41,-874.5 515.41,-880.5 515.41,-880.5 515.41,-892.5 515.41,-892.5 515.41,-898.5 509.41,-904.5 503.41,-904.5"/>
<text text-anchor="middle" x="398.41" y="-889.5" font-family="sans" font-size="10.00">bgzip</text>
<text text-anchor="middle" x="398.41" y="-878.5" font-family="sans" font-size="10.00">file: snv_indels/vardict/HD832.HES45_T_chr1</text>
</g>
<!-- 8&#45;&gt;7 -->
<g id="edge16" class="edge">
<title>8&#45;&gt;7</title>
<path fill="none" stroke="grey" stroke-width="2" d="M384.86,-868.48C377.15,-857.96 367.95,-843.87 362.41,-830 353.15,-806.78 348.34,-778.75 345.89,-757.96"/>
<polygon fill="grey" stroke="grey" stroke-width="2" points="349.34,-757.38 344.81,-747.81 342.38,-758.12 349.34,-757.38"/>
</g>
<!-- 11 -->
<g id="node12" class="node">
<title>11</title>
<path fill="none" stroke="#567bd8" stroke-width="2" d="M413.41,-827.5C413.41,-827.5 383.41,-827.5 383.41,-827.5 377.41,-827.5 371.41,-821.5 371.41,-815.5 371.41,-815.5 371.41,-803.5 371.41,-803.5 371.41,-797.5 377.41,-791.5 383.41,-791.5 383.41,-791.5 413.41,-791.5 413.41,-791.5 419.41,-791.5 425.41,-797.5 425.41,-803.5 425.41,-803.5 425.41,-815.5 425.41,-815.5 425.41,-821.5 419.41,-827.5 413.41,-827.5"/>
<text text-anchor="middle" x="398.41" y="-807" font-family="sans" font-size="10.00">tabix</text>
</g>
<!-- 8&#45;&gt;11 -->
<g id="edge20" class="edge">
<title>8&#45;&gt;11</title>
<path fill="none" stroke="grey" stroke-width="2" d="M398.41,-868.48C398.41,-859.44 398.41,-848.1 398.41,-837.85"/>
<polygon fill="grey" stroke="grey" stroke-width="2" points="401.91,-837.71 398.41,-827.71 394.91,-837.71 401.91,-837.71"/>
</g>
<!-- 9 -->
<g id="node10" class="node">
<title>9</title>
<path fill="none" stroke="#ced856" stroke-width="2" d="M460.41,-984C460.41,-984 358.41,-984 358.41,-984 352.41,-984 346.41,-978 346.41,-972 346.41,-972 346.41,-955 346.41,-955 346.41,-949 352.41,-943 358.41,-943 358.41,-943 460.41,-943 460.41,-943 466.41,-943 472.41,-949 472.41,-955 472.41,-955 472.41,-972 472.41,-972 472.41,-978 466.41,-984 460.41,-984"/>
<text text-anchor="middle" x="409.41" y="-972" font-family="sans" font-size="10.00">vardict</text>
<text text-anchor="middle" x="409.41" y="-961" font-family="sans" font-size="10.00">sample: HD832.HES45</text>
<text text-anchor="middle" x="409.41" y="-950" font-family="sans" font-size="10.00">type: T</text>
</g>
<!-- 9&#45;&gt;8 -->
<g id="edge18" class="edge">
<title>9&#45;&gt;8</title>
<path fill="none" stroke="grey" stroke-width="2" d="M406.52,-942.79C405.27,-934.22 403.77,-924.02 402.41,-914.74"/>
<polygon fill="grey" stroke="grey" stroke-width="2" points="405.86,-914.16 400.95,-904.78 398.94,-915.18 405.86,-914.16"/>
</g>
<!-- 10 -->
<g id="node11" class="node">
<title>10</title>
<path fill="none" stroke="#56d8a9" stroke-width="2" d="M728.91,-1056C728.91,-1056 691.91,-1056 691.91,-1056 685.91,-1056 679.91,-1050 679.91,-1044 679.91,-1044 679.91,-1032 679.91,-1032 679.91,-1026 685.91,-1020 691.91,-1020 691.91,-1020 728.91,-1020 728.91,-1020 734.91,-1020 740.91,-1026 740.91,-1032 740.91,-1032 740.91,-1044 740.91,-1044 740.91,-1050 734.91,-1056 728.91,-1056"/>
<text text-anchor="middle" x="710.41" y="-1041" font-family="sans" font-size="10.00">bed_split</text>
<text text-anchor="middle" x="710.41" y="-1030" font-family="sans" font-size="10.00">chr: chr1</text>
</g>
<!-- 10&#45;&gt;9 -->
<g id="edge19" class="edge">
<title>10&#45;&gt;9</title>
<path fill="none" stroke="grey" stroke-width="2" d="M679.9,-1029.65C633.93,-1018.58 545.59,-997.3 482.37,-982.07"/>
<polygon fill="grey" stroke="grey" stroke-width="2" points="482.99,-978.62 472.45,-979.68 481.35,-985.43 482.99,-978.62"/>
</g>
<!-- 19 -->
<g id="node20" class="node">
<title>19</title>
<path fill="none" stroke="#afd856" stroke-width="2" d="M613.41,-984C613.41,-984 511.41,-984 511.41,-984 505.41,-984 499.41,-978 499.41,-972 499.41,-972 499.41,-955 499.41,-955 499.41,-949 505.41,-943 511.41,-943 511.41,-943 613.41,-943 613.41,-943 619.41,-943 625.41,-949 625.41,-955 625.41,-955 625.41,-972 625.41,-972 625.41,-978 619.41,-984 613.41,-984"/>
<text text-anchor="middle" x="562.41" y="-972" font-family="sans" font-size="10.00">mutect2</text>
<text text-anchor="middle" x="562.41" y="-961" font-family="sans" font-size="10.00">sample: HD832.HES45</text>
<text text-anchor="middle" x="562.41" y="-950" font-family="sans" font-size="10.00">type: T</text>
</g>
<!-- 10&#45;&gt;19 -->
<g id="edge29" class="edge">
<title>10&#45;&gt;19</title>
<path fill="none" stroke="grey" stroke-width="2" d="M679.75,-1021.98C660.03,-1012.32 633.97,-999.55 611.42,-988.51"/>
<polygon fill="grey" stroke="grey" stroke-width="2" points="612.84,-985.31 602.32,-984.05 609.76,-991.59 612.84,-985.31"/>
</g>
<!-- 28 -->
<g id="node29" class="node">
<title>28</title>
<path fill="none" stroke="#d87556" stroke-width="2" d="M761.41,-984C761.41,-984 659.41,-984 659.41,-984 653.41,-984 647.41,-978 647.41,-972 647.41,-972 647.41,-955 647.41,-955 647.41,-949 653.41,-943 659.41,-943 659.41,-943 761.41,-943 761.41,-943 767.41,-943 773.41,-949 773.41,-955 773.41,-955 773.41,-972 773.41,-972 773.41,-978 767.41,-984 761.41,-984"/>
<text text-anchor="middle" x="710.41" y="-972" font-family="sans" font-size="10.00">freebayes</text>
<text text-anchor="middle" x="710.41" y="-961" font-family="sans" font-size="10.00">sample: HD832.HES45</text>
<text text-anchor="middle" x="710.41" y="-950" font-family="sans" font-size="10.00">type: T</text>
</g>
<!-- 10&#45;&gt;28 -->
<g id="edge40" class="edge">
<title>10&#45;&gt;28</title>
<path fill="none" stroke="grey" stroke-width="2" d="M710.41,-1019.82C710.41,-1012.2 710.41,-1003 710.41,-994.32"/>
<polygon fill="grey" stroke="grey" stroke-width="2" points="713.91,-994.12 710.41,-984.12 706.91,-994.12 713.91,-994.12"/>
</g>
<!-- 36 -->
<g id="node37" class="node">
<title>36</title>
<path fill="none" stroke="#d8bc56" stroke-width="2" d="M964.41,-984C964.41,-984 862.41,-984 862.41,-984 856.41,-984 850.41,-978 850.41,-972 850.41,-972 850.41,-955 850.41,-955 850.41,-949 856.41,-943 862.41,-943 862.41,-943 964.41,-943 964.41,-943 970.41,-943 976.41,-949 976.41,-955 976.41,-955 976.41,-972 976.41,-972 976.41,-978 970.41,-984 964.41,-984"/>
<text text-anchor="middle" x="913.41" y="-972" font-family="sans" font-size="10.00">mutect2_gvcf</text>
<text text-anchor="middle" x="913.41" y="-961" font-family="sans" font-size="10.00">sample: HD832.HES45</text>
<text text-anchor="middle" x="913.41" y="-950" font-family="sans" font-size="10.00">type: T</text>
</g>
<!-- 10&#45;&gt;36 -->
<g id="edge48" class="edge">
<title>10&#45;&gt;36</title>
<path fill="none" stroke="grey" stroke-width="2" d="M741.25,-1025.99C769.75,-1015.81 813.03,-1000.35 849.06,-987.48"/>
<polygon fill="grey" stroke="grey" stroke-width="2" points="850.29,-990.76 858.53,-984.1 847.94,-984.17 850.29,-990.76"/>
</g>
<!-- 44 -->
<g id="node45" class="node">
<title>44</title>
<path fill="none" stroke="#56d88a" stroke-width="2" d="M1204.41,-984C1204.41,-984 1102.41,-984 1102.41,-984 1096.41,-984 1090.41,-978 1090.41,-972 1090.41,-972 1090.41,-955 1090.41,-955 1090.41,-949 1096.41,-943 1102.41,-943 1102.41,-943 1204.41,-943 1204.41,-943 1210.41,-943 1216.41,-949 1216.41,-955 1216.41,-955 1216.41,-972 1216.41,-972 1216.41,-978 1210.41,-984 1204.41,-984"/>
<text text-anchor="middle" x="1153.41" y="-972" font-family="sans" font-size="10.00">haplotypecaller</text>
<text text-anchor="middle" x="1153.41" y="-961" font-family="sans" font-size="10.00">sample: HD832.HES45</text>
<text text-anchor="middle" x="1153.41" y="-950" font-family="sans" font-size="10.00">type: T</text>
</g>
<!-- 10&#45;&gt;44 -->
<g id="edge58" class="edge">
<title>10&#45;&gt;44</title>
<path fill="none" stroke="grey" stroke-width="2" d="M741.21,-1031.96C810.83,-1020.57 981.92,-992.57 1080.4,-976.45"/>
<polygon fill="grey" stroke="grey" stroke-width="2" points="1080.98,-979.9 1090.29,-974.83 1079.85,-972.99 1080.98,-979.9"/>
</g>
<!-- 11&#45;&gt;7 -->
<g id="edge17" class="edge">
<title>11&#45;&gt;7</title>
<path fill="none" stroke="grey" stroke-width="2" d="M386.75,-791.43C379.7,-781.1 370.53,-767.69 362.45,-755.86"/>
<polygon fill="grey" stroke="grey" stroke-width="2" points="365.33,-753.88 356.8,-747.6 359.55,-757.83 365.33,-753.88"/>
</g>
<!-- 12&#45;&gt;2 -->
<g id="edge11" class="edge">
<title>12&#45;&gt;2</title>
<path fill="none" stroke="grey" stroke-width="2" d="M221.33,-292.88C205.09,-283.64 184.87,-272.13 167.44,-262.21"/>
<polygon fill="grey" stroke="grey" stroke-width="2" points="169.04,-259.09 158.62,-257.19 165.58,-265.18 169.04,-259.09"/>
</g>
<!-- 13 -->
<g id="node14" class="node">
<title>13</title>
<path fill="none" stroke="#56d8d0" stroke-width="2" d="M495.91,-257C495.91,-257 440.91,-257 440.91,-257 434.91,-257 428.91,-251 428.91,-245 428.91,-245 428.91,-233 428.91,-233 428.91,-227 434.91,-221 440.91,-221 440.91,-221 495.91,-221 495.91,-221 501.91,-221 507.91,-227 507.91,-233 507.91,-233 507.91,-245 507.91,-245 507.91,-251 501.91,-257 495.91,-257"/>
<text text-anchor="middle" x="468.41" y="-236.5" font-family="sans" font-size="10.00">bcftools_sort</text>
</g>
<!-- 13&#45;&gt;1 -->
<g id="edge5" class="edge">
<title>13&#45;&gt;1</title>
<path fill="none" stroke="grey" stroke-width="2" d="M428.85,-229.07C405.43,-221.53 377.65,-208.13 363.41,-185 355.03,-171.37 354.11,-162.02 363.41,-149 378.52,-127.86 402.19,-114.68 426.82,-106.5"/>
<polygon fill="grey" stroke="grey" stroke-width="2" points="428.12,-109.76 436.66,-103.5 426.08,-103.07 428.12,-109.76"/>
</g>
<!-- 32 -->
<g id="node33" class="node">
<title>32</title>
<path fill="none" stroke="#567bd8" stroke-width="2" d="M665.91,-185C665.91,-185 384.91,-185 384.91,-185 378.91,-185 372.91,-179 372.91,-173 372.91,-173 372.91,-161 372.91,-161 372.91,-155 378.91,-149 384.91,-149 384.91,-149 665.91,-149 665.91,-149 671.91,-149 677.91,-155 677.91,-161 677.91,-161 677.91,-173 677.91,-173 677.91,-179 671.91,-185 665.91,-185"/>
<text text-anchor="middle" x="525.41" y="-170" font-family="sans" font-size="10.00">tabix</text>
<text text-anchor="middle" x="525.41" y="-159" font-family="sans" font-size="10.00">file: snv_indels/mutect2/HD832.HES45_T.normalized.sorted</text>
</g>
<!-- 13&#45;&gt;32 -->
<g id="edge44" class="edge">
<title>13&#45;&gt;32</title>
<path fill="none" stroke="grey" stroke-width="2" d="M482.5,-220.7C489.34,-212.3 497.67,-202.07 505.17,-192.86"/>
<polygon fill="grey" stroke="grey" stroke-width="2" points="507.89,-195.07 511.49,-185.1 502.46,-190.65 507.89,-195.07"/>
</g>
<!-- 14 -->
<g id="node15" class="node">
<title>14</title>
<path fill="none" stroke="#d89c56" stroke-width="2" d="M585.41,-401C585.41,-401 529.41,-401 529.41,-401 523.41,-401 517.41,-395 517.41,-389 517.41,-389 517.41,-377 517.41,-377 517.41,-371 523.41,-365 529.41,-365 529.41,-365 585.41,-365 585.41,-365 591.41,-365 597.41,-371 597.41,-377 597.41,-377 597.41,-389 597.41,-389 597.41,-395 591.41,-401 585.41,-401"/>
<text text-anchor="middle" x="557.41" y="-380.5" font-family="sans" font-size="10.00">vt_normalize</text>
</g>
<!-- 14&#45;&gt;13 -->
<g id="edge22" class="edge">
<title>14&#45;&gt;13</title>
<path fill="none" stroke="grey" stroke-width="2" d="M517.33,-376.85C488.09,-370.77 450.39,-357.56 431.41,-329 418.17,-309.06 431.29,-283.6 445.44,-265.03"/>
<polygon fill="grey" stroke="grey" stroke-width="2" points="448.35,-267 451.92,-257.02 442.91,-262.59 448.35,-267"/>
</g>
<!-- 20 -->
<g id="node21" class="node">
<title>20</title>
<path fill="none" stroke="#567bd8" stroke-width="2" d="M700.41,-329C700.41,-329 452.41,-329 452.41,-329 446.41,-329 440.41,-323 440.41,-317 440.41,-317 440.41,-305 440.41,-305 440.41,-299 446.41,-293 452.41,-293 452.41,-293 700.41,-293 700.41,-293 706.41,-293 712.41,-299 712.41,-305 712.41,-305 712.41,-317 712.41,-317 712.41,-323 706.41,-329 700.41,-329"/>
<text text-anchor="middle" x="576.41" y="-314" font-family="sans" font-size="10.00">tabix</text>
<text text-anchor="middle" x="576.41" y="-303" font-family="sans" font-size="10.00">file: snv_indels/mutect2/HD832.HES45_T.normalized</text>
</g>
<!-- 14&#45;&gt;20 -->
<g id="edge30" class="edge">
<title>14&#45;&gt;20</title>
<path fill="none" stroke="grey" stroke-width="2" d="M562.11,-364.7C564.23,-356.9 566.78,-347.51 569.13,-338.83"/>
<polygon fill="grey" stroke="grey" stroke-width="2" points="572.53,-339.67 571.77,-329.1 565.77,-337.84 572.53,-339.67"/>
</g>
<!-- 15 -->
<g id="node16" class="node">
<title>15</title>
<path fill="none" stroke="#56c1d8" stroke-width="2" d="M608.41,-577C608.41,-577 506.41,-577 506.41,-577 500.41,-577 494.41,-571 494.41,-565 494.41,-565 494.41,-537 494.41,-537 494.41,-531 500.41,-525 506.41,-525 506.41,-525 608.41,-525 608.41,-525 614.41,-525 620.41,-531 620.41,-537 620.41,-537 620.41,-565 620.41,-565 620.41,-571 614.41,-577 608.41,-577"/>
<text text-anchor="middle" x="557.41" y="-565" font-family="sans" font-size="10.00">vt_decompose</text>
<text text-anchor="middle" x="557.41" y="-554" font-family="sans" font-size="10.00">caller: mutect2</text>
<text text-anchor="middle" x="557.41" y="-543" font-family="sans" font-size="10.00">sample: HD832.HES45</text>
<text text-anchor="middle" x="557.41" y="-532" font-family="sans" font-size="10.00">type: T</text>
</g>
<!-- 15&#45;&gt;14 -->
<g id="edge24" class="edge">
<title>15&#45;&gt;14</title>
<path fill="none" stroke="grey" stroke-width="2" d="M557.41,-524.79C557.41,-494.28 557.41,-443.1 557.41,-411.57"/>
<polygon fill="grey" stroke="grey" stroke-width="2" points="560.91,-411.3 557.41,-401.3 553.91,-411.3 560.91,-411.3"/>
</g>
<!-- 16 -->
<g id="node17" class="node">
<title>16</title>
<path fill="none" stroke="#68d856" stroke-width="2" d="M667.41,-657C667.41,-657 447.41,-657 447.41,-657 441.41,-657 435.41,-651 435.41,-645 435.41,-645 435.41,-633 435.41,-633 435.41,-627 441.41,-621 447.41,-621 447.41,-621 667.41,-621 667.41,-621 673.41,-621 679.41,-627 679.41,-633 679.41,-633 679.41,-645 679.41,-645 679.41,-651 673.41,-657 667.41,-657"/>
<text text-anchor="middle" x="557.41" y="-642" font-family="sans" font-size="10.00">bgzip</text>
<text text-anchor="middle" x="557.41" y="-631" font-family="sans" font-size="10.00">file: snv_indels/mutect2/HD832.HES45_T.fix_af</text>
</g>
<!-- 16&#45;&gt;15 -->
<g id="edge25" class="edge">
<title>16&#45;&gt;15</title>
<path fill="none" stroke="grey" stroke-width="2" d="M557.41,-620.6C557.41,-611.05 557.41,-598.86 557.41,-587.41"/>
<polygon fill="grey" stroke="grey" stroke-width="2" points="560.91,-587.2 557.41,-577.2 553.91,-587.2 560.91,-587.2"/>
</g>
<!-- 17 -->
<g id="node18" class="node">
<title>17</title>
<path fill="none" stroke="#569ad8" stroke-width="2" d="M608.41,-753C608.41,-753 506.41,-753 506.41,-753 500.41,-753 494.41,-747 494.41,-741 494.41,-741 494.41,-713 494.41,-713 494.41,-707 500.41,-701 506.41,-701 506.41,-701 608.41,-701 608.41,-701 614.41,-701 620.41,-707 620.41,-713 620.41,-713 620.41,-741 620.41,-741 620.41,-747 614.41,-753 608.41,-753"/>
<text text-anchor="middle" x="557.41" y="-741" font-family="sans" font-size="10.00">fix_af</text>
<text text-anchor="middle" x="557.41" y="-730" font-family="sans" font-size="10.00">caller: mutect2</text>
<text text-anchor="middle" x="557.41" y="-719" font-family="sans" font-size="10.00">sample: HD832.HES45</text>
<text text-anchor="middle" x="557.41" y="-708" font-family="sans" font-size="10.00">type: T</text>
</g>
<!-- 17&#45;&gt;16 -->
<g id="edge26" class="edge">
<title>17&#45;&gt;16</title>
<path fill="none" stroke="grey" stroke-width="2" d="M557.41,-700.66C557.41,-690.11 557.41,-677.84 557.41,-667.1"/>
<polygon fill="grey" stroke="grey" stroke-width="2" points="560.91,-667 557.41,-657 553.91,-667 560.91,-667"/>
</g>
<!-- 18 -->
<g id="node19" class="node">
<title>18</title>
<path fill="none" stroke="#56d86b" stroke-width="2" d="M652.91,-830C652.91,-830 461.91,-830 461.91,-830 455.91,-830 449.91,-824 449.91,-818 449.91,-818 449.91,-801 449.91,-801 449.91,-795 455.91,-789 461.91,-789 461.91,-789 652.91,-789 652.91,-789 658.91,-789 664.91,-795 664.91,-801 664.91,-801 664.91,-818 664.91,-818 664.91,-824 658.91,-830 652.91,-830"/>
<text text-anchor="middle" x="557.41" y="-818" font-family="sans" font-size="10.00">bcftools_concat</text>
<text text-anchor="middle" x="557.41" y="-807" font-family="sans" font-size="10.00">file: snv_indels/mutect2/HD832.HES45_T</text>
<text text-anchor="middle" x="557.41" y="-796" font-family="sans" font-size="10.00">vcf: vcf</text>
</g>
<!-- 18&#45;&gt;17 -->
<g id="edge27" class="edge">
<title>18&#45;&gt;17</title>
<path fill="none" stroke="grey" stroke-width="2" d="M557.41,-788.6C557.41,-780.99 557.41,-772.06 557.41,-763.43"/>
<polygon fill="grey" stroke="grey" stroke-width="2" points="560.91,-763.16 557.41,-753.16 553.91,-763.16 560.91,-763.16"/>
</g>
<!-- 19&#45;&gt;18 -->
<g id="edge28" class="edge">
<title>19&#45;&gt;18</title>
<path fill="none" stroke="grey" stroke-width="2" d="M561.77,-942.94C560.92,-916.98 559.4,-870.88 558.4,-840.5"/>
<polygon fill="grey" stroke="grey" stroke-width="2" points="561.9,-840.35 558.07,-830.47 554.9,-840.58 561.9,-840.35"/>
</g>
<!-- 20&#45;&gt;13 -->
<g id="edge23" class="edge">
<title>20&#45;&gt;13</title>
<path fill="none" stroke="grey" stroke-width="2" d="M549.99,-292.88C536,-283.81 518.64,-272.55 503.53,-262.76"/>
<polygon fill="grey" stroke="grey" stroke-width="2" points="505.23,-259.69 494.94,-257.19 501.42,-265.57 505.23,-259.69"/>
</g>
<!-- 21 -->
<g id="node22" class="node">
<title>21</title>
<path fill="none" stroke="#56d8d0" stroke-width="2" d="M842.91,-257C842.91,-257 787.91,-257 787.91,-257 781.91,-257 775.91,-251 775.91,-245 775.91,-245 775.91,-233 775.91,-233 775.91,-227 781.91,-221 787.91,-221 787.91,-221 842.91,-221 842.91,-221 848.91,-221 854.91,-227 854.91,-233 854.91,-233 854.91,-245 854.91,-245 854.91,-251 848.91,-257 842.91,-257"/>
<text text-anchor="middle" x="815.41" y="-236.5" font-family="sans" font-size="10.00">bcftools_sort</text>
</g>
<!-- 21&#45;&gt;1 -->
<g id="edge6" class="edge">
<title>21&#45;&gt;1</title>
<path fill="none" stroke="grey" stroke-width="2" d="M782.7,-220.95C765.15,-211.26 743.47,-198.41 725.41,-185 706.48,-170.94 706.66,-161.1 686.41,-149 663.79,-135.48 637.39,-124.64 612.59,-116.26"/>
<polygon fill="grey" stroke="grey" stroke-width="2" points="613.41,-112.84 602.82,-113.05 611.23,-119.5 613.41,-112.84"/>
</g>
<!-- 33 -->
<g id="node34" class="node">
<title>33</title>
<path fill="none" stroke="#567bd8" stroke-width="2" d="M1036.41,-185C1036.41,-185 746.41,-185 746.41,-185 740.41,-185 734.41,-179 734.41,-173 734.41,-173 734.41,-161 734.41,-161 734.41,-155 740.41,-149 746.41,-149 746.41,-149 1036.41,-149 1036.41,-149 1042.41,-149 1048.41,-155 1048.41,-161 1048.41,-161 1048.41,-173 1048.41,-173 1048.41,-179 1042.41,-185 1036.41,-185"/>
<text text-anchor="middle" x="891.41" y="-170" font-family="sans" font-size="10.00">tabix</text>
<text text-anchor="middle" x="891.41" y="-159" font-family="sans" font-size="10.00">file: snv_indels/freebayes/HD832.HES45_T.normalized.sorted</text>
</g>
<!-- 21&#45;&gt;33 -->
<g id="edge45" class="edge">
<title>21&#45;&gt;33</title>
<path fill="none" stroke="grey" stroke-width="2" d="M834.2,-220.7C843.59,-212.05 855.1,-201.45 865.33,-192.03"/>
<polygon fill="grey" stroke="grey" stroke-width="2" points="867.86,-194.45 872.84,-185.1 863.12,-189.3 867.86,-194.45"/>
</g>
<!-- 22 -->
<g id="node23" class="node">
<title>22</title>
<path fill="none" stroke="#d89c56" stroke-width="2" d="M792.41,-401C792.41,-401 736.41,-401 736.41,-401 730.41,-401 724.41,-395 724.41,-389 724.41,-389 724.41,-377 724.41,-377 724.41,-371 730.41,-365 736.41,-365 736.41,-365 792.41,-365 792.41,-365 798.41,-365 804.41,-371 804.41,-377 804.41,-377 804.41,-389 804.41,-389 804.41,-395 798.41,-401 792.41,-401"/>
<text text-anchor="middle" x="764.41" y="-380.5" font-family="sans" font-size="10.00">vt_normalize</text>
</g>
<!-- 22&#45;&gt;21 -->
<g id="edge31" class="edge">
<title>22&#45;&gt;21</title>
<path fill="none" stroke="grey" stroke-width="2" d="M759.05,-364.81C754.25,-346.28 749.38,-316.31 759.41,-293 764.2,-281.87 772.6,-271.99 781.46,-263.86"/>
<polygon fill="grey" stroke="grey" stroke-width="2" points="783.96,-266.34 789.29,-257.18 779.41,-261.01 783.96,-266.34"/>
</g>
<!-- 30 -->
<g id="node31" class="node">
<title>30</title>
<path fill="none" stroke="#567bd8" stroke-width="2" d="M1036.41,-329C1036.41,-329 780.41,-329 780.41,-329 774.41,-329 768.41,-323 768.41,-317 768.41,-317 768.41,-305 768.41,-305 768.41,-299 774.41,-293 780.41,-293 780.41,-293 1036.41,-293 1036.41,-293 1042.41,-293 1048.41,-299 1048.41,-305 1048.41,-305 1048.41,-317 1048.41,-317 1048.41,-323 1042.41,-329 1036.41,-329"/>
<text text-anchor="middle" x="908.41" y="-314" font-family="sans" font-size="10.00">tabix</text>
<text text-anchor="middle" x="908.41" y="-303" font-family="sans" font-size="10.00">file: snv_indels/freebayes/HD832.HES45_T.normalized</text>
</g>
<!-- 22&#45;&gt;30 -->
<g id="edge42" class="edge">
<title>22&#45;&gt;30</title>
<path fill="none" stroke="grey" stroke-width="2" d="M799.64,-364.88C818.99,-355.47 843.19,-343.71 863.84,-333.67"/>
<polygon fill="grey" stroke="grey" stroke-width="2" points="865.59,-336.71 873.05,-329.19 862.53,-330.41 865.59,-336.71"/>
</g>
<!-- 23 -->
<g id="node24" class="node">
<title>23</title>
<path fill="none" stroke="#56c1d8" stroke-width="2" d="M815.41,-489C815.41,-489 713.41,-489 713.41,-489 707.41,-489 701.41,-483 701.41,-477 701.41,-477 701.41,-449 701.41,-449 701.41,-443 707.41,-437 713.41,-437 713.41,-437 815.41,-437 815.41,-437 821.41,-437 827.41,-443 827.41,-449 827.41,-449 827.41,-477 827.41,-477 827.41,-483 821.41,-489 815.41,-489"/>
<text text-anchor="middle" x="764.41" y="-477" font-family="sans" font-size="10.00">vt_decompose</text>
<text text-anchor="middle" x="764.41" y="-466" font-family="sans" font-size="10.00">caller: freebayes</text>
<text text-anchor="middle" x="764.41" y="-455" font-family="sans" font-size="10.00">sample: HD832.HES45</text>
<text text-anchor="middle" x="764.41" y="-444" font-family="sans" font-size="10.00">type: T</text>
</g>
<!-- 23&#45;&gt;22 -->
<g id="edge33" class="edge">
<title>23&#45;&gt;22</title>
<path fill="none" stroke="grey" stroke-width="2" d="M764.41,-436.89C764.41,-428.84 764.41,-419.88 764.41,-411.66"/>
<polygon fill="grey" stroke="grey" stroke-width="2" points="767.91,-411.41 764.41,-401.41 760.91,-411.41 767.91,-411.41"/>
</g>
<!-- 24 -->
<g id="node25" class="node">
<title>24</title>
<path fill="none" stroke="#68d856" stroke-width="2" d="M878.41,-569C878.41,-569 650.41,-569 650.41,-569 644.41,-569 638.41,-563 638.41,-557 638.41,-557 638.41,-545 638.41,-545 638.41,-539 644.41,-533 650.41,-533 650.41,-533 878.41,-533 878.41,-533 884.41,-533 890.41,-539 890.41,-545 890.41,-545 890.41,-557 890.41,-557 890.41,-563 884.41,-569 878.41,-569"/>
<text text-anchor="middle" x="764.41" y="-554" font-family="sans" font-size="10.00">bgzip</text>
<text text-anchor="middle" x="764.41" y="-543" font-family="sans" font-size="10.00">file: snv_indels/freebayes/HD832.HES45_T.fix_af</text>
</g>
<!-- 24&#45;&gt;23 -->
<g id="edge34" class="edge">
<title>24&#45;&gt;23</title>
<path fill="none" stroke="grey" stroke-width="2" d="M764.41,-532.6C764.41,-523.05 764.41,-510.86 764.41,-499.41"/>
<polygon fill="grey" stroke="grey" stroke-width="2" points="767.91,-499.2 764.41,-489.2 760.91,-499.2 767.91,-499.2"/>
</g>
<!-- 25 -->
<g id="node26" class="node">
<title>25</title>
<path fill="none" stroke="#569ad8" stroke-width="2" d="M815.41,-665C815.41,-665 713.41,-665 713.41,-665 707.41,-665 701.41,-659 701.41,-653 701.41,-653 701.41,-625 701.41,-625 701.41,-619 707.41,-613 713.41,-613 713.41,-613 815.41,-613 815.41,-613 821.41,-613 827.41,-619 827.41,-625 827.41,-625 827.41,-653 827.41,-653 827.41,-659 821.41,-665 815.41,-665"/>
<text text-anchor="middle" x="764.41" y="-653" font-family="sans" font-size="10.00">fix_af</text>
<text text-anchor="middle" x="764.41" y="-642" font-family="sans" font-size="10.00">caller: freebayes</text>
<text text-anchor="middle" x="764.41" y="-631" font-family="sans" font-size="10.00">sample: HD832.HES45</text>
<text text-anchor="middle" x="764.41" y="-620" font-family="sans" font-size="10.00">type: T</text>
</g>
<!-- 25&#45;&gt;24 -->
<g id="edge35" class="edge">
<title>25&#45;&gt;24</title>
<path fill="none" stroke="grey" stroke-width="2" d="M764.41,-612.66C764.41,-602.11 764.41,-589.84 764.41,-579.1"/>
<polygon fill="grey" stroke="grey" stroke-width="2" points="767.91,-579 764.41,-569 760.91,-579 767.91,-579"/>
</g>
<!-- 26 -->
<g id="node27" class="node">
<title>26</title>
<path fill="none" stroke="#56d86b" stroke-width="2" d="M863.91,-747.5C863.91,-747.5 664.91,-747.5 664.91,-747.5 658.91,-747.5 652.91,-741.5 652.91,-735.5 652.91,-735.5 652.91,-718.5 652.91,-718.5 652.91,-712.5 658.91,-706.5 664.91,-706.5 664.91,-706.5 863.91,-706.5 863.91,-706.5 869.91,-706.5 875.91,-712.5 875.91,-718.5 875.91,-718.5 875.91,-735.5 875.91,-735.5 875.91,-741.5 869.91,-747.5 863.91,-747.5"/>
<text text-anchor="middle" x="764.41" y="-735.5" font-family="sans" font-size="10.00">bcftools_concat</text>
<text text-anchor="middle" x="764.41" y="-724.5" font-family="sans" font-size="10.00">file: snv_indels/freebayes/HD832.HES45_T</text>
<text text-anchor="middle" x="764.41" y="-713.5" font-family="sans" font-size="10.00">vcf: vcf</text>
</g>
<!-- 26&#45;&gt;25 -->
<g id="edge36" class="edge">
<title>26&#45;&gt;25</title>
<path fill="none" stroke="grey" stroke-width="2" d="M764.41,-706.49C764.41,-697.34 764.41,-686.15 764.41,-675.58"/>
<polygon fill="grey" stroke="grey" stroke-width="2" points="767.91,-675.32 764.41,-665.32 760.91,-675.32 767.91,-675.32"/>
</g>
<!-- 27 -->
<g id="node28" class="node">
<title>27</title>
<path fill="none" stroke="#68d856" stroke-width="2" d="M822.91,-904.5C822.91,-904.5 597.91,-904.5 597.91,-904.5 591.91,-904.5 585.91,-898.5 585.91,-892.5 585.91,-892.5 585.91,-880.5 585.91,-880.5 585.91,-874.5 591.91,-868.5 597.91,-868.5 597.91,-868.5 822.91,-868.5 822.91,-868.5 828.91,-868.5 834.91,-874.5 834.91,-880.5 834.91,-880.5 834.91,-892.5 834.91,-892.5 834.91,-898.5 828.91,-904.5 822.91,-904.5"/>
<text text-anchor="middle" x="710.41" y="-889.5" font-family="sans" font-size="10.00">bgzip</text>
<text text-anchor="middle" x="710.41" y="-878.5" font-family="sans" font-size="10.00">file: snv_indels/freebayes/HD832.HES45_T_chr1</text>
</g>
<!-- 27&#45;&gt;26 -->
<g id="edge37" class="edge">
<title>27&#45;&gt;26</title>
<path fill="none" stroke="grey" stroke-width="2" d="M712.09,-868.3C714.39,-848.64 719.43,-815.71 729.41,-789 733.6,-777.79 739.71,-766.23 745.66,-756.22"/>
<polygon fill="grey" stroke="grey" stroke-width="2" points="748.75,-757.87 751.02,-747.52 742.79,-754.2 748.75,-757.87"/>
</g>
<!-- 29 -->
<g id="node30" class="node">
<title>29</title>
<path fill="none" stroke="#567bd8" stroke-width="2" d="M780.41,-827.5C780.41,-827.5 750.41,-827.5 750.41,-827.5 744.41,-827.5 738.41,-821.5 738.41,-815.5 738.41,-815.5 738.41,-803.5 738.41,-803.5 738.41,-797.5 744.41,-791.5 750.41,-791.5 750.41,-791.5 780.41,-791.5 780.41,-791.5 786.41,-791.5 792.41,-797.5 792.41,-803.5 792.41,-803.5 792.41,-815.5 792.41,-815.5 792.41,-821.5 786.41,-827.5 780.41,-827.5"/>
<text text-anchor="middle" x="765.41" y="-807" font-family="sans" font-size="10.00">tabix</text>
</g>
<!-- 27&#45;&gt;29 -->
<g id="edge41" class="edge">
<title>27&#45;&gt;29</title>
<path fill="none" stroke="grey" stroke-width="2" d="M722.89,-868.48C729.95,-858.86 738.9,-846.66 746.77,-835.92"/>
<polygon fill="grey" stroke="grey" stroke-width="2" points="749.7,-837.84 752.79,-827.71 744.06,-833.71 749.7,-837.84"/>
</g>
<!-- 28&#45;&gt;27 -->
<g id="edge39" class="edge">
<title>28&#45;&gt;27</title>
<path fill="none" stroke="grey" stroke-width="2" d="M710.41,-942.79C710.41,-934.31 710.41,-924.24 710.41,-915.04"/>
<polygon fill="grey" stroke="grey" stroke-width="2" points="713.91,-914.78 710.41,-904.78 706.91,-914.78 713.91,-914.78"/>
</g>
<!-- 29&#45;&gt;26 -->
<g id="edge38" class="edge">
<title>29&#45;&gt;26</title>
<path fill="none" stroke="grey" stroke-width="2" d="M765.2,-791.43C765.08,-781.6 764.92,-768.99 764.78,-757.6"/>
<polygon fill="grey" stroke="grey" stroke-width="2" points="768.28,-757.55 764.66,-747.6 761.28,-757.64 768.28,-757.55"/>
</g>
<!-- 30&#45;&gt;21 -->
<g id="edge32" class="edge">
<title>30&#45;&gt;21</title>
<path fill="none" stroke="grey" stroke-width="2" d="M885.43,-292.7C873.6,-283.8 859.02,-272.82 846.24,-263.2"/>
<polygon fill="grey" stroke="grey" stroke-width="2" points="848.23,-260.32 838.14,-257.1 844.02,-265.91 848.23,-260.32"/>
</g>
<!-- 31&#45;&gt;1 -->
<g id="edge7" class="edge">
<title>31&#45;&gt;1</title>
<path fill="none" stroke="grey" stroke-width="2" d="M251.04,-148.91C303.63,-138.29 371.47,-124.59 426.54,-113.47"/>
<polygon fill="grey" stroke="grey" stroke-width="2" points="427.56,-116.83 436.67,-111.42 426.17,-109.97 427.56,-116.83"/>
</g>
<!-- 32&#45;&gt;1 -->
<g id="edge8" class="edge">
<title>32&#45;&gt;1</title>
<path fill="none" stroke="grey" stroke-width="2" d="M525.41,-148.82C525.41,-141.2 525.41,-132 525.41,-123.32"/>
<polygon fill="grey" stroke="grey" stroke-width="2" points="528.91,-123.12 525.41,-113.12 521.91,-123.12 528.91,-123.12"/>
</g>
<!-- 33&#45;&gt;1 -->
<g id="edge9" class="edge">
<title>33&#45;&gt;1</title>
<path fill="none" stroke="grey" stroke-width="2" d="M805.14,-148.91C750.81,-138.15 680.52,-124.23 624,-113.03"/>
<polygon fill="grey" stroke="grey" stroke-width="2" points="624.46,-109.55 613.97,-111.04 623.1,-116.42 624.46,-109.55"/>
</g>
<!-- 34 -->
<g id="node35" class="node">
<title>34</title>
<path fill="none" stroke="#68d856" stroke-width="2" d="M1156.41,-110.5C1156.41,-110.5 890.41,-110.5 890.41,-110.5 884.41,-110.5 878.41,-104.5 878.41,-98.5 878.41,-98.5 878.41,-86.5 878.41,-86.5 878.41,-80.5 884.41,-74.5 890.41,-74.5 890.41,-74.5 1156.41,-74.5 1156.41,-74.5 1162.41,-74.5 1168.41,-80.5 1168.41,-86.5 1168.41,-86.5 1168.41,-98.5 1168.41,-98.5 1168.41,-104.5 1162.41,-110.5 1156.41,-110.5"/>
<text text-anchor="middle" x="1023.41" y="-95.5" font-family="sans" font-size="10.00">bgzip</text>
<text text-anchor="middle" x="1023.41" y="-84.5" font-family="sans" font-size="10.00">file: snv_indels/mutect2_gvcf/HD832.HES45_T.merged.g</text>
</g>
<!-- 34&#45;&gt;0 -->
<g id="edge2" class="edge">
<title>34&#45;&gt;0</title>
<path fill="none" stroke="grey" stroke-width="2" d="M1023.41,-74.32C1023.41,-65.92 1023.41,-55.62 1023.41,-46.19"/>
<polygon fill="grey" stroke="grey" stroke-width="2" points="1026.91,-46.06 1023.41,-36.06 1019.91,-46.06 1026.91,-46.06"/>
</g>
<!-- 35 -->
<g id="node36" class="node">
<title>35</title>
<path fill="none" stroke="#56d86b" stroke-width="2" d="M1081.91,-907C1081.91,-907 864.91,-907 864.91,-907 858.91,-907 852.91,-901 852.91,-895 852.91,-895 852.91,-878 852.91,-878 852.91,-872 858.91,-866 864.91,-866 864.91,-866 1081.91,-866 1081.91,-866 1087.91,-866 1093.91,-872 1093.91,-878 1093.91,-878 1093.91,-895 1093.91,-895 1093.91,-901 1087.91,-907 1081.91,-907"/>
<text text-anchor="middle" x="973.41" y="-895" font-family="sans" font-size="10.00">bcftools_concat</text>
<text text-anchor="middle" x="973.41" y="-884" font-family="sans" font-size="10.00">file: snv_indels/mutect2_gvcf/HD832.HES45_T</text>
<text text-anchor="middle" x="973.41" y="-873" font-family="sans" font-size="10.00">vcf: g.vcf</text>
</g>
<!-- 35&#45;&gt;34 -->
<g id="edge46" class="edge">
<title>35&#45;&gt;34</title>
<path fill="none" stroke="grey" stroke-width="2" d="M997.3,-865.82C1027.73,-838.38 1076.41,-785.5 1076.41,-728 1076.41,-728 1076.41,-728 1076.41,-238 1076.41,-197.55 1072.42,-186.56 1057.41,-149 1053.33,-138.77 1047.42,-128.28 1041.68,-119.21"/>
<polygon fill="grey" stroke="grey" stroke-width="2" points="1044.48,-117.11 1036.06,-110.69 1038.64,-120.96 1044.48,-117.11"/>
</g>
<!-- 36&#45;&gt;35 -->
<g id="edge47" class="edge">
<title>36&#45;&gt;35</title>
<path fill="none" stroke="grey" stroke-width="2" d="M929.18,-942.79C936,-934.27 944.1,-924.14 951.49,-914.9"/>
<polygon fill="grey" stroke="grey" stroke-width="2" points="954.24,-917.07 957.76,-907.07 948.78,-912.7 954.24,-917.07"/>
</g>
<!-- 37 -->
<g id="node38" class="node">
<title>37</title>
<path fill="none" stroke="#56d8d0" stroke-width="2" d="M1223.91,-257C1223.91,-257 1168.91,-257 1168.91,-257 1162.91,-257 1156.91,-251 1156.91,-245 1156.91,-245 1156.91,-233 1156.91,-233 1156.91,-227 1162.91,-221 1168.91,-221 1168.91,-221 1223.91,-221 1223.91,-221 1229.91,-221 1235.91,-227 1235.91,-233 1235.91,-233 1235.91,-245 1235.91,-245 1235.91,-251 1229.91,-257 1223.91,-257"/>
<text text-anchor="middle" x="1196.41" y="-236.5" font-family="sans" font-size="10.00">bcftools_sort</text>
</g>
<!-- 37&#45;&gt;0 -->
<g id="edge3" class="edge">
<title>37&#45;&gt;0</title>
<path fill="none" stroke="grey" stroke-width="2" d="M1199.85,-220.97C1205.43,-188.21 1212.56,-115.76 1177.41,-72 1149.21,-36.89 1096.49,-24.95 1060.68,-20.94"/>
<polygon fill="grey" stroke="grey" stroke-width="2" points="1060.89,-17.45 1050.6,-19.97 1060.22,-24.42 1060.89,-17.45"/>
</g>
<!-- 38 -->
<g id="node39" class="node">
<title>38</title>
<path fill="none" stroke="#d89c56" stroke-width="2" d="M1284.41,-401C1284.41,-401 1228.41,-401 1228.41,-401 1222.41,-401 1216.41,-395 1216.41,-389 1216.41,-389 1216.41,-377 1216.41,-377 1216.41,-371 1222.41,-365 1228.41,-365 1228.41,-365 1284.41,-365 1284.41,-365 1290.41,-365 1296.41,-371 1296.41,-377 1296.41,-377 1296.41,-389 1296.41,-389 1296.41,-395 1290.41,-401 1284.41,-401"/>
<text text-anchor="middle" x="1256.41" y="-380.5" font-family="sans" font-size="10.00">vt_normalize</text>
</g>
<!-- 38&#45;&gt;37 -->
<g id="edge49" class="edge">
<title>38&#45;&gt;37</title>
<path fill="none" stroke="grey" stroke-width="2" d="M1230.87,-364.92C1219.39,-355.75 1206.98,-343.36 1200.41,-329 1191.6,-309.72 1191.08,-285.56 1192.49,-267.29"/>
<polygon fill="grey" stroke="grey" stroke-width="2" points="1195.98,-267.59 1193.51,-257.28 1189.02,-266.88 1195.98,-267.59"/>
</g>
<!-- 46 -->
<g id="node47" class="node">
<title>46</title>
<path fill="none" stroke="#567bd8" stroke-width="2" d="M1503.91,-329C1503.91,-329 1220.91,-329 1220.91,-329 1214.91,-329 1208.91,-323 1208.91,-317 1208.91,-317 1208.91,-305 1208.91,-305 1208.91,-299 1214.91,-293 1220.91,-293 1220.91,-293 1503.91,-293 1503.91,-293 1509.91,-293 1515.91,-299 1515.91,-305 1515.91,-305 1515.91,-317 1515.91,-317 1515.91,-323 1509.91,-329 1503.91,-329"/>
<text text-anchor="middle" x="1362.41" y="-314" font-family="sans" font-size="10.00">tabix</text>
<text text-anchor="middle" x="1362.41" y="-303" font-family="sans" font-size="10.00">file: snv_indels/haplotypecaller/HD832.HES45_T.normalized</text>
</g>
<!-- 38&#45;&gt;46 -->
<g id="edge60" class="edge">
<title>38&#45;&gt;46</title>
<path fill="none" stroke="grey" stroke-width="2" d="M1282.35,-364.88C1296.08,-355.81 1313.12,-344.55 1327.95,-334.76"/>
<polygon fill="grey" stroke="grey" stroke-width="2" points="1329.97,-337.62 1336.38,-329.19 1326.11,-331.78 1329.97,-337.62"/>
</g>
<!-- 39 -->
<g id="node40" class="node">
<title>39</title>
<path fill="none" stroke="#56c1d8" stroke-width="2" d="M1307.41,-489C1307.41,-489 1205.41,-489 1205.41,-489 1199.41,-489 1193.41,-483 1193.41,-477 1193.41,-477 1193.41,-449 1193.41,-449 1193.41,-443 1199.41,-437 1205.41,-437 1205.41,-437 1307.41,-437 1307.41,-437 1313.41,-437 1319.41,-443 1319.41,-449 1319.41,-449 1319.41,-477 1319.41,-477 1319.41,-483 1313.41,-489 1307.41,-489"/>
<text text-anchor="middle" x="1256.41" y="-477" font-family="sans" font-size="10.00">vt_decompose</text>
<text text-anchor="middle" x="1256.41" y="-466" font-family="sans" font-size="10.00">caller: haplotypecaller</text>
<text text-anchor="middle" x="1256.41" y="-455" font-family="sans" font-size="10.00">sample: HD832.HES45</text>
<text text-anchor="middle" x="1256.41" y="-444" font-family="sans" font-size="10.00">type: T</text>
</g>
<!-- 39&#45;&gt;38 -->
<g id="edge51" class="edge">
<title>39&#45;&gt;38</title>
<path fill="none" stroke="grey" stroke-width="2" d="M1256.41,-436.89C1256.41,-428.84 1256.41,-419.88 1256.41,-411.66"/>
<polygon fill="grey" stroke="grey" stroke-width="2" points="1259.91,-411.41 1256.41,-401.41 1252.91,-411.41 1259.91,-411.41"/>
</g>
<!-- 40 -->
<g id="node41" class="node">
<title>40</title>
<path fill="none" stroke="#68d856" stroke-width="2" d="M1383.91,-569C1383.91,-569 1128.91,-569 1128.91,-569 1122.91,-569 1116.91,-563 1116.91,-557 1116.91,-557 1116.91,-545 1116.91,-545 1116.91,-539 1122.91,-533 1128.91,-533 1128.91,-533 1383.91,-533 1383.91,-533 1389.91,-533 1395.91,-539 1395.91,-545 1395.91,-545 1395.91,-557 1395.91,-557 1395.91,-563 1389.91,-569 1383.91,-569"/>
<text text-anchor="middle" x="1256.41" y="-554" font-family="sans" font-size="10.00">bgzip</text>
<text text-anchor="middle" x="1256.41" y="-543" font-family="sans" font-size="10.00">file: snv_indels/haplotypecaller/HD832.HES45_T.fix_af</text>
</g>
<!-- 40&#45;&gt;39 -->
<g id="edge52" class="edge">
<title>40&#45;&gt;39</title>
<path fill="none" stroke="grey" stroke-width="2" d="M1256.41,-532.6C1256.41,-523.05 1256.41,-510.86 1256.41,-499.41"/>
<polygon fill="grey" stroke="grey" stroke-width="2" points="1259.91,-499.2 1256.41,-489.2 1252.91,-499.2 1259.91,-499.2"/>
</g>
<!-- 41 -->
<g id="node42" class="node">
<title>41</title>
<path fill="none" stroke="#569ad8" stroke-width="2" d="M1307.41,-665C1307.41,-665 1205.41,-665 1205.41,-665 1199.41,-665 1193.41,-659 1193.41,-653 1193.41,-653 1193.41,-625 1193.41,-625 1193.41,-619 1199.41,-613 1205.41,-613 1205.41,-613 1307.41,-613 1307.41,-613 1313.41,-613 1319.41,-619 1319.41,-625 1319.41,-625 1319.41,-653 1319.41,-653 1319.41,-659 1313.41,-665 1307.41,-665"/>
<text text-anchor="middle" x="1256.41" y="-653" font-family="sans" font-size="10.00">fix_af</text>
<text text-anchor="middle" x="1256.41" y="-642" font-family="sans" font-size="10.00">caller: haplotypecaller</text>
<text text-anchor="middle" x="1256.41" y="-631" font-family="sans" font-size="10.00">sample: HD832.HES45</text>
<text text-anchor="middle" x="1256.41" y="-620" font-family="sans" font-size="10.00">type: T</text>
</g>
<!-- 41&#45;&gt;40 -->
<g id="edge53" class="edge">
<title>41&#45;&gt;40</title>
<path fill="none" stroke="grey" stroke-width="2" d="M1256.41,-612.66C1256.41,-602.11 1256.41,-589.84 1256.41,-579.1"/>
<polygon fill="grey" stroke="grey" stroke-width="2" points="1259.91,-579 1256.41,-569 1252.91,-579 1259.91,-579"/>
</g>
<!-- 42 -->
<g id="node43" class="node">
<title>42</title>
<path fill="none" stroke="#56d86b" stroke-width="2" d="M1369.41,-747.5C1369.41,-747.5 1143.41,-747.5 1143.41,-747.5 1137.41,-747.5 1131.41,-741.5 1131.41,-735.5 1131.41,-735.5 1131.41,-718.5 1131.41,-718.5 1131.41,-712.5 1137.41,-706.5 1143.41,-706.5 1143.41,-706.5 1369.41,-706.5 1369.41,-706.5 1375.41,-706.5 1381.41,-712.5 1381.41,-718.5 1381.41,-718.5 1381.41,-735.5 1381.41,-735.5 1381.41,-741.5 1375.41,-747.5 1369.41,-747.5"/>
<text text-anchor="middle" x="1256.41" y="-735.5" font-family="sans" font-size="10.00">bcftools_concat</text>
<text text-anchor="middle" x="1256.41" y="-724.5" font-family="sans" font-size="10.00">file: snv_indels/haplotypecaller/HD832.HES45_T</text>
<text text-anchor="middle" x="1256.41" y="-713.5" font-family="sans" font-size="10.00">vcf: vcf</text>
</g>
<!-- 42&#45;&gt;41 -->
<g id="edge54" class="edge">
<title>42&#45;&gt;41</title>
<path fill="none" stroke="grey" stroke-width="2" d="M1256.41,-706.49C1256.41,-697.34 1256.41,-686.15 1256.41,-675.58"/>
<polygon fill="grey" stroke="grey" stroke-width="2" points="1259.91,-675.32 1256.41,-665.32 1252.91,-675.32 1259.91,-675.32"/>
</g>
<!-- 43 -->
<g id="node44" class="node">
<title>43</title>
<path fill="none" stroke="#68d856" stroke-width="2" d="M1376.41,-904.5C1376.41,-904.5 1124.41,-904.5 1124.41,-904.5 1118.41,-904.5 1112.41,-898.5 1112.41,-892.5 1112.41,-892.5 1112.41,-880.5 1112.41,-880.5 1112.41,-874.5 1118.41,-868.5 1124.41,-868.5 1124.41,-868.5 1376.41,-868.5 1376.41,-868.5 1382.41,-868.5 1388.41,-874.5 1388.41,-880.5 1388.41,-880.5 1388.41,-892.5 1388.41,-892.5 1388.41,-898.5 1382.41,-904.5 1376.41,-904.5"/>
<text text-anchor="middle" x="1250.41" y="-889.5" font-family="sans" font-size="10.00">bgzip</text>
<text text-anchor="middle" x="1250.41" y="-878.5" font-family="sans" font-size="10.00">file: snv_indels/haplotypecaller/HD832.HES45_T_chr1</text>
</g>
<!-- 43&#45;&gt;42 -->
<g id="edge55" class="edge">
<title>43&#45;&gt;42</title>
<path fill="none" stroke="grey" stroke-width="2" d="M1240.71,-868.11C1235.33,-857.47 1229.18,-843.36 1226.41,-830 1222.72,-812.16 1222.29,-806.75 1226.41,-789 1228.99,-777.94 1233.87,-766.57 1238.95,-756.69"/>
<polygon fill="grey" stroke="grey" stroke-width="2" points="1242.12,-758.19 1243.83,-747.74 1235.97,-754.85 1242.12,-758.19"/>
</g>
<!-- 45 -->
<g id="node46" class="node">
<title>45</title>
<path fill="none" stroke="#567bd8" stroke-width="2" d="M1277.41,-827.5C1277.41,-827.5 1247.41,-827.5 1247.41,-827.5 1241.41,-827.5 1235.41,-821.5 1235.41,-815.5 1235.41,-815.5 1235.41,-803.5 1235.41,-803.5 1235.41,-797.5 1241.41,-791.5 1247.41,-791.5 1247.41,-791.5 1277.41,-791.5 1277.41,-791.5 1283.41,-791.5 1289.41,-797.5 1289.41,-803.5 1289.41,-803.5 1289.41,-815.5 1289.41,-815.5 1289.41,-821.5 1283.41,-827.5 1277.41,-827.5"/>
<text text-anchor="middle" x="1262.41" y="-807" font-family="sans" font-size="10.00">tabix</text>
</g>
<!-- 43&#45;&gt;45 -->
<g id="edge59" class="edge">
<title>43&#45;&gt;45</title>
<path fill="none" stroke="grey" stroke-width="2" d="M1253.14,-868.48C1254.58,-859.44 1256.4,-848.1 1258.04,-837.85"/>
<polygon fill="grey" stroke="grey" stroke-width="2" points="1261.54,-838.14 1259.66,-827.71 1254.62,-837.03 1261.54,-838.14"/>
</g>
<!-- 44&#45;&gt;43 -->
<g id="edge57" class="edge">
<title>44&#45;&gt;43</title>
<path fill="none" stroke="grey" stroke-width="2" d="M1178.65,-942.99C1191.38,-933.14 1206.93,-921.12 1220.29,-910.79"/>
<polygon fill="grey" stroke="grey" stroke-width="2" points="1222.51,-913.5 1228.28,-904.61 1218.23,-907.96 1222.51,-913.5"/>
</g>
<!-- 45&#45;&gt;42 -->
<g id="edge56" class="edge">
<title>45&#45;&gt;42</title>
<path fill="none" stroke="grey" stroke-width="2" d="M1261.14,-791.43C1260.41,-781.6 1259.47,-768.99 1258.62,-757.6"/>
<polygon fill="grey" stroke="grey" stroke-width="2" points="1262.11,-757.31 1257.88,-747.6 1255.13,-757.83 1262.11,-757.31"/>
</g>
<!-- 46&#45;&gt;37 -->
<g id="edge50" class="edge">
<title>46&#45;&gt;37</title>
<path fill="none" stroke="grey" stroke-width="2" d="M1321.81,-292.88C1298.76,-283.16 1269.75,-270.92 1245.44,-260.67"/>
<polygon fill="grey" stroke="grey" stroke-width="2" points="1246.6,-257.37 1236.03,-256.71 1243.88,-263.82 1246.6,-257.37"/>
</g>
</g>
</svg>
